<svg xmlns="http://www.w3.org/2000/svg" width="23.8" height="24" viewBox="0 0 23.8 24">
    <path data-name="active_home" d="M437.021 8.244a3.569 3.569 0 0 0-1.977-3.344q-4.093-2.23-8.2-4.436A3.466 3.466 0 0 0 423.4.453q-4.17 2.245-8.314 4.539a3.453 3.453 0 0 0-1.861 3.189c-.013 4.056-.006 8.111 0 12.167a3.712 3.712 0 0 0 .077.76A3.612 3.612 0 0 0 416.943 24q4.1.007 8.2 0h8.076a4.438 4.438 0 0 0 .982-.092 3.6 3.6 0 0 0 2.819-3.615V8.25m-7.245 7.042a3.647 3.647 0 0 1-.225.9 4.754 4.754 0 0 1-9.071-.644.807.807 0 1 1 1.561-.382 3.171 3.171 0 0 0 6.147.176c.028-.1.05-.208.084-.309a.779.779 0 0 1 .894-.531.739.739 0 0 1 .61.785" transform="translate(-413.222)" style="fill:#fff"/>
</svg>
