<svg xmlns="http://www.w3.org/2000/svg" width="35.262" height="24" viewBox="0 0 35.262 24">
    <path data-name="active_primium" d="M2427.3 38.342a2.1 2.1 0 0 0-1.042.284c-1.706.97-3.4 1.962-5.1 2.941a2.292 2.292 0 0 1-1.141.351 2.039 2.039 0 0 1-1.391-.629l-5.691-5.236a1.894 1.894 0 0 0-2.783 0q-2.845 2.619-5.691 5.236a2.048 2.048 0 0 1-1.395.634 2.288 2.288 0 0 1-1.137-.349c-1.712-.986-3.422-1.978-5.136-2.959a2.028 2.028 0 0 0-1.01-.292 1.83 1.83 0 0 0-1.045.343 1.808 1.808 0 0 0-.8 1.886c.38 2.519.768 5.037 1.143 7.557.469 3.15.923 6.3 1.4 9.451a1.939 1.939 0 0 0 2.215 1.883h25.766a2.155 2.155 0 0 0 1.5-.487 2.334 2.334 0 0 0 .681-1.537q1.147-7.727 2.309-15.452a11.987 11.987 0 0 0 .22-1.783 1.828 1.828 0 0 0-1.866-1.841m-11.626 14.9a1.217 1.217 0 0 1-.863.358h-7.317a1.22 1.22 0 1 1 0-2.441h7.317a1.22 1.22 0 0 1 .863 2.083" transform="translate(-2393.904 -35.442)" style="fill:#fff"/>
</svg>
