<svg xmlns="http://www.w3.org/2000/svg" width="24.025" height="24" viewBox="0 0 24.025 24">
    <path data-name="active_profile" d="M1344.211 7.411a11.885 11.885 0 0 0-2.542-3.832A12.037 12.037 0 0 0 1333.142 0h-.02a12 12 0 0 0-12.031 11.817 11.847 11.847 0 0 0 .876 4.7 12.069 12.069 0 0 0 6.32 6.487 11.844 11.844 0 0 0 4.668 1h.119a12.068 12.068 0 0 0 4.662-.926 12.025 12.025 0 0 0 6.474-15.665m-11.316-2a2.766 2.766 0 1 1-2.794 2.713 2.763 2.763 0 0 1 2.794-2.713m6.417 10.369a.923.923 0 0 1-.821.692 1.058 1.058 0 0 1-.686-.217 8.784 8.784 0 0 0-3.573-1.353 9 9 0 0 0-6.271 1.34 1.076 1.076 0 0 1-.7.23.921.921 0 0 1-.4-1.705 10.733 10.733 0 0 1 2.14-1.11 11.139 11.139 0 0 1 4-.714 10.778 10.778 0 0 1 5.9 1.824.912.912 0 0 1 .415 1.009" transform="translate(-1321.09 -.002)" style="fill:#fff"/>
</svg>
