<svg id="aws" xmlns="http://www.w3.org/2000/svg" width="56" height="56" viewBox="0 0 56 56">
  <g id="Rectangle_608" data-name="Rectangle 608" fill="#fff" stroke="#fff" stroke-width="1">
    <rect width="56" height="56" rx="5" stroke="none"/>
    <rect x="0.5" y="0.5" width="55" height="55" rx="4.5" fill="none"/>
  </g>
  <path id="Path_1610" data-name="Path 1610" d="M18.832,7.064a3.235,3.235,0,0,0,.118.951,5.721,5.721,0,0,0,.342.769.465.465,0,0,1,.075.246.423.423,0,0,1-.2.321L18.49,9.8a.512.512,0,0,1-.278.1.492.492,0,0,1-.321-.15,3.307,3.307,0,0,1-.385-.5c-.107-.182-.214-.385-.331-.631a3.949,3.949,0,0,1-3.142,1.475A2.929,2.929,0,0,1,11.9,9.319,2.746,2.746,0,0,1,11.1,7.267a2.751,2.751,0,0,1,.973-2.2A3.888,3.888,0,0,1,14.7,4.232a8.458,8.458,0,0,1,1.133.085c.4.053.8.139,1.229.235v-.78a2.368,2.368,0,0,0-.5-1.71,2.46,2.46,0,0,0-1.742-.492,4.863,4.863,0,0,0-1.154.139,8.5,8.5,0,0,0-1.154.363,3.078,3.078,0,0,1-.374.139.652.652,0,0,1-.171.032c-.15,0-.224-.107-.224-.331V1.389a.677.677,0,0,1,.075-.374.8.8,0,0,1,.3-.224A6.151,6.151,0,0,1,13.456.309a6.482,6.482,0,0,1,1.667-.2,3.905,3.905,0,0,1,2.8.866A3.537,3.537,0,0,1,18.811,3.6V7.064h.021ZM14.493,8.689a3.46,3.46,0,0,0,1.1-.192,2.381,2.381,0,0,0,1.015-.684,1.693,1.693,0,0,0,.363-.684,3.834,3.834,0,0,0,.107-.93V5.75a8.926,8.926,0,0,0-.983-.182,8.053,8.053,0,0,0-1-.064,2.463,2.463,0,0,0-1.592.428,1.49,1.49,0,0,0-.524,1.229,1.379,1.379,0,0,0,1.518,1.528Zm8.582,1.154a.6.6,0,0,1-.406-.107.87.87,0,0,1-.224-.417L19.933,1.058a1.867,1.867,0,0,1-.1-.428.235.235,0,0,1,.257-.267h1.047a.593.593,0,0,1,.417.107.875.875,0,0,1,.214.417l1.8,7.076L25.234.887a.751.751,0,0,1,.2-.417.737.737,0,0,1,.428-.107h.855a.643.643,0,0,1,.427.107.72.72,0,0,1,.2.417l1.689,7.161L30.888.887A.917.917,0,0,1,31.1.47a.7.7,0,0,1,.417-.107h.994A.238.238,0,0,1,32.78.63,1.061,1.061,0,0,1,32.759.8a1.524,1.524,0,0,1-.075.267L30.108,9.33a.817.817,0,0,1-.224.417.683.683,0,0,1-.406.107h-.919a.643.643,0,0,1-.428-.107.757.757,0,0,1-.2-.427L26.271,2.426,24.625,9.309a.833.833,0,0,1-.2.428.662.662,0,0,1-.427.107h-.919Zm13.734.289a7.074,7.074,0,0,1-1.646-.192,4.868,4.868,0,0,1-1.229-.427.77.77,0,0,1-.331-.3.754.754,0,0,1-.064-.3V8.368c0-.224.085-.331.246-.331a.605.605,0,0,1,.192.032c.064.021.16.064.267.107a5.813,5.813,0,0,0,1.176.374,6.419,6.419,0,0,0,1.272.128,2.884,2.884,0,0,0,1.56-.353,1.151,1.151,0,0,0,.556-1.015,1.041,1.041,0,0,0-.289-.748,2.684,2.684,0,0,0-1.079-.556l-1.55-.481a3.26,3.26,0,0,1-1.71-1.09,2.547,2.547,0,0,1-.534-1.55A2.379,2.379,0,0,1,33.935,1.7,2.747,2.747,0,0,1,34.7.822,3.391,3.391,0,0,1,35.816.267,4.658,4.658,0,0,1,37.162.085a5.373,5.373,0,0,1,.716.043c.246.032.47.075.695.118s.417.107.609.171a2.333,2.333,0,0,1,.449.192.926.926,0,0,1,.321.267.575.575,0,0,1,.1.353v.5c0,.224-.085.342-.246.342a1.112,1.112,0,0,1-.406-.128,4.891,4.891,0,0,0-2.052-.417,2.758,2.758,0,0,0-1.422.3,1.032,1.032,0,0,0-.5.951,1.01,1.01,0,0,0,.321.759,3.194,3.194,0,0,0,1.176.588l1.518.481a3.252,3.252,0,0,1,1.657,1.026,2.419,2.419,0,0,1,.492,1.5,2.748,2.748,0,0,1-.278,1.24,2.874,2.874,0,0,1-.78.941,3.446,3.446,0,0,1-1.186.6,5.082,5.082,0,0,1-1.528.224Z" transform="translate(2.156 18.307)" fill="#252f3e"/>
  <path id="Path_1611" data-name="Path 1611" d="M29.62,98.364A23.053,23.053,0,0,1,16.6,102.34,23.551,23.551,0,0,1,.709,96.28c-.331-.3-.032-.705.363-.47a31.565,31.565,0,0,0,28.035,1.742c.588-.267,1.09.385.513.812ZM31.084,96.7c-.449-.577-2.971-.278-4.115-.139-.342.043-.4-.256-.085-.481,2.009-1.411,5.312-1,5.7-.534s-.107,3.784-1.988,5.365c-.288.246-.566.118-.438-.2C30.582,99.646,31.533,97.263,31.084,96.7Z" transform="translate(11.365 -64.731)" fill="#f90"/>
</svg>
