<svg id="azure" xmlns="http://www.w3.org/2000/svg" width="56" height="56" viewBox="0 0 56 56">
  <g id="back" fill="#fff" stroke="#fff" stroke-width="1">
    <rect width="56" height="56" rx="5" stroke="none"/>
    <rect x="0.5" y="0.5" width="55" height="55" rx="4.5" fill="none"/>
  </g>
  <path id="icon" d="M16.881,26.754c4.688-.828,8.56-1.513,8.6-1.523l.081-.017L21.14,19.949c-2.434-2.9-4.426-5.276-4.426-5.289S21.284,2.049,21.31,2c.009-.015,3.119,5.355,7.539,13.016l7.582,13.142.058.1-14.066,0-14.066,0,8.524-1.506ZM0,25.148c0-.007,2.085-3.628,4.634-8.045L9.269,9.072l5.4-4.532C17.64,2.047,20.078,0,20.088,0A.943.943,0,0,1,20,.219L14.137,12.8,8.377,25.151l-4.188.005C1.885,25.159,0,25.156,0,25.148Z" transform="translate(9.756 13.868)" fill="#0089d6"/>
</svg>
