<svg xmlns="http://www.w3.org/2000/svg" width="20" height="20" viewBox="0 0 20 20">
    <path style="fill:none" d="M0 0h20v20H0z"/>
    <g data-name="clearvoice">
        <path data-name="Path 11263" d="M10.4 16.853v2.369h4.38a.394.394 0 0 1 .4.316.4.4 0 0 1-.248.439l-.045.023H5.1l-.01-.005-.044-.024a.4.4 0 0 1-.234-.444.39.39 0 0 1 .4-.3H9.6v-2.358l-.212-.033-.22-.036h-.017c-.145-.022-.295-.044-.439-.072A7.242 7.242 0 0 1 2.9 10.924a.387.387 0 0 1 .29-.482.452.452 0 0 1 .089-.01.411.411 0 0 1 .387.346l.064.257a6.414 6.414 0 0 0 .312 1.023 6.2 6.2 0 0 0 5.127 3.95 6.515 6.515 0 0 0 .876.06 6.406 6.406 0 0 0 6.275-5.285.4.4 0 0 1 .377-.355h.04a.384.384 0 0 1 .359.372 1.966 1.966 0 0 1-.075.431 7.7 7.7 0 0 1-2.077 3.654 7.667 7.667 0 0 1-3.769 1.862c-.07.015-.145.024-.222.033l-.054.008-.13.016-.057.006-.095.01z" style="fill:#026c9f" transform="translate(.004)"/>
        <path data-name="Path 11264" d="M10.4 16.853v2.369h4.38a.394.394 0 0 1 .4.316.4.4 0 0 1-.248.439l-.045.023H5.1l-.01-.005-.044-.024a.4.4 0 0 1-.234-.444.39.39 0 0 1 .4-.3H9.6v-2.358l-.212-.033-.22-.036h-.017c-.145-.022-.295-.044-.439-.072A7.242 7.242 0 0 1 2.9 10.924a.387.387 0 0 1 .29-.482.452.452 0 0 1 .089-.01.411.411 0 0 1 .387.346l.064.257a6.414 6.414 0 0 0 .312 1.023 6.2 6.2 0 0 0 5.127 3.95 6.515 6.515 0 0 0 .876.06 6.406 6.406 0 0 0 6.275-5.285.4.4 0 0 1 .377-.355h.04a.384.384 0 0 1 .359.372 1.966 1.966 0 0 1-.075.431 7.7 7.7 0 0 1-2.077 3.654 7.667 7.667 0 0 1-3.769 1.862c-.07.015-.145.024-.222.033l-.054.008-.13.016-.057.006-.095.01z" style="fill:#026c9f" transform="translate(.004)"/>
        <path data-name="Path 11265" d="M10.4 16.853v2.369h4.38a.394.394 0 0 1 .4.316.4.4 0 0 1-.248.439l-.045.023H5.1l-.01-.005-.044-.024a.4.4 0 0 1-.234-.444.39.39 0 0 1 .4-.3H9.6v-2.358l-.212-.033-.22-.036h-.017c-.145-.022-.295-.044-.439-.072A7.242 7.242 0 0 1 2.9 10.924a.387.387 0 0 1 .29-.482.452.452 0 0 1 .089-.01.411.411 0 0 1 .387.346l.064.257a6.414 6.414 0 0 0 .312 1.023 6.2 6.2 0 0 0 5.127 3.95 6.515 6.515 0 0 0 .876.06 6.406 6.406 0 0 0 6.275-5.285.4.4 0 0 1 .377-.355h.04a.384.384 0 0 1 .359.372 1.966 1.966 0 0 1-.075.431 7.7 7.7 0 0 1-2.077 3.654 7.667 7.667 0 0 1-3.769 1.862c-.07.015-.145.024-.222.033l-.054.008-.13.016-.057.006-.095.01z" style="fill:#026c9f" transform="translate(.004)"/>
        <path data-name="Path 11266" d="M10.4 16.853v2.369h4.38a.394.394 0 0 1 .4.316.4.4 0 0 1-.248.439l-.045.023H5.1l-.01-.005-.044-.024a.4.4 0 0 1-.234-.444.39.39 0 0 1 .4-.3H9.6v-2.358l-.212-.033-.22-.036h-.017c-.145-.022-.295-.044-.439-.072A7.242 7.242 0 0 1 2.9 10.924a.387.387 0 0 1 .29-.482.452.452 0 0 1 .089-.01.411.411 0 0 1 .387.346l.064.257a6.414 6.414 0 0 0 .312 1.023 6.2 6.2 0 0 0 5.127 3.95 6.515 6.515 0 0 0 .876.06 6.406 6.406 0 0 0 6.275-5.285.4.4 0 0 1 .377-.355h.04a.384.384 0 0 1 .359.372 1.966 1.966 0 0 1-.075.431 7.7 7.7 0 0 1-2.077 3.654 7.667 7.667 0 0 1-3.769 1.862c-.07.015-.145.024-.222.033l-.054.008-.13.016-.057.006-.095.01z" style="fill:#026c9f" transform="translate(.004)"/>
        <path data-name="Path 11267" d="M19.989 4.86v2.122c-.121.235-.237.286-.377.29H19.6a.377.377 0 0 1-.388-.361c-.009-.6-.009-1.229 0-1.989a.38.38 0 0 1 .29-.351.369.369 0 0 1 .092-.011.39.39 0 0 1 .342.205l.053.095z" style="fill:#026c9f" transform="translate(.004)"/>
        <path data-name="Path 11268" d="M19.989 4.86v2.122c-.121.235-.237.286-.377.29H19.6a.377.377 0 0 1-.388-.361c-.009-.6-.009-1.229 0-1.989a.38.38 0 0 1 .29-.351.369.369 0 0 1 .092-.011.39.39 0 0 1 .342.205l.053.095z" style="fill:#026c9f" transform="translate(.004)"/>
        <path data-name="Path 11269" d="M19.989 4.86v2.122c-.121.235-.237.286-.377.29H19.6a.377.377 0 0 1-.388-.361c-.009-.6-.009-1.229 0-1.989a.38.38 0 0 1 .29-.351.369.369 0 0 1 .092-.011.39.39 0 0 1 .342.205l.053.095z" style="fill:#026c9f" transform="translate(.004)"/>
        <path data-name="Path 11270" d="M19.989 4.86v2.122c-.121.235-.237.286-.377.29H19.6a.377.377 0 0 1-.388-.361c-.009-.6-.009-1.229 0-1.989a.38.38 0 0 1 .29-.351.369.369 0 0 1 .092-.011.39.39 0 0 1 .342.205l.053.095z" style="fill:#026c9f" transform="translate(.004)"/>
        <path data-name="Path 11271" d="M14.2 7.829V4.354a5.747 5.747 0 0 0-.047-.747 4.137 4.137 0 0 0-1.423-2.584A4.21 4.21 0 0 0 10 0a4.092 4.092 0 0 0-.878.1 4.188 4.188 0 0 0-3.328 4.122 381.325 381.325 0 0 0 0 4.663v.754a4.12 4.12 0 0 0 .057.713 4.224 4.224 0 0 0 4.186 3.493c.108 0 .221 0 .333-.012a4.088 4.088 0 0 0 2.66-1.287 4.175 4.175 0 0 0 1.16-2.761c.017-.655.01-1.316.01-1.956zm-.778-1.158v2.934A3.417 3.417 0 0 1 10.5 13.03a3.078 3.078 0 0 1-.533.046 3.429 3.429 0 0 1-3.382-3.184 47.95 47.95 0 0 1-.02-2.239V4.199A3.43 3.43 0 0 1 10.024.787h.076a3.4 3.4 0 0 1 3.308 3.227c.023.676.017 1.355.011 2.012v.642z" style="fill:#026c9f" transform="translate(.004)"/>
        <path data-name="Path 11272" d="M14.2 7.829V4.354a5.747 5.747 0 0 0-.047-.747 4.137 4.137 0 0 0-1.423-2.584A4.21 4.21 0 0 0 10 0a4.092 4.092 0 0 0-.878.1 4.188 4.188 0 0 0-3.328 4.122 381.325 381.325 0 0 0 0 4.663v.754a4.12 4.12 0 0 0 .057.713 4.224 4.224 0 0 0 4.186 3.493c.108 0 .221 0 .333-.012a4.088 4.088 0 0 0 2.66-1.287 4.175 4.175 0 0 0 1.16-2.761c.017-.655.01-1.316.01-1.956zm-.778-1.158v2.934A3.417 3.417 0 0 1 10.5 13.03a3.078 3.078 0 0 1-.533.046 3.429 3.429 0 0 1-3.382-3.184 47.95 47.95 0 0 1-.02-2.239V4.199A3.43 3.43 0 0 1 10.024.787h.076a3.4 3.4 0 0 1 3.308 3.227c.023.676.017 1.355.011 2.012v.642z" style="fill:#026c9f" transform="translate(.004)"/>
        <path data-name="Path 11273" d="M14.2 7.829V4.354a5.747 5.747 0 0 0-.047-.747 4.137 4.137 0 0 0-1.423-2.584A4.21 4.21 0 0 0 10 0a4.092 4.092 0 0 0-.878.1 4.188 4.188 0 0 0-3.328 4.122 381.325 381.325 0 0 0 0 4.663v.754a4.12 4.12 0 0 0 .057.713 4.224 4.224 0 0 0 4.186 3.493c.108 0 .221 0 .333-.012a4.088 4.088 0 0 0 2.66-1.287 4.175 4.175 0 0 0 1.16-2.761c.017-.655.01-1.316.01-1.956zm-.778-1.158v2.934A3.417 3.417 0 0 1 10.5 13.03a3.078 3.078 0 0 1-.533.046 3.429 3.429 0 0 1-3.382-3.184 47.95 47.95 0 0 1-.02-2.239V4.199A3.43 3.43 0 0 1 10.024.787h.076a3.4 3.4 0 0 1 3.308 3.227c.023.676.017 1.355.011 2.012v.642z" style="fill:#026c9f" transform="translate(.004)"/>
        <path data-name="Path 11274" d="M14.2 7.829V4.354a5.747 5.747 0 0 0-.047-.747 4.137 4.137 0 0 0-1.423-2.584A4.21 4.21 0 0 0 10 0a4.092 4.092 0 0 0-.878.1 4.188 4.188 0 0 0-3.328 4.122 381.325 381.325 0 0 0 0 4.663v.754a4.12 4.12 0 0 0 .057.713 4.224 4.224 0 0 0 4.186 3.493c.108 0 .221 0 .333-.012a4.088 4.088 0 0 0 2.66-1.287 4.175 4.175 0 0 0 1.16-2.761c.017-.655.01-1.316.01-1.956zm-.778-1.158v2.934A3.417 3.417 0 0 1 10.5 13.03a3.078 3.078 0 0 1-.533.046 3.429 3.429 0 0 1-3.382-3.184 47.95 47.95 0 0 1-.02-2.239V4.199A3.43 3.43 0 0 1 10.024.787h.076a3.4 3.4 0 0 1 3.308 3.227c.023.676.017 1.355.011 2.012v.642z" style="fill:#026c9f" transform="translate(.004)"/>
        <path data-name="Path 11275" d="M3.665 5.075v2.638a.39.39 0 0 1-.387.441.4.4 0 0 1-.389-.443V4.133c0-.277.151-.449.392-.449.233 0 .377.176.377.452q.007.469.007.939z" style="fill:#026c9f" transform="translate(.004)"/>
        <path data-name="Path 11276" d="M3.665 5.075v2.638a.39.39 0 0 1-.387.441.4.4 0 0 1-.389-.443V4.133c0-.277.151-.449.392-.449.233 0 .377.176.377.452q.007.469.007.939z" style="fill:#026c9f" transform="translate(.004)"/>
        <path data-name="Path 11277" d="M3.665 5.075v2.638a.39.39 0 0 1-.387.441.4.4 0 0 1-.389-.443V4.133c0-.277.151-.449.392-.449.233 0 .377.176.377.452q.007.469.007.939z" style="fill:#026c9f" transform="translate(.004)"/>
        <path data-name="Path 11278" d="M3.665 5.075v2.638a.39.39 0 0 1-.387.441.4.4 0 0 1-.389-.443V4.133c0-.277.151-.449.392-.449.233 0 .377.176.377.452q.007.469.007.939z" style="fill:#026c9f" transform="translate(.004)"/>
        <path data-name="Path 11279" d="M17.1 7.758a.388.388 0 0 1-.33.393.426.426 0 0 1-.054 0 .377.377 0 0 1-.372-.269.588.588 0 0 1-.019-.162v-3.6a.387.387 0 0 1 .384-.441.394.394 0 0 1 .393.44v2.358c-.002.423.004.852-.002 1.281z" style="fill:#026c9f" transform="translate(.004)"/>
        <path data-name="Path 11280" d="M17.1 7.758a.388.388 0 0 1-.33.393.426.426 0 0 1-.054 0 .377.377 0 0 1-.372-.269.588.588 0 0 1-.019-.162v-3.6a.387.387 0 0 1 .384-.441.394.394 0 0 1 .393.44v2.358c-.002.423.004.852-.002 1.281z" style="fill:#026c9f" transform="translate(.004)"/>
        <path data-name="Path 11281" d="M17.1 7.758a.388.388 0 0 1-.33.393.426.426 0 0 1-.054 0 .377.377 0 0 1-.372-.269.588.588 0 0 1-.019-.162v-3.6a.387.387 0 0 1 .384-.441.394.394 0 0 1 .393.44v2.358c-.002.423.004.852-.002 1.281z" style="fill:#026c9f" transform="translate(.004)"/>
        <path data-name="Path 11282" d="M17.1 7.758a.388.388 0 0 1-.33.393.426.426 0 0 1-.054 0 .377.377 0 0 1-.372-.269.588.588 0 0 1-.019-.162v-3.6a.387.387 0 0 1 .384-.441.394.394 0 0 1 .393.44v2.358c-.002.423.004.852-.002 1.281z" style="fill:#026c9f" transform="translate(.004)"/>
        <path data-name="Path 11283" d="M.777 6.876a.381.381 0 0 1-.388.4A.388.388 0 0 1 0 6.863V4.971a.385.385 0 0 1 .384-.407.382.382 0 0 1 .39.4c.008.642.008 1.286.003 1.912z" style="fill:#026c9f" transform="translate(.004)"/>
        <path data-name="Path 11284" d="M.777 6.876a.381.381 0 0 1-.388.4A.388.388 0 0 1 0 6.863V4.971a.385.385 0 0 1 .384-.407.382.382 0 0 1 .39.4c.008.642.008 1.286.003 1.912z" style="fill:#026c9f" transform="translate(.004)"/>
        <path data-name="Path 11285" d="M.777 6.876a.381.381 0 0 1-.388.4A.388.388 0 0 1 0 6.863V4.971a.385.385 0 0 1 .384-.407.382.382 0 0 1 .39.4c.008.642.008 1.286.003 1.912z" style="fill:#026c9f" transform="translate(.004)"/>
        <path data-name="Path 11286" d="M.777 6.876a.381.381 0 0 1-.388.4A.388.388 0 0 1 0 6.863V4.971a.385.385 0 0 1 .384-.407.382.382 0 0 1 .39.4c.008.642.008 1.286.003 1.912z" style="fill:#026c9f" transform="translate(.004)"/>
    </g>
</svg>
