<svg id="close_speech" xmlns="http://www.w3.org/2000/svg" width="28" height="28" viewBox="0 0 28 28">
  <rect id="back" width="28" height="28" fill="none"/>
  <path id="Path_1408" data-name="Path 1408" d="M-2140.207,1082.155a3.58,3.58,0,0,1-.287-.224q-3.486-3.483-6.973-6.966a1.065,1.065,0,0,1-.365-1.05.993.993,0,0,1,1.65-.489c.31.285.6.591.9.89l6.228,6.222c.06.06.122.117.2.188.075-.071.142-.132.207-.2q3.5-3.5,7-7a1.05,1.05,0,0,1,1.035-.344.993.993,0,0,1,.564,1.56,2.537,2.537,0,0,1-.252.276q-3.46,3.459-6.922,6.917a1.544,1.544,0,0,0-.254.278,1.183,1.183,0,0,1,.241.145q3.5,3.488,6.991,6.981a1.035,1.035,0,0,1,.341,1.075.992.992,0,0,1-1.578.512,2.79,2.79,0,0,1-.239-.224l-6.937-6.935c-.06-.06-.122-.117-.2-.188-.074.071-.142.132-.207.2q-3.5,3.5-7,7a1.042,1.042,0,0,1-1.054.342.994.994,0,0,1-.516-1.591,2.971,2.971,0,0,1,.209-.221q3.468-3.468,6.938-6.935A2.947,2.947,0,0,1-2140.207,1082.155Z" transform="translate(2152.859 -1068.153)" fill="#fff"/>
</svg>
