<svg xmlns="http://www.w3.org/2000/svg" xmlns:xlink="http://www.w3.org/1999/xlink" width="68.751" height="65.941" viewBox="0 0 68.751 65.941">
  <defs>
    <filter id="dotdesign" x="0" y="0" width="68.751" height="65.941" filterUnits="userSpaceOnUse">
      <feOffset dy="3" input="SourceAlpha"/>
      <feGaussianBlur stdDeviation="3" result="blur"/>
      <feFlood flood-opacity="0.161"/>
      <feComposite operator="in" in2="blur"/>
      <feComposite in="SourceGraphic"/>
    </filter>
  </defs>
  <g transform="matrix(1, 0, 0, 1, 0, 0)" filter="url(#dotdesign)">
    <path id="dotdesign-2" data-name="dotdesign" d="M-1082.993-449.535a1.772,1.772,0,0,1,1.772-1.772,1.773,1.773,0,0,1,1.773,1.772,1.773,1.773,0,0,1-1.773,1.773A1.772,1.772,0,0,1-1082.993-449.535Zm-11.8,0a1.773,1.773,0,0,1,1.772-1.772,1.773,1.773,0,0,1,1.773,1.772,1.773,1.773,0,0,1-1.773,1.773A1.773,1.773,0,0,1-1094.794-449.535Zm-11.8,0a1.772,1.772,0,0,1,1.772-1.772,1.773,1.773,0,0,1,1.772,1.772,1.773,1.773,0,0,1-1.772,1.773A1.772,1.772,0,0,1-1106.595-449.535Zm-11.8,0a1.773,1.773,0,0,1,1.773-1.772,1.772,1.772,0,0,1,1.772,1.772,1.772,1.772,0,0,1-1.772,1.773A1.773,1.773,0,0,1-1118.4-449.535Zm-11.8,0a1.773,1.773,0,0,1,1.772-1.772,1.773,1.773,0,0,1,1.773,1.772,1.773,1.773,0,0,1-1.773,1.773A1.773,1.773,0,0,1-1130.2-449.535Zm47.206-11.1a1.772,1.772,0,0,1,1.772-1.773,1.773,1.773,0,0,1,1.773,1.773,1.773,1.773,0,0,1-1.773,1.773A1.772,1.772,0,0,1-1082.993-460.634Zm-11.8,0a1.773,1.773,0,0,1,1.772-1.773,1.773,1.773,0,0,1,1.773,1.773,1.773,1.773,0,0,1-1.773,1.773A1.773,1.773,0,0,1-1094.794-460.634Zm-11.8,0a1.772,1.772,0,0,1,1.772-1.773,1.773,1.773,0,0,1,1.772,1.773,1.773,1.773,0,0,1-1.772,1.773A1.772,1.772,0,0,1-1106.595-460.634Zm-11.8,0a1.773,1.773,0,0,1,1.773-1.773,1.772,1.772,0,0,1,1.772,1.773,1.772,1.772,0,0,1-1.772,1.773A1.773,1.773,0,0,1-1118.4-460.634Zm-11.8,0a1.773,1.773,0,0,1,1.772-1.773,1.773,1.773,0,0,1,1.773,1.773,1.773,1.773,0,0,1-1.773,1.773A1.773,1.773,0,0,1-1130.2-460.634Zm47.206-11.1a1.772,1.772,0,0,1,1.772-1.773,1.773,1.773,0,0,1,1.773,1.773,1.773,1.773,0,0,1-1.773,1.772A1.772,1.772,0,0,1-1082.993-471.732Zm-11.8,0a1.773,1.773,0,0,1,1.772-1.773,1.773,1.773,0,0,1,1.773,1.773,1.773,1.773,0,0,1-1.773,1.772A1.773,1.773,0,0,1-1094.794-471.732Zm-11.8,0a1.772,1.772,0,0,1,1.772-1.773,1.773,1.773,0,0,1,1.772,1.773,1.773,1.773,0,0,1-1.772,1.772A1.772,1.772,0,0,1-1106.595-471.732Zm-11.8,0a1.773,1.773,0,0,1,1.773-1.773,1.772,1.772,0,0,1,1.772,1.773,1.772,1.772,0,0,1-1.772,1.772A1.773,1.773,0,0,1-1118.4-471.732Zm-11.8,0a1.773,1.773,0,0,1,1.772-1.773,1.773,1.773,0,0,1,1.773,1.773,1.773,1.773,0,0,1-1.773,1.772A1.773,1.773,0,0,1-1130.2-471.732Zm47.206-11.1a1.772,1.772,0,0,1,1.772-1.773,1.773,1.773,0,0,1,1.773,1.773,1.773,1.773,0,0,1-1.773,1.772A1.772,1.772,0,0,1-1082.993-482.831Zm-11.8,0a1.773,1.773,0,0,1,1.772-1.773,1.773,1.773,0,0,1,1.773,1.773,1.773,1.773,0,0,1-1.773,1.772A1.773,1.773,0,0,1-1094.794-482.831Zm-11.8,0a1.772,1.772,0,0,1,1.772-1.773,1.773,1.773,0,0,1,1.772,1.773,1.773,1.773,0,0,1-1.772,1.772A1.772,1.772,0,0,1-1106.595-482.831Zm-11.8,0a1.773,1.773,0,0,1,1.773-1.773,1.772,1.772,0,0,1,1.772,1.773,1.772,1.772,0,0,1-1.772,1.772A1.773,1.773,0,0,1-1118.4-482.831Zm-11.8,0a1.773,1.773,0,0,1,1.772-1.773,1.773,1.773,0,0,1,1.773,1.773,1.773,1.773,0,0,1-1.773,1.772A1.773,1.773,0,0,1-1130.2-482.831Zm47.206-11.1a1.772,1.772,0,0,1,1.772-1.772,1.772,1.772,0,0,1,1.773,1.772,1.772,1.772,0,0,1-1.773,1.772A1.771,1.771,0,0,1-1082.993-493.931Zm-11.8,0a1.772,1.772,0,0,1,1.772-1.772,1.772,1.772,0,0,1,1.773,1.772,1.772,1.772,0,0,1-1.773,1.772A1.772,1.772,0,0,1-1094.794-493.931Zm-11.8,0a1.771,1.771,0,0,1,1.772-1.772,1.772,1.772,0,0,1,1.772,1.772,1.772,1.772,0,0,1-1.772,1.772A1.771,1.771,0,0,1-1106.595-493.931Zm-11.8,0a1.772,1.772,0,0,1,1.773-1.772,1.771,1.771,0,0,1,1.772,1.772,1.771,1.771,0,0,1-1.772,1.772A1.772,1.772,0,0,1-1118.4-493.931Zm-11.8,0a1.772,1.772,0,0,1,1.772-1.772,1.772,1.772,0,0,1,1.773,1.772,1.772,1.772,0,0,1-1.773,1.772A1.772,1.772,0,0,1-1130.2-493.931Z" transform="translate(1139.2 501.7)" fill="#ddf5ff" opacity="0.1"/>
  </g>
</svg>
