<svg id="download_speech" xmlns="http://www.w3.org/2000/svg" width="28" height="28" viewBox="0 0 28 28">
  <rect id="back" width="28" height="28" fill="none"/>
  <path id="Path_1403" data-name="Path 1403" d="M-607.67,561.619h-8.739a1.959,1.959,0,0,1-2.175-2.161q0-1.734,0-3.468c0-.512.235-.8.638-.8s.643.291.644.8c0,1.181,0,2.362,0,3.544,0,.569.23.8.8.8q8.833,0,17.666,0c.592,0,.815-.231.816-.828q0-1.7,0-3.393c0-.1,0-.2,0-.3a.636.636,0,0,1,.628-.624.619.619,0,0,1,.646.64c.009,1.332.027,2.665-.007,4a1.907,1.907,0,0,1-2,1.8c-1.582.008-3.164,0-4.746,0Z" transform="translate(621.654 -538.622)" fill="#fff"/>
  <path id="Path_1404" data-name="Path 1404" d="M-545.092,453.653v-.546q0-5.95,0-11.9a2.441,2.441,0,0,1,.029-.487.58.58,0,0,1,.613-.5.58.58,0,0,1,.617.5,2.333,2.333,0,0,1,.03.487q0,5.95,0,11.9v.51c.128-.082.21-.126.282-.182.6-.477,1.195-.958,1.795-1.434a.666.666,0,0,1,1,.04.655.655,0,0,1-.185.953q-1.524,1.23-3.059,2.447a.654.654,0,0,1-.951,0q-1.533-1.219-3.058-2.447a.654.654,0,0,1-.194-.95.659.659,0,0,1,1-.049C-546.509,452.517-545.846,453.051-545.092,453.653Z" transform="translate(558.443 -435.218)" fill="#fff"/>
</svg>
