<svg id="download" xmlns="http://www.w3.org/2000/svg" width="26.04" height="24" viewBox="0 0 26.04 24">
  <path id="Path_1344" data-name="Path 1344" d="M-701.652,385.946a7.864,7.864,0,0,1,.306-1.039,3.711,3.711,0,0,1,3.546-2.4c6.11-.031,12.22-.019,18.331-.008a3.876,3.876,0,0,1,3.847,3.843q.021,6.128,0,12.256a3.9,3.9,0,0,1-3.987,3.862q-2.746.011-5.492,0a.412.412,0,0,0-.4.223q-.989,1.584-2,3.153a1.292,1.292,0,0,1-1.993.314,1.912,1.912,0,0,1-.314-.4c-.644-1.005-1.288-2.011-1.919-3.025a.492.492,0,0,0-.481-.271q-2.72.016-5.441,0a3.914,3.914,0,0,1-3.822-2.756c-.074-.24-.118-.49-.176-.735Zm13.03-2.59h-9a3.047,3.047,0,0,0-3.164,3.15q0,5.975,0,11.95a3.335,3.335,0,0,0,.079.755,3.021,3.021,0,0,0,3.05,2.375c1.907.006,3.813.01,5.72-.006a.8.8,0,0,1,.78.434c.67,1.089,1.367,2.162,2.054,3.24.3.471.631.471.931,0,.7-1.093,1.4-2.182,2.081-3.283a.731.731,0,0,1,.7-.39c1.9.011,3.8.008,5.694,0a3.736,3.736,0,0,0,.733-.058,3.028,3.028,0,0,0,2.476-3.045q0-5.962,0-11.925a3.05,3.05,0,0,0-3.215-3.2Z" transform="translate(701.652 -382.483)" fill="rgba(255,255,255,0.5)"/>
  <path id="Path_1345" data-name="Path 1345" d="M-611.217,559.526h-5.9a1.322,1.322,0,0,1-1.468-1.458q0-1.17,0-2.339c0-.345.158-.542.43-.542s.434.2.435.54c0,.8,0,1.594,0,2.39,0,.384.155.541.542.541q5.962,0,11.924,0c.4,0,.55-.156.551-.558q0-1.144,0-2.289c0-.068,0-.136,0-.2a.429.429,0,0,1,.424-.421.418.418,0,0,1,.436.432c.006.9.018,1.8,0,2.7a1.287,1.287,0,0,1-1.35,1.211c-1.068.005-2.136,0-3.2,0Z" transform="translate(624.226 -543.456)" fill="rgba(255,255,255,0.5)"/>
  <path id="Path_1346" data-name="Path 1346" d="M-546.138,449.287v-.368q0-4.017,0-8.034a1.642,1.642,0,0,1,.019-.329.392.392,0,0,1,.414-.338.391.391,0,0,1,.416.335,1.583,1.583,0,0,1,.02.329q0,4.017,0,8.034v.344c.086-.055.142-.085.19-.123.4-.322.806-.647,1.211-.968a.449.449,0,0,1,.674.027.442.442,0,0,1-.125.643q-1.028.83-2.063,1.652a.441.441,0,0,1-.642,0q-1.034-.823-2.063-1.652a.442.442,0,0,1-.131-.642.445.445,0,0,1,.672-.033C-547.093,448.52-546.646,448.881-546.138,449.287Z" transform="translate(558.719 -436.297)" fill="rgba(255,255,255,0.5)"/>
  <path id="Path_1347" data-name="Path 1347" d="M-381.585,615.221c-.317.012-.506-.126-.526-.385s.146-.443.471-.479a1.293,1.293,0,0,0,1.258-1.281.441.441,0,0,1,.45-.449.453.453,0,0,1,.414.512A2.166,2.166,0,0,1-381.585,615.221Z" transform="translate(403.816 -596.995)" fill="rgba(255,255,255,0.5)"/>
  <path id="Path_1348" data-name="Path 1348" d="M-676.1,410.251a2.187,2.187,0,0,1,2.074-2.084.442.442,0,0,1,.52.4c.018.267-.143.434-.451.466a1.309,1.309,0,0,0-1.278,1.269c-.029.311-.191.475-.456.462A.439.439,0,0,1-676.1,410.251Z" transform="translate(677.832 -406.422)" fill="rgba(255,255,255,0.5)"/>
</svg>
