<svg id="dr.aboutus" xmlns="http://www.w3.org/2000/svg" width="20" height="20" viewBox="0 0 20 20">
  <rect id="back" width="20" height="20" fill="none"/>
  <g id="icon" transform="translate(1.743 1.675)">
    <path id="Path_1493" data-name="Path 1493" d="M139.1,3832.073a8.523,8.523,0,0,1-1.761-.745,1.258,1.258,0,0,0-.955-.091,7.944,7.944,0,0,1-4.374-.124,13.933,13.933,0,0,1-1.321-.539.243.243,0,0,1-.148-.346.252.252,0,0,1,.37-.091,7.677,7.677,0,0,0,2.119.725,7.44,7.44,0,0,0,3.16-.09,2.1,2.1,0,0,1,1.564.206c.407.218.848.375,1.276.551a.484.484,0,0,0,.551-.09.521.521,0,0,0,.132-.543,2.942,2.942,0,0,1,.531-2.621,8.463,8.463,0,0,0,1.267-2.173,7.422,7.422,0,0,0,.424-3.855,7.589,7.589,0,0,0-3.012-5c-.033-.024-.07-.054-.1-.083a.247.247,0,0,1-.058-.35.24.24,0,0,1,.35-.041,4.707,4.707,0,0,1,.391.3,8.042,8.042,0,0,1,2.893,4.95,7.762,7.762,0,0,1-.765,4.987,10.143,10.143,0,0,1-.95,1.473,2.7,2.7,0,0,0-.568,1.934,2.085,2.085,0,0,0,.07.354.988.988,0,0,1-.7,1.267.225.225,0,0,0-.053.033Z" transform="translate(-126.251 -3815.249)" fill="#026c9f"/>
    <path id="Path_1494" data-name="Path 1494" d="M26.9,3789.122a8.18,8.18,0,0,1,6.386-7.912,8.02,8.02,0,0,1,5.291.625.991.991,0,0,1,.144.078.22.22,0,0,1,.066.3.216.216,0,0,1-.276.115c-.095-.033-.181-.074-.272-.115a7.609,7.609,0,0,0-9.776,3.065,7.4,7.4,0,0,0-1.025,4.213,7.522,7.522,0,0,0,2.86,5.583c.074.062.156.119.23.185a.245.245,0,1,1-.3.379c-.358-.309-.728-.6-1.053-.938a7.871,7.871,0,0,1-2.115-4.2C26.974,3790.052,26.949,3789.587,26.9,3789.122Z" transform="translate(-26.9 -3781.017)" fill="#026c9f"/>
    <path id="Path_1495" data-name="Path 1495" d="M172.419,3920.231a.889.889,0,0,0-.683-.271.958.958,0,0,0-.107,0,.7.7,0,0,1-.095,0h-.2v-1.255c0-1.115,0-2.271-.008-3.4a1.128,1.128,0,0,0-.128-.523.726.726,0,0,0-.658-.386,1.1,1.1,0,0,0-.4.078,4.252,4.252,0,0,1-1.378.284,6.519,6.519,0,0,0-.732.053.529.529,0,0,0-.448.522c0,.124,0,.247,0,.366v.074a.578.578,0,0,0,.642.642h.646v3.547h-.444a.832.832,0,0,0-.609.247,1.006,1.006,0,0,0-.243.806.827.827,0,0,0,.852.856c.539,0,1.1,0,1.666,0,.543,0,1.111,0,1.683,0a.831.831,0,0,0,.856-.79A1.065,1.065,0,0,0,172.419,3920.231Zm-.243.835a.373.373,0,0,1-.391.354c-.07,0-.14,0-.23,0H168.53c-.173,0-.362-.016-.44-.21a.642.642,0,0,1,.029-.613.513.513,0,0,1,.329-.168,1.983,1.983,0,0,1,.239-.012c.053,0,.107,0,.16,0s.107,0,.16,0h.037c.23,0,.309-.082.309-.312,0-1.271,0-2.415,0-3.58a.518.518,0,0,0-.576-.572h-.551a.19.19,0,0,1-.14-.045.174.174,0,0,1-.037-.136,1.39,1.39,0,0,0,0-.185v-.09c0-.239.016-.255.259-.259a5.6,5.6,0,0,0,2.066-.358.4.4,0,0,1,.165-.037.357.357,0,0,1,.342.4v4.83c0,.276.07.346.342.346h.346c.082,0,.148,0,.21,0a.376.376,0,0,1,.4.375A1.091,1.091,0,0,1,172.176,3921.066Z" transform="translate(-161.787 -3908.912)" fill="#026c9f"/>
    <path id="Path_1496" data-name="Path 1496" d="M172.419,3920.231a.889.889,0,0,0-.683-.271.958.958,0,0,0-.107,0,.7.7,0,0,1-.095,0h-.2v-1.255c0-1.115,0-2.271-.008-3.4a1.128,1.128,0,0,0-.128-.523.726.726,0,0,0-.658-.386,1.1,1.1,0,0,0-.4.078,4.252,4.252,0,0,1-1.378.284,6.519,6.519,0,0,0-.732.053.529.529,0,0,0-.448.522c0,.124,0,.247,0,.366v.074a.578.578,0,0,0,.642.642h.646v3.547h-.444a.832.832,0,0,0-.609.247,1.006,1.006,0,0,0-.243.806.827.827,0,0,0,.852.856c.539,0,1.1,0,1.666,0,.543,0,1.111,0,1.683,0a.831.831,0,0,0,.856-.79A1.065,1.065,0,0,0,172.419,3920.231Zm-.243.835a.373.373,0,0,1-.391.354c-.07,0-.14,0-.23,0H168.53c-.173,0-.362-.016-.44-.21a.642.642,0,0,1,.029-.613.513.513,0,0,1,.329-.168,1.983,1.983,0,0,1,.239-.012c.053,0,.107,0,.16,0s.107,0,.16,0h.037c.23,0,.309-.082.309-.312,0-1.271,0-2.415,0-3.58a.518.518,0,0,0-.576-.572h-.551a.19.19,0,0,1-.14-.045.174.174,0,0,1-.037-.136,1.39,1.39,0,0,0,0-.185v-.09c0-.239.016-.255.259-.259a5.6,5.6,0,0,0,2.066-.358.4.4,0,0,1,.165-.037.357.357,0,0,1,.342.4v4.83c0,.276.07.346.342.346h.346c.082,0,.148,0,.21,0a.376.376,0,0,1,.4.375A1.091,1.091,0,0,1,172.176,3921.066Z" transform="translate(-161.787 -3908.912)" fill="#026c9f"/>
    <path id="Path_1497" data-name="Path 1497" d="M200.454,3838.387a1.237,1.237,0,1,0,1.206,1.263A1.233,1.233,0,0,0,200.454,3838.387Zm-.041,1.979a.743.743,0,0,1,.012-1.485.743.743,0,1,1-.012,1.485Z" transform="translate(-192.097 -3836.026)" fill="#026c9f"/>
  </g>
</svg>
