<svg id="dr.currentplan" xmlns="http://www.w3.org/2000/svg" width="20" height="20" viewBox="0 0 20 20">
  <rect id="back" width="20" height="20" fill="none"/>
  <g id="icon" transform="translate(-3419.981 1087.769)">
    <path id="Path_1601" data-name="Path 1601" d="M3439.613-1081.042a1.121,1.121,0,0,1-.7.8c-.041.015-.074.081-.091.131q-.948,2.762-1.889,5.526a.762.762,0,0,0-.031.239c0,.7,0,1.392,0,2.088,0,.316-.1.419-.416.419h-13.018c-.315,0-.413-.1-.414-.421,0-.7,0-1.392,0-2.088a.932.932,0,0,0-.047-.293q-.926-2.71-1.856-5.418a.333.333,0,0,0-.2-.225,1.015,1.015,0,0,1-.566-1.217,1.034,1.034,0,0,1,1.091-.737,1.023,1.023,0,0,1,.922,1,1,1,0,0,1-.474.888c-.046.031-.095.057-.155.093a5.32,5.32,0,0,0,1.248,1.816,1.045,1.045,0,0,0,1.563,0,4.56,4.56,0,0,0,.729-.9,11.579,11.579,0,0,0,1.091-2.421,1.072,1.072,0,0,1-.436-1.3,1.034,1.034,0,0,1,1.019-.627,1.024,1.024,0,0,1,.939.835c.1.486-.138.888-.713,1.192.079.191.156.387.241.579a8.71,8.71,0,0,0,1.288,2.2,3.455,3.455,0,0,0,.7.615.941.941,0,0,0,1.125-.037,3,3,0,0,0,.857-1.01,11.968,11.968,0,0,0,1-2.361,1.081,1.081,0,0,1-.65-.656,1.009,1.009,0,0,1,0-.645,1.033,1.033,0,0,1,.979-.716,1.038,1.038,0,0,1,.975.724,1.073,1.073,0,0,1-.529,1.247c.19.457.368.931.581,1.388a6.123,6.123,0,0,0,1.077,1.688,1.86,1.86,0,0,0,.82.544,1.16,1.16,0,0,0,1.069-.271,5.617,5.617,0,0,0,1.425-1.878,1.07,1.07,0,0,1-.606-.823,1.025,1.025,0,0,1,.759-1.124,1.028,1.028,0,0,1,1.217.635l.07.192Zm-2.052,2.762-.171.16a2.1,2.1,0,0,1-1.4.65,2.022,2.022,0,0,1-1.479-.676,7.468,7.468,0,0,1-1.518-2.463c-.048-.111-.09-.224-.152-.377-.051.126-.08.207-.116.285-.273.583-.529,1.175-.828,1.744a3.3,3.3,0,0,1-.88,1.065,1.57,1.57,0,0,1-1.937.1,3.806,3.806,0,0,1-.7-.595,8.592,8.592,0,0,1-1.413-2.294c-.054-.117-.105-.235-.161-.359-.216.478-.409.947-.637,1.4a5.107,5.107,0,0,1-1.267,1.731,1.647,1.647,0,0,1-2.229-.031c-.054-.046-.109-.091-.191-.159a.682.682,0,0,0,.01.114c.347,1.012.693,2.025,1.048,3.034a.23.23,0,0,0,.179.1q6.254.007,12.507.007a.19.19,0,0,0,.213-.154c.162-.493.333-.984.5-1.475Zm-13.894,5.832h12.621v-1.784h-12.621Zm3.675-10.214a.432.432,0,0,0-.407-.43.432.432,0,0,0-.443.413.436.436,0,0,0,.407.432A.436.436,0,0,0,3427.342-1082.663Zm5.833-.013a.434.434,0,0,0-.439-.418.433.433,0,0,0-.411.427.437.437,0,0,0,.439.419A.437.437,0,0,0,3433.175-1082.676Zm-11.791,1.037a.439.439,0,0,0-.432.408.44.44,0,0,0,.417.443.44.44,0,0,0,.432-.409A.438.438,0,0,0,3421.384-1081.638Zm17.174.833a.413.413,0,0,0,.449-.417.44.44,0,0,0-.429-.416.443.443,0,0,0-.422.424A.406.406,0,0,0,3438.558-1080.806Z" transform="translate(0 0)" fill="#026c9f"/>
  </g>
</svg>
