<svg id="dr.logout" xmlns="http://www.w3.org/2000/svg" width="20" height="20" viewBox="0 0 20 20">
  <rect id="back" width="20" height="20" fill="none"/>
  <g id="icon" transform="translate(1.599 1.801)">
    <path id="Path_1593" data-name="Path 1593" d="M-2340.783,2452.776c-.026-.206-.052-.419-.09-.624a8.181,8.181,0,0,0-3.259-5.243,8.038,8.038,0,0,0-4.25-1.583.593.593,0,0,1-.112-.021l-.021,0h-1.027l-.182.021c-.133.016-.272.032-.407.051a8.015,8.015,0,0,0-4.313,1.965,8.04,8.04,0,0,0-2.742,7.568,7.92,7.92,0,0,0,3.441,5.459,7.97,7.97,0,0,0,4.651,1.492,9.152,9.152,0,0,0,1.411-.113,7.989,7.989,0,0,0,4.1-1.942,8.181,8.181,0,0,0,2.708-4.8c.037-.206.064-.419.09-.625.012-.1.024-.19.037-.285v-1.032C-2340.759,2452.966-2340.771,2452.871-2340.783,2452.776Zm-8.24,8.586h-.014a7.8,7.8,0,0,1-7.773-7.789,7.8,7.8,0,0,1,7.788-7.78h.011a7.8,7.8,0,0,1,7.773,7.789A7.793,7.793,0,0,1-2349.023,2461.361Z" transform="translate(2357.298 -2445.3)" fill="#026c9f"/>
    <path id="Path_1594" data-name="Path 1594" d="M-2340.783,2452.776c-.026-.206-.052-.419-.09-.624a8.181,8.181,0,0,0-3.259-5.243,8.038,8.038,0,0,0-4.25-1.583.593.593,0,0,1-.112-.021l-.021,0h-1.027l-.182.021c-.133.016-.272.032-.407.051a8.015,8.015,0,0,0-4.313,1.965,8.04,8.04,0,0,0-2.742,7.568,7.92,7.92,0,0,0,3.441,5.459,7.97,7.97,0,0,0,4.651,1.492,9.152,9.152,0,0,0,1.411-.113,7.989,7.989,0,0,0,4.1-1.942,8.181,8.181,0,0,0,2.708-4.8c.037-.206.064-.419.09-.625.012-.1.024-.19.037-.285v-1.032C-2340.759,2452.966-2340.771,2452.871-2340.783,2452.776Zm-8.24,8.586h-.014a7.8,7.8,0,0,1-7.773-7.789,7.8,7.8,0,0,1,7.788-7.78h.011a7.8,7.8,0,0,1,7.773,7.789A7.793,7.793,0,0,1-2349.023,2461.361Z" transform="translate(2357.298 -2445.3)" fill="#026c9f"/>
    <path id="Path_1595" data-name="Path 1595" d="M-2276.516,2539.558a4.383,4.383,0,0,1-1.591,1.028,4.489,4.489,0,0,1-1.572.286,4.512,4.512,0,0,1-2.9-1.06,4.489,4.489,0,0,1-1.548-2.761c-.022-.149-.032-.3-.042-.456,0-.072-.01-.143-.016-.215a4.5,4.5,0,0,1,1.187-3.028,4.476,4.476,0,0,1,2.928-1.433c.143-.012.287-.018.426-.018a4.367,4.367,0,0,1,3.111,1.3.25.25,0,0,1,.072.324.236.236,0,0,1-.2.126.192.192,0,0,1-.061-.01.633.633,0,0,1-.215-.146,3.929,3.929,0,0,0-2.764-1.1h-.039a4,4,0,0,0-3.911,3.473,3.963,3.963,0,0,0,.835,3.011,3.957,3.957,0,0,0,2.749,1.482c.139.013.278.02.413.02a3.911,3.911,0,0,0,2.715-1.1.681.681,0,0,1,.215-.149.183.183,0,0,1,.062-.01.233.233,0,0,1,.2.124A.246.246,0,0,1-2276.516,2539.558Z" transform="translate(2287.383 -2528.106)" fill="#026c9f"/>
    <path id="Path_1596" data-name="Path 1596" d="M-2276.516,2539.558a4.383,4.383,0,0,1-1.591,1.028,4.489,4.489,0,0,1-1.572.286,4.512,4.512,0,0,1-2.9-1.06,4.489,4.489,0,0,1-1.548-2.761c-.022-.149-.032-.3-.042-.456,0-.072-.01-.143-.016-.215a4.5,4.5,0,0,1,1.187-3.028,4.476,4.476,0,0,1,2.928-1.433c.143-.012.287-.018.426-.018a4.367,4.367,0,0,1,3.111,1.3.25.25,0,0,1,.072.324.236.236,0,0,1-.2.126.192.192,0,0,1-.061-.01.633.633,0,0,1-.215-.146,3.929,3.929,0,0,0-2.764-1.1h-.039a4,4,0,0,0-3.911,3.473,3.963,3.963,0,0,0,.835,3.011,3.957,3.957,0,0,0,2.749,1.482c.139.013.278.02.413.02a3.911,3.911,0,0,0,2.715-1.1.681.681,0,0,1,.215-.149.183.183,0,0,1,.062-.01.233.233,0,0,1,.2.124A.246.246,0,0,1-2276.516,2539.558Z" transform="translate(2287.383 -2528.106)" fill="#026c9f"/>
    <path id="Path_1597" data-name="Path 1597" d="M-2181.26,2598.989c-.433.436-.871.875-1.3,1.3a.331.331,0,0,1-.223.109.223.223,0,0,1-.163-.074c-.141-.142-.055-.288.042-.385.145-.146.293-.292.45-.446l.226-.223.258-.255h-4.756a.528.528,0,0,1-.068,0,.238.238,0,0,1-.223-.249.237.237,0,0,1,.223-.238.661.661,0,0,1,.068,0h4.746l-.679-.679-.086-.085c-.066-.065-.128-.126-.188-.191a.239.239,0,0,1-.011-.354.238.238,0,0,1,.169-.075.267.267,0,0,1,.183.08c.144.136.287.281.425.42l.178.18.21.21c.172.171.349.347.522.523A.261.261,0,0,1-2181.26,2598.989Z" transform="translate(2194.479 -2590.489)" fill="#026c9f"/>
    <path id="Path_1598" data-name="Path 1598" d="M-2181.26,2598.989c-.433.436-.871.875-1.3,1.3a.331.331,0,0,1-.223.109.223.223,0,0,1-.163-.074c-.141-.142-.055-.288.042-.385.145-.146.293-.292.45-.446l.226-.223.258-.255h-4.756a.528.528,0,0,1-.068,0,.238.238,0,0,1-.223-.249.237.237,0,0,1,.223-.238.661.661,0,0,1,.068,0h4.746l-.679-.679-.086-.085c-.066-.065-.128-.126-.188-.191a.239.239,0,0,1-.011-.354.238.238,0,0,1,.169-.075.267.267,0,0,1,.183.08c.144.136.287.281.425.42l.178.18.21.21c.172.171.349.347.522.523A.261.261,0,0,1-2181.26,2598.989Z" transform="translate(2194.479 -2590.489)" fill="#026c9f"/>
  </g>
</svg>
