<svg id="dr.plans" xmlns="http://www.w3.org/2000/svg" width="20" height="20" viewBox="0 0 20 20">
  <rect id="back" width="20" height="20" fill="none"/>
  <g id="icon" transform="translate(1.866 2.671)">
    <path id="Path_1578" data-name="Path 1578" d="M287.937,1056.106v9.27a.752.752,0,0,1-.787.5H287.1c-.253-.009-.524-.009-.856-.009h-.616c-.207,0-.409,0-.616,0h-.133c-.179,0-.29-.106-.285-.262a.255.255,0,0,1,.285-.249h2.328c.175,0,.207-.032.207-.2v-8.828c0-.17-.028-.2-.212-.2h-2.3a.315.315,0,0,1-.087-.009.24.24,0,0,1-.212-.267.238.238,0,0,1,.239-.239c.018,0,.041,0,.069,0h1.325c.34,0,.616,0,.874-.009h.046a.752.752,0,0,1,.782.506Z" transform="translate(-271.67 -1052.49)" fill="#026c9f"/>
    <path id="Path_1579" data-name="Path 1579" d="M93.459,1065.964v9.969a.669.669,0,0,1-.745.754H85.45a.667.667,0,0,1-.75-.75v-4.228a1.119,1.119,0,0,1,0-.124.254.254,0,0,1,.5,0,.375.375,0,0,1,0,.124v4.191c0,.248.018.267.258.267h7.214c.235,0,.253-.023.253-.253v-10.052a.257.257,0,0,1,.253-.262.264.264,0,0,1,.258.249A.248.248,0,0,1,93.459,1065.964Z" transform="translate(-80.969 -1062.03)" fill="#026c9f"/>
    <path id="Path_1580" data-name="Path 1580" d="M117.627,1064.064v3.059a.689.689,0,0,1-.75.75h-2.618a.61.61,0,0,1-.179-.018.23.23,0,0,1-.17-.262.238.238,0,0,1,.221-.225.613.613,0,0,1,.087,0h2.595c.262,0,.3-.037.3-.308v-2.967c0-.23-.041-.271-.267-.271h-4.729c-.23,0-.271.037-.271.267v3.013c0,.216.046.262.262.262h.985a.335.335,0,0,1,.244.087.244.244,0,0,1,.064.17c0,.156-.124.253-.317.253h-.6c-.166,0-.313,0-.451,0a.681.681,0,0,1-.7-.713c0-1,0-2.057,0-3.138a.669.669,0,0,1,.713-.713h4.821A.7.7,0,0,1,117.627,1064.064Z" transform="translate(-106.369 -1059.836)" fill="#026c9f"/>
    <path id="Path_1581" data-name="Path 1581" d="M6.894,1065.62a.24.24,0,0,1-.221.239.394.394,0,0,1-.069,0H4.327a.654.654,0,0,1-.727-.736v-8.782a.654.654,0,0,1,.741-.736H6.549a.126.126,0,0,0,.041,0c.014,0,.032,0,.046,0a.087.087,0,0,1,.064.018l.023.018c.074.055.161.124.17.2a.371.371,0,0,1-.138.253.215.215,0,0,1-.147.037H4.327c-.2,0-.221.023-.221.221v8.782c0,.2.028.225.221.225H6.595a.363.363,0,0,1,.1.009A.244.244,0,0,1,6.894,1065.62Z" transform="translate(-3.6 -1052.49)" fill="#026c9f"/>
    <path id="Path_1582" data-name="Path 1582" d="M90.763,1027.948a.241.241,0,0,1-.212.253.525.525,0,0,1-.092.009h-5c-.248,0-.267.018-.267.276v5.893a1,1,0,0,1,0,.12.237.237,0,0,1-.244.216h-.009a.245.245,0,0,1-.253-.221.416.416,0,0,1,0-.106v-5.967a.66.66,0,0,1,.727-.722h5.065a.369.369,0,0,1,.074,0A.234.234,0,0,1,90.763,1027.948Z" transform="translate(-80.945 -1025.873)" fill="#026c9f"/>
    <path id="Path_1583" data-name="Path 1583" d="M127.232,1233.681a.592.592,0,0,1-.635.635h-.764a.346.346,0,0,1-.248-.087.244.244,0,0,1-.064-.17c0-.156.124-.253.317-.258h.014c.124,0,.248,0,.373,0s.225,0,.327,0h.014a.124.124,0,0,0,.152-.152c0-.239,0-.478,0-.681a.176.176,0,0,0-.032-.124.152.152,0,0,0-.11-.032h-4.012a.157.157,0,0,0-.115.032.163.163,0,0,0-.032.12c0,.276,0,.483,0,.681a.17.17,0,0,0,.032.12.18.18,0,0,0,.129.037c.331,0,.658,0,.984,0h1.159a.2.2,0,0,1,.143.037.388.388,0,0,1,.143.249c-.009.074-.092.143-.166.2l-.018.014a.12.12,0,0,1-.069.018h-2.181a.6.6,0,0,1-.672-.672v-.732a.582.582,0,0,1,.621-.612h4.062a.6.6,0,0,1,.649.635C127.237,1233.184,127.237,1233.437,127.232,1233.681Z" transform="translate(-116.458 -1221.061)" fill="#026c9f"/>
    <path id="Path_1584" data-name="Path 1584" d="M228.114,988.469a1.568,1.568,0,0,0-1.127-.469,1.584,1.584,0,0,0-1.127,2.7,1.566,1.566,0,0,0,1.123.469h0a1.59,1.59,0,0,0,1.587-1.573A1.552,1.552,0,0,0,228.114,988.469Zm-1.127,2.185h-.009a1.07,1.07,0,0,1,.009-2.139h0a1.068,1.068,0,0,1,1.067,1.086A1.072,1.072,0,0,1,226.987,990.654Z" transform="translate(-215.196 -988)" fill="#026c9f"/>
    <path id="Path_1585" data-name="Path 1585" d="M286.977,1086.009v.7a.47.47,0,0,1-.529.529H285a.254.254,0,0,1-.276-.152.289.289,0,0,1,.028-.248.453.453,0,0,1,.276-.11c.175,0,.359,0,.593,0h.828v-2.107H285.2c-.074,0-.152,0-.225,0a.26.26,0,0,1-.276-.262.251.251,0,0,1,.281-.249h1.491a.456.456,0,0,1,.5.5c0,.258,0,.524,0,.777v.635Z" transform="translate(-271.768 -1079.679)" fill="#026c9f"/>
    <path id="Path_1586" data-name="Path 1586" d="M27.834,1086.88a.255.255,0,0,1-.262.258c-.258,0-.534,0-.81,0s-.529,0-.759-.009a.436.436,0,0,1-.446-.46c-.009-.727-.009-1.468,0-2.2a.451.451,0,0,1,.483-.469h1.491c.184,0,.3.1.3.248a.268.268,0,0,1-.064.179.331.331,0,0,1-.239.087H26.077v2.107h1.491A.265.265,0,0,1,27.834,1086.88Z" transform="translate(-24.54 -1079.583)" fill="#026c9f"/>
    <path id="Path_1587" data-name="Path 1587" d="M286.923,1199.387a.448.448,0,0,1-.465.409c-.221,0-.455,0-.718,0-.285,0-.566,0-.8,0a.249.249,0,0,1-.276-.258.255.255,0,0,1,.281-.253h1.472v-.971h-1.435a.429.429,0,0,1-.129-.014.235.235,0,0,1-.189-.267.232.232,0,0,1,.235-.23c.253,0,.529,0,.8,0,.3,0,.566,0,.814,0a.426.426,0,0,1,.409.41C286.941,1198.633,286.941,1199.014,286.923,1199.387Z" transform="translate(-271.732 -1188.148)" fill="#026c9f"/>
    <path id="Path_1588" data-name="Path 1588" d="M27.841,1199.469a.237.237,0,0,1,.064.17c0,.156-.124.253-.313.258-.262,0-.524,0-.791,0-.216,0-.437,0-.653,0a.488.488,0,0,1-.52-.511c0-.29,0-.607,0-.966a.484.484,0,0,1,.524-.52h1.44a.333.333,0,0,1,.244.083.244.244,0,0,1,.064.17c0,.156-.124.253-.313.253h-1.44v.966a.108.108,0,0,1,.037,0,.9.9,0,0,0,.11,0h1.3A.359.359,0,0,1,27.841,1199.469Z" transform="translate(-24.612 -1188.244)" fill="#026c9f"/>
    <path id="Path_1589" data-name="Path 1589" d="M129.485,1206.458a.245.245,0,0,1-.212.253.369.369,0,0,1-.074,0h-4.614a.257.257,0,1,1-.055-.511.471.471,0,0,1,.087,0H129.2a.469.469,0,0,1,.078,0A.245.245,0,0,1,129.485,1206.458Z" transform="translate(-118.747 -1196.162)" fill="#026c9f"/>
    <path id="Path_1590" data-name="Path 1590" d="M129.485,1180.467a.237.237,0,0,1-.239.239c-.032,0-.06,0-.092,0h-4.568a.258.258,0,0,1-.285-.248.268.268,0,0,1,.276-.262h4.605a.315.315,0,0,1,.087.009A.231.231,0,0,1,129.485,1180.467Z" transform="translate(-118.747 -1171.358)" fill="#026c9f"/>
    <path id="Path_1591" data-name="Path 1591" d="M286.411,1167.662a.256.256,0,0,1-.267.253c-.2,0-.4,0-.589,0s-.4,0-.6,0a.255.255,0,1,1,0-.511c.078,0,.161,0,.239,0h.934A.266.266,0,0,1,286.411,1167.662Z" transform="translate(-271.768 -1159.147)" fill="#026c9f"/>
    <path id="Path_1592" data-name="Path 1592" d="M41.524,1167.748a.27.27,0,0,1-.069.184.253.253,0,0,1-.189.078c-.189,0-.373,0-.557,0s-.373,0-.557,0a.243.243,0,0,1-.184-.078.273.273,0,0,1-.069-.189.25.25,0,0,1,.271-.244h.865c.069,0,.143,0,.216,0A.252.252,0,0,1,41.524,1167.748Z" transform="translate(-38.23 -1159.242)" fill="#026c9f"/>
  </g>
</svg>
