<svg id="dr.privacy" xmlns="http://www.w3.org/2000/svg" width="20" height="20" viewBox="0 0 20 20">
  <rect id="back" width="20" height="20" fill="none"/>
  <g id="icon" transform="translate(1.743 0.763)">
    <path id="Path_1498" data-name="Path 1498" d="M17.792,497.984c0-.218-.079-.32-.25-.324h-.014c-.171,0-.259.106-.259.324V499.1a.775.775,0,0,1-.709.8,2.63,2.63,0,0,1-.357.019H5.4a3.09,3.09,0,0,1-.315-.014.786.786,0,0,1-.746-.834V484.307a.768.768,0,0,1,.746-.834c.185-.009.384-.014.621-.014.162,0,.32,0,.477,0s.3,0,.445,0h.009v.009c0,.185,0,.371,0,.551,0,.412-.009.838.009,1.255a.856.856,0,0,0,.88.82c1.088,0,2.177,0,3.261,0q1.653,0,3.312,0a.852.852,0,0,0,.875-.82c.014-.417.014-.843.009-1.255,0-.181,0-.361,0-.542h-.009v-.009c0-.009.023-.014.037-.014h1.38a.814.814,0,0,1,.889.889v2.089c.014.176.107.283.25.283h.028c.167-.014.245-.107.245-.287v-2.279a.962.962,0,0,0-.023-.185,1.377,1.377,0,0,0-1.366-1.037c-.463,0-.954,0-1.459,0-.593,0-1.209,0-1.894,0a.263.263,0,0,1-.278-.162,2.283,2.283,0,0,0-.75-.88,2.1,2.1,0,0,0-1.218-.394,2.23,2.23,0,0,0-1.95,1.237.323.323,0,0,1-.338.2h0c-.292,0-.584,0-.875,0H6.445c-.482,0-.852,0-1.2,0H5.231a1.48,1.48,0,0,0-1.037.426,1.4,1.4,0,0,0-.394,1.01c.019,1.982.014,4,.014,5.942,0,.773,0,1.552,0,2.325v6.452a1.261,1.261,0,0,0,.672,1.163,1.65,1.65,0,0,0,.861.19h10.9a2.786,2.786,0,0,0,.333-.014,1.3,1.3,0,0,0,1.2-1.306C17.8,498.734,17.8,498.345,17.792,497.984ZM7.158,483.922c0-.347.116-.463.459-.463h.653c.19,0,.347,0,.5,0h.019a.345.345,0,0,0,.366-.259,1.748,1.748,0,0,1,3.3,0,.352.352,0,0,0,.366.264h.019c.162,0,.329,0,.533,0,.167,0,.329,0,.5,0h.167c.287,0,.417.13.421.417,0,.4,0,.82,0,1.278,0,.3-.13.421-.431.426H7.644c-.371,0-.477-.107-.482-.482C7.158,484.705,7.158,484.316,7.158,483.922Z" transform="translate(-3.8 -481.5)" fill="#026c9f"/>
    <path id="Path_1499" data-name="Path 1499" d="M17.792,497.984c0-.218-.079-.32-.25-.324h-.014c-.171,0-.259.106-.259.324V499.1a.775.775,0,0,1-.709.8,2.63,2.63,0,0,1-.357.019H5.4a3.09,3.09,0,0,1-.315-.014.786.786,0,0,1-.746-.834V484.307a.768.768,0,0,1,.746-.834c.185-.009.384-.014.621-.014.162,0,.32,0,.477,0s.3,0,.445,0h.009v.009c0,.185,0,.371,0,.551,0,.412-.009.838.009,1.255a.856.856,0,0,0,.88.82c1.088,0,2.177,0,3.261,0q1.653,0,3.312,0a.852.852,0,0,0,.875-.82c.014-.417.014-.843.009-1.255,0-.181,0-.361,0-.542h-.009v-.009c0-.009.023-.014.037-.014h1.38a.814.814,0,0,1,.889.889v2.089c.014.176.107.283.25.283h.028c.167-.014.245-.107.245-.287v-2.279a.962.962,0,0,0-.023-.185,1.377,1.377,0,0,0-1.366-1.037c-.463,0-.954,0-1.459,0-.593,0-1.209,0-1.894,0a.263.263,0,0,1-.278-.162,2.283,2.283,0,0,0-.75-.88,2.1,2.1,0,0,0-1.218-.394,2.23,2.23,0,0,0-1.95,1.237.323.323,0,0,1-.338.2h0c-.292,0-.584,0-.875,0H6.445c-.482,0-.852,0-1.2,0H5.231a1.48,1.48,0,0,0-1.037.426,1.4,1.4,0,0,0-.394,1.01c.019,1.982.014,4,.014,5.942,0,.773,0,1.552,0,2.325v6.452a1.261,1.261,0,0,0,.672,1.163,1.65,1.65,0,0,0,.861.19h10.9a2.786,2.786,0,0,0,.333-.014,1.3,1.3,0,0,0,1.2-1.306C17.8,498.734,17.8,498.345,17.792,497.984ZM7.158,483.922c0-.347.116-.463.459-.463h.653c.19,0,.347,0,.5,0h.019a.345.345,0,0,0,.366-.259,1.748,1.748,0,0,1,3.3,0,.352.352,0,0,0,.366.264h.019c.162,0,.329,0,.533,0,.167,0,.329,0,.5,0h.167c.287,0,.417.13.421.417,0,.4,0,.82,0,1.278,0,.3-.13.421-.431.426H7.644c-.371,0-.477-.107-.482-.482C7.158,484.705,7.158,484.316,7.158,483.922Z" transform="translate(-3.8 -481.5)" fill="#026c9f"/>
    <path id="Path_1500" data-name="Path 1500" d="M148.031,603.021v-.477c0-.315,0-.588,0-.857a.331.331,0,0,0-.255-.366l-1.769-.611c-.936-.324-1.9-.658-2.853-.987a.473.473,0,0,0-.148-.023.465.465,0,0,0-.167.028c-.94.324-1.894.653-2.821.977-.593.2-1.186.412-1.779.616a.329.329,0,0,0-.259.361c0,.287,0,.584,0,.866,0,.389,0,.792.009,1.186a7.792,7.792,0,0,0,1.306,4.233,9.464,9.464,0,0,0,3.566,3.024.27.27,0,0,0,.13.028.421.421,0,0,0,.208-.051l.287-.176c.454-.273.917-.551,1.348-.871a7.661,7.661,0,0,0,2.8-3.835A9.17,9.17,0,0,0,148.031,603.021Zm-1.056,3.372a7.41,7.41,0,0,1-2.872,3.4c-.32.218-.662.412-.963.588a.274.274,0,0,1-.144.032.185.185,0,0,1-.093-.018,8.744,8.744,0,0,1-3.228-2.793,7.041,7.041,0,0,1-1.158-3.728c-.019-.394-.014-.792-.014-1.176v-.746a.2.2,0,0,1,.167-.227c.584-.2,1.167-.4,1.755-.607.792-.273,1.607-.556,2.413-.829a.542.542,0,0,1,.343,0c.75.255,1.514.519,2.251.773.63.218,1.264.435,1.9.653a.227.227,0,0,1,.181.264c-.009.241,0,.486,0,.773v.417A7.926,7.926,0,0,1,146.975,606.393Z" transform="translate(-131.769 -594.226)" fill="#026c9f"/>
    <path id="Path_1501" data-name="Path 1501" d="M148.031,603.021v-.477c0-.315,0-.588,0-.857a.331.331,0,0,0-.255-.366l-1.769-.611c-.936-.324-1.9-.658-2.853-.987a.473.473,0,0,0-.148-.023.465.465,0,0,0-.167.028c-.94.324-1.894.653-2.821.977-.593.2-1.186.412-1.779.616a.329.329,0,0,0-.259.361c0,.287,0,.584,0,.866,0,.389,0,.792.009,1.186a7.792,7.792,0,0,0,1.306,4.233,9.464,9.464,0,0,0,3.566,3.024.27.27,0,0,0,.13.028.421.421,0,0,0,.208-.051l.287-.176c.454-.273.917-.551,1.348-.871a7.661,7.661,0,0,0,2.8-3.835A9.17,9.17,0,0,0,148.031,603.021Zm-1.056,3.372a7.41,7.41,0,0,1-2.872,3.4c-.32.218-.662.412-.963.588a.274.274,0,0,1-.144.032.185.185,0,0,1-.093-.018,8.744,8.744,0,0,1-3.228-2.793,7.041,7.041,0,0,1-1.158-3.728c-.019-.394-.014-.792-.014-1.176v-.746a.2.2,0,0,1,.167-.227c.584-.2,1.167-.4,1.755-.607.792-.273,1.607-.556,2.413-.829a.542.542,0,0,1,.343,0c.75.255,1.514.519,2.251.773.63.218,1.264.435,1.9.653a.227.227,0,0,1,.181.264c-.009.241,0,.486,0,.773v.417A7.926,7.926,0,0,1,146.975,606.393Z" transform="translate(-131.769 -594.226)" fill="#026c9f"/>
    <path id="Path_1502" data-name="Path 1502" d="M49.549,810.8a.258.258,0,0,1-.167.111.938.938,0,0,1-.227.019H44.621a.535.535,0,0,1-.38-.1.214.214,0,0,1-.056-.176c0-.185.116-.25.431-.25h4.557a.284.284,0,0,0,.06,0c.019,0,.042,0,.056,0a.122.122,0,0,1,.065.014.56.56,0,0,1,.213.232A.2.2,0,0,1,49.549,810.8Z" transform="translate(-42.315 -795.167)" fill="#026c9f"/>
    <path id="Path_1503" data-name="Path 1503" d="M49.549,810.8a.258.258,0,0,1-.167.111.938.938,0,0,1-.227.019H44.621a.535.535,0,0,1-.38-.1.214.214,0,0,1-.056-.176c0-.185.116-.25.431-.25h4.557a.284.284,0,0,0,.06,0c.019,0,.042,0,.056,0a.122.122,0,0,1,.065.014.56.56,0,0,1,.213.232A.2.2,0,0,1,49.549,810.8Z" transform="translate(-42.315 -795.167)" fill="#026c9f"/>
    <path id="Path_1504" data-name="Path 1504" d="M48.957,775.65a.247.247,0,0,1-.056.185.3.3,0,0,1-.222.088c-.125,0-.264,0-.431,0H44.705a.456.456,0,0,1-.083,0,.249.249,0,0,1-.236-.278.239.239,0,0,1,.25-.241c.167,0,.333,0,.5,0h3.543A.251.251,0,0,1,48.957,775.65Z" transform="translate(-42.505 -761.788)" fill="#026c9f"/>
    <path id="Path_1505" data-name="Path 1505" d="M48.957,775.65a.247.247,0,0,1-.056.185.3.3,0,0,1-.222.088c-.125,0-.264,0-.431,0H44.705a.456.456,0,0,1-.083,0,.249.249,0,0,1-.236-.278.239.239,0,0,1,.25-.241c.167,0,.333,0,.5,0h3.543A.251.251,0,0,1,48.957,775.65Z" transform="translate(-42.505 -761.788)" fill="#026c9f"/>
    <path id="Path_1506" data-name="Path 1506" d="M47.5,740.559a.261.261,0,0,1-.065.181.374.374,0,0,1-.269.088H44.426a.36.36,0,0,1-.273-.093.244.244,0,0,1-.065-.195c0-.167.111-.241.333-.241h2.737C47.386,740.3,47.5,740.388,47.5,740.559Z" transform="translate(-42.222 -728.314)" fill="#026c9f"/>
    <path id="Path_1507" data-name="Path 1507" d="M47.5,740.559a.261.261,0,0,1-.065.181.374.374,0,0,1-.269.088H44.426a.36.36,0,0,1-.273-.093.244.244,0,0,1-.065-.195c0-.167.111-.241.333-.241h2.737C47.386,740.3,47.5,740.388,47.5,740.559Z" transform="translate(-42.222 -728.314)" fill="#026c9f"/>
    <path id="Path_1508" data-name="Path 1508" d="M47.369,670.431a.425.425,0,0,1-.278.088c-.185,0-.394,0-.644,0H44.335a.266.266,0,0,1-.3-.213.234.234,0,0,1,.037-.2.351.351,0,0,1,.287-.106h2.232c.218,0,.389,0,.547.014a.431.431,0,0,1,.287.176A.271.271,0,0,1,47.369,670.431Z" transform="translate(-42.163 -661.27)" fill="#026c9f"/>
    <path id="Path_1509" data-name="Path 1509" d="M47.369,670.431a.425.425,0,0,1-.278.088c-.185,0-.394,0-.644,0H44.335a.266.266,0,0,1-.3-.213.234.234,0,0,1,.037-.2.351.351,0,0,1,.287-.106h2.232c.218,0,.389,0,.547.014a.431.431,0,0,1,.287.176A.271.271,0,0,1,47.369,670.431Z" transform="translate(-42.163 -661.27)" fill="#026c9f"/>
    <path id="Path_1510" data-name="Path 1510" d="M47.418,705.359a.239.239,0,0,1-.06.176.374.374,0,0,1-.269.088H44.347c-.227,0-.343-.083-.347-.255a.241.241,0,0,1,.065-.181.374.374,0,0,1,.269-.088h2.756C47.3,705.1,47.413,705.2,47.418,705.359Z" transform="translate(-42.138 -694.744)" fill="#026c9f"/>
    <path id="Path_1511" data-name="Path 1511" d="M47.418,705.359a.239.239,0,0,1-.06.176.374.374,0,0,1-.269.088H44.347c-.227,0-.343-.083-.347-.255a.241.241,0,0,1,.065-.181.374.374,0,0,1,.269-.088h2.756C47.3,705.1,47.413,705.2,47.418,705.359Z" transform="translate(-42.138 -694.744)" fill="#026c9f"/>
    <path id="Path_1512" data-name="Path 1512" d="M47.513,635.35a.241.241,0,0,1-.065.181.34.34,0,0,1-.25.083c-.463,0-.931,0-1.394,0s-.926,0-1.389,0a.333.333,0,0,1-.25-.083.261.261,0,0,1-.065-.181c0-.167.111-.25.324-.25h2.76C47.4,635.1,47.513,635.188,47.513,635.35Z" transform="translate(-42.233 -627.986)" fill="#026c9f"/>
    <path id="Path_1513" data-name="Path 1513" d="M47.513,635.35a.241.241,0,0,1-.065.181.34.34,0,0,1-.25.083c-.463,0-.931,0-1.394,0s-.926,0-1.389,0a.333.333,0,0,1-.25-.083.261.261,0,0,1-.065-.181c0-.167.111-.25.324-.25h2.76C47.4,635.1,47.513,635.188,47.513,635.35Z" transform="translate(-42.233 -627.986)" fill="#026c9f"/>
    <path id="Path_1514" data-name="Path 1514" d="M134.565,509.81a1.016,1.016,0,0,0-.732-.31,1.04,1.04,0,0,0-1.033,1.047,1.062,1.062,0,0,0,.306.75,1.025,1.025,0,0,0,.723.306h0a1.058,1.058,0,0,0,.736-1.792Zm-.732,1.269h-.009a.471.471,0,0,1-.352-.157.534.534,0,0,1-.144-.389.507.507,0,0,1,.509-.5h.009a.5.5,0,0,1,.357.158.534.534,0,0,1,.144.389A.526.526,0,0,1,133.833,511.079Z" transform="translate(-126.825 -508.203)" fill="#026c9f"/>
    <path id="Path_1515" data-name="Path 1515" d="M134.565,509.81a1.016,1.016,0,0,0-.732-.31,1.04,1.04,0,0,0-1.033,1.047,1.062,1.062,0,0,0,.306.75,1.025,1.025,0,0,0,.723.306h0a1.058,1.058,0,0,0,.736-1.792Zm-.732,1.269h-.009a.471.471,0,0,1-.352-.157.534.534,0,0,1-.144-.389.507.507,0,0,1,.509-.5h.009a.5.5,0,0,1,.357.158.534.534,0,0,1,.144.389A.526.526,0,0,1,133.833,511.079Z" transform="translate(-126.825 -508.203)" fill="#026c9f"/>
    <path id="Path_1516" data-name="Path 1516" d="M217.949,665.479a1.937,1.937,0,0,0,.324-.658,1.425,1.425,0,0,0-.9-1.524,1.361,1.361,0,0,0-.5-.1,1.426,1.426,0,0,0-1.153.607,1.305,1.305,0,0,0,.083,1.714.386.386,0,0,1,.093.4c-.1.38-.181.755-.283,1.2a.532.532,0,0,0,.079.463.555.555,0,0,0,.449.181h1.459a.545.545,0,0,0,.445-.181.535.535,0,0,0,.079-.463c-.1-.454-.195-.862-.292-1.241a.385.385,0,0,1,.074-.329Zm-.63.5c.079.282.139.56.208.857l.083.375,0,.009h-1.487v-.009l.083-.375c.065-.287.13-.584.208-.871a.49.49,0,0,0-.162-.579.961.961,0,0,1-.208-1.121.878.878,0,0,1,.811-.537.794.794,0,0,1,.107,0,.859.859,0,0,1,.75.621.9.9,0,0,1-.236,1.024A.52.52,0,0,0,217.319,665.974Z" transform="translate(-205.629 -654.784)" fill="#026c9f"/>
    <path id="Path_1517" data-name="Path 1517" d="M217.949,665.479a1.937,1.937,0,0,0,.324-.658,1.425,1.425,0,0,0-.9-1.524,1.361,1.361,0,0,0-.5-.1,1.426,1.426,0,0,0-1.153.607,1.305,1.305,0,0,0,.083,1.714.386.386,0,0,1,.093.4c-.1.38-.181.755-.283,1.2a.532.532,0,0,0,.079.463.555.555,0,0,0,.449.181h1.459a.545.545,0,0,0,.445-.181.535.535,0,0,0,.079-.463c-.1-.454-.195-.862-.292-1.241a.385.385,0,0,1,.074-.329Zm-.63.5c.079.282.139.56.208.857l.083.375,0,.009h-1.487v-.009l.083-.375c.065-.287.13-.584.208-.871a.49.49,0,0,0-.162-.579.961.961,0,0,1-.208-1.121.878.878,0,0,1,.811-.537.794.794,0,0,1,.107,0,.859.859,0,0,1,.75.621.9.9,0,0,1-.236,1.024A.52.52,0,0,0,217.319,665.974Z" transform="translate(-205.629 -654.784)" fill="#026c9f"/>
  </g>
</svg>
