<svg id="dr.subs" xmlns="http://www.w3.org/2000/svg" width="20" height="20" viewBox="0 0 20 20">
  <rect id="back" width="20" height="20" fill="none"/>
  <g id="icon" transform="translate(1.974 2.036)">
    <path id="Path_1566" data-name="Path 1566" d="M18.194,2014.686a1.77,1.77,0,0,0-1.79-1.786H4.2a1.787,1.787,0,0,0-1.8,1.8v1.433c0,.255.088.343.343.343H5.457v.733a.253.253,0,0,0,.135.246.263.263,0,0,0,.13.037.271.271,0,0,0,.25-.3v-.793c0-.432,0-.881,0-1.322a2.159,2.159,0,0,0-.366-1.461l-.148-.2H16.315a1.278,1.278,0,0,1,1.364,1.364V2028l-.176-.083a.447.447,0,0,0-.07-.033c-.042-.019-.079-.037-.111-.051-.107-.051-.209-.107-.315-.158-.3-.148-.612-.306-.918-.464a.354.354,0,0,0-.366,0c-.292.148-.594.3-.881.445-.255.13-.52.26-.779.394a.435.435,0,0,1-.19.051.391.391,0,0,1-.19-.051c-.246-.125-.5-.25-.747-.376-.3-.148-.6-.3-.9-.454a.4.4,0,0,0-.413,0c-.3.153-.6.306-.9.45-.241.121-.492.246-.738.371a.432.432,0,0,1-.19.051.469.469,0,0,1-.2-.051c-.246-.125-.5-.25-.742-.371-.292-.144-.594-.3-.891-.45a.439.439,0,0,0-.209-.06.421.421,0,0,0-.2.056c-.3.158-.608.311-.9.454l-.334.167a.683.683,0,0,1-.1.046c-.019.009-.037.019-.06.028l-.172.079v-1.568a.263.263,0,0,0-.255-.288H5.7a.268.268,0,0,0-.232.292c0,.64,0,1.294,0,1.925,0,.125.032.329.237.329a.471.471,0,0,0,.218-.06l.237-.121c.468-.232.951-.473,1.424-.714a.414.414,0,0,1,.186-.051.432.432,0,0,1,.19.051c.264.135.533.269.793.4.283.144.58.288.867.436a.363.363,0,0,0,.371,0c.269-.134.538-.274.8-.4s.561-.283.844-.422a.453.453,0,0,1,.209-.056.471.471,0,0,1,.2.051c.255.13.515.26.765.385.283.144.58.288.867.436a.45.45,0,0,0,.2.056.424.424,0,0,0,.209-.06c.3-.153.6-.306.9-.455.241-.121.492-.241.733-.366a.412.412,0,0,1,.2-.051.45.45,0,0,1,.195.051c.589.3,1.178.594,1.674.84a.4.4,0,0,0,.181.046c.148,0,.241-.121.241-.315v-2.115C18.2,2022.464,18.2,2018.545,18.194,2014.686Zm-12.732.775v.487h-2.5l-.014-.107c0-.009,0-.019,0-.028a.571.571,0,0,1-.009-.093v-.246c0-.264,0-.538,0-.807a1.254,1.254,0,0,1,1.257-1.252h0a1.266,1.266,0,0,1,1.271,1.252Z" transform="translate(-2.4 -2012.9)" fill="#026c9f"/>
    <path id="Path_1567" data-name="Path 1567" d="M18.194,2014.686a1.77,1.77,0,0,0-1.79-1.786H4.2a1.787,1.787,0,0,0-1.8,1.8v1.433c0,.255.088.343.343.343H5.457v.733a.253.253,0,0,0,.135.246.263.263,0,0,0,.13.037.271.271,0,0,0,.25-.3v-.793c0-.432,0-.881,0-1.322a2.159,2.159,0,0,0-.366-1.461l-.148-.2H16.315a1.278,1.278,0,0,1,1.364,1.364V2028l-.176-.083a.447.447,0,0,0-.07-.033c-.042-.019-.079-.037-.111-.051-.107-.051-.209-.107-.315-.158-.3-.148-.612-.306-.918-.464a.354.354,0,0,0-.366,0c-.292.148-.594.3-.881.445-.255.13-.52.26-.779.394a.435.435,0,0,1-.19.051.391.391,0,0,1-.19-.051c-.246-.125-.5-.25-.747-.376-.3-.148-.6-.3-.9-.454a.4.4,0,0,0-.413,0c-.3.153-.6.306-.9.45-.241.121-.492.246-.738.371a.432.432,0,0,1-.19.051.469.469,0,0,1-.2-.051c-.246-.125-.5-.25-.742-.371-.292-.144-.594-.3-.891-.45a.439.439,0,0,0-.209-.06.421.421,0,0,0-.2.056c-.3.158-.608.311-.9.454l-.334.167a.683.683,0,0,1-.1.046c-.019.009-.037.019-.06.028l-.172.079v-1.568a.263.263,0,0,0-.255-.288H5.7a.268.268,0,0,0-.232.292c0,.64,0,1.294,0,1.925,0,.125.032.329.237.329a.471.471,0,0,0,.218-.06l.237-.121c.468-.232.951-.473,1.424-.714a.414.414,0,0,1,.186-.051.432.432,0,0,1,.19.051c.264.135.533.269.793.4.283.144.58.288.867.436a.363.363,0,0,0,.371,0c.269-.134.538-.274.8-.4s.561-.283.844-.422a.453.453,0,0,1,.209-.056.471.471,0,0,1,.2.051c.255.13.515.26.765.385.283.144.58.288.867.436a.45.45,0,0,0,.2.056.424.424,0,0,0,.209-.06c.3-.153.6-.306.9-.455.241-.121.492-.241.733-.366a.412.412,0,0,1,.2-.051.45.45,0,0,1,.195.051c.589.3,1.178.594,1.674.84a.4.4,0,0,0,.181.046c.148,0,.241-.121.241-.315v-2.115C18.2,2022.464,18.2,2018.545,18.194,2014.686Zm-12.732.775v.487h-2.5l-.014-.107c0-.009,0-.019,0-.028a.571.571,0,0,1-.009-.093v-.246c0-.264,0-.538,0-.807a1.254,1.254,0,0,1,1.257-1.252h0a1.266,1.266,0,0,1,1.271,1.252Z" transform="translate(-2.4 -2012.9)" fill="#026c9f"/>
    <path id="Path_1568" data-name="Path 1568" d="M230.211,2072.14a1.348,1.348,0,0,0-.951-1.016l-.019,0a.775.775,0,0,1-.186-.074.26.26,0,0,1-.13-.2c0-.371,0-.747,0-1.136v-.515l.186.107.13.074.246.144a.3.3,0,0,0,.162.051.249.249,0,0,0,.237-.167.232.232,0,0,0-.093-.3c-.172-.1-.348-.19-.538-.287-.083-.042-.172-.084-.26-.13l-.065-.032v-.273a.258.258,0,1,0-.515,0c0,.065,0,.135,0,.2v.172l-.079.028c-.032.014-.065.023-.1.037a1.559,1.559,0,0,0-.172.07,1.281,1.281,0,0,0-.765,1.109,1.082,1.082,0,0,0,.575,1.09,3.338,3.338,0,0,0,.362.195.284.284,0,0,1,.176.283c0,.273,0,.557,0,.825v1.118l-.135-.009a1.333,1.333,0,0,1-.71-.265.3.3,0,0,0-.162-.046.257.257,0,0,0-.209.112.249.249,0,0,0,.074.353,1.448,1.448,0,0,0,.283.171c.172.065.348.121.538.181.079.023.158.051.237.074l.083.028v.176a1.661,1.661,0,0,0,0,.214.254.254,0,0,0,.255.237h0a.258.258,0,0,0,.25-.246,2,2,0,0,0,0-.236.27.27,0,0,1,.181-.278l.107-.051a2.156,2.156,0,0,0,.506-.3A1.57,1.57,0,0,0,230.211,2072.14Zm-1.809-1.382-.181-.093a.63.63,0,0,1-.408-.487.827.827,0,0,1,.394-.812l.195-.13Zm.7,2.63-.172.07v-1.837l.135.014a.783.783,0,0,1,.649.677A1.016,1.016,0,0,1,229.1,2073.388Z" transform="translate(-216.723 -2065.54)" fill="#026c9f"/>
    <path id="Path_1569" data-name="Path 1569" d="M230.211,2072.14a1.348,1.348,0,0,0-.951-1.016l-.019,0a.775.775,0,0,1-.186-.074.26.26,0,0,1-.13-.2c0-.371,0-.747,0-1.136v-.515l.186.107.13.074.246.144a.3.3,0,0,0,.162.051.249.249,0,0,0,.237-.167.232.232,0,0,0-.093-.3c-.172-.1-.348-.19-.538-.287-.083-.042-.172-.084-.26-.13l-.065-.032v-.273a.258.258,0,1,0-.515,0c0,.065,0,.135,0,.2v.172l-.079.028c-.032.014-.065.023-.1.037a1.559,1.559,0,0,0-.172.07,1.281,1.281,0,0,0-.765,1.109,1.082,1.082,0,0,0,.575,1.09,3.338,3.338,0,0,0,.362.195.284.284,0,0,1,.176.283c0,.273,0,.557,0,.825v1.118l-.135-.009a1.333,1.333,0,0,1-.71-.265.3.3,0,0,0-.162-.046.257.257,0,0,0-.209.112.249.249,0,0,0,.074.353,1.448,1.448,0,0,0,.283.171c.172.065.348.121.538.181.079.023.158.051.237.074l.083.028v.176a1.661,1.661,0,0,0,0,.214.254.254,0,0,0,.255.237h0a.258.258,0,0,0,.25-.246,2,2,0,0,0,0-.236.27.27,0,0,1,.181-.278l.107-.051a2.156,2.156,0,0,0,.506-.3A1.57,1.57,0,0,0,230.211,2072.14Zm-1.809-1.382-.181-.093a.63.63,0,0,1-.408-.487.827.827,0,0,1,.394-.812l.195-.13Zm.7,2.63-.172.07v-1.837l.135.014a.783.783,0,0,1,.649.677A1.016,1.016,0,0,1,229.1,2073.388Z" transform="translate(-216.723 -2065.54)" fill="#026c9f"/>
    <path id="Path_1570" data-name="Path 1570" d="M151.828,2276.755a.264.264,0,0,1-.237.255.5.5,0,0,1-.079,0h-5.965c-.13,0-.348-.032-.348-.255a.236.236,0,0,1,.06-.172.4.4,0,0,1,.278-.088h5.974a.333.333,0,0,1,.241.088A.2.2,0,0,1,151.828,2276.755Z" transform="translate(-138.576 -2264.273)" fill="#026c9f"/>
    <path id="Path_1571" data-name="Path 1571" d="M151.828,2276.755a.264.264,0,0,1-.237.255.5.5,0,0,1-.079,0h-5.965c-.13,0-.348-.032-.348-.255a.236.236,0,0,1,.06-.172.4.4,0,0,1,.278-.088h5.974a.333.333,0,0,1,.241.088A.2.2,0,0,1,151.828,2276.755Z" transform="translate(-138.576 -2264.273)" fill="#026c9f"/>
    <path id="Path_1572" data-name="Path 1572" d="M188.459,2243.655a.253.253,0,0,1-.26.26c-.158,0-.329,0-.547,0h-3.729a.282.282,0,0,1-.278-.139.242.242,0,0,1,0-.232.275.275,0,0,1,.209-.144.279.279,0,0,1,.06,0h4.29A.261.261,0,0,1,188.459,2243.655Z" transform="translate(-175.207 -2232.708)" fill="#026c9f"/>
    <path id="Path_1573" data-name="Path 1573" d="M188.459,2243.655a.253.253,0,0,1-.26.26c-.158,0-.329,0-.547,0h-3.729a.282.282,0,0,1-.278-.139.242.242,0,0,1,0-.232.275.275,0,0,1,.209-.144.279.279,0,0,1,.06,0h4.29A.261.261,0,0,1,188.459,2243.655Z" transform="translate(-175.207 -2232.708)" fill="#026c9f"/>
    <path id="Path_1599" data-name="Path 1599" d="M188.57,2243.655a.249.249,0,0,1-.071.181.263.263,0,0,1-.195.079c-.161,0-.337,0-.56,0h-3.815a.29.29,0,0,1-.285-.139.238.238,0,0,1,0-.232.282.282,0,0,1,.214-.144.292.292,0,0,1,.062,0H188.3A.265.265,0,0,1,188.57,2243.655Z" transform="translate(-1661.788 -1504.65) rotate(-43)" fill="#026c9f"/>
    <path id="Path_1600" data-name="Path 1600" d="M186.2,2243.655a.4.4,0,0,1-.037.181.119.119,0,0,1-.1.079c-.084,0-.176,0-.293,0h-1.994c-.074,0-.119-.042-.149-.139a.433.433,0,0,1,0-.232.188.188,0,0,1,.112-.144.082.082,0,0,1,.032,0h2.294C186.144,2243.409,186.2,2243.511,186.2,2243.655Z" transform="matrix(-0.669, -0.743, 0.743, -0.669, -1541.543, 1648.856)" fill="#026c9f"/>
    <path id="Path_1574" data-name="Path 1574" d="M126.967,2068.147a.257.257,0,0,1-.065.176.332.332,0,0,1-.241.088h-2.936a.364.364,0,0,1-.26-.088.245.245,0,0,1-.065-.172c0-.157.121-.255.315-.255h2.941C126.842,2067.892,126.962,2067.99,126.967,2068.147Z" transform="translate(-117.788 -2065.346)" fill="#026c9f"/>
    <path id="Path_1575" data-name="Path 1575" d="M126.967,2068.147a.257.257,0,0,1-.065.176.332.332,0,0,1-.241.088h-2.936a.364.364,0,0,1-.26-.088.245.245,0,0,1-.065-.172c0-.157.121-.255.315-.255h2.941C126.842,2067.892,126.962,2067.99,126.967,2068.147Z" transform="translate(-117.788 -2065.346)" fill="#026c9f"/>
    <path id="Path_1576" data-name="Path 1576" d="M126.967,2101.047a.258.258,0,0,1-.065.176.353.353,0,0,1-.241.088h-2.936a.365.365,0,0,1-.26-.088.238.238,0,0,1-.065-.171c0-.158.121-.255.315-.255h2.941C126.842,2100.792,126.962,2100.89,126.967,2101.047Z" transform="translate(-117.788 -2096.72)" fill="#026c9f"/>
    <path id="Path_1577" data-name="Path 1577" d="M126.967,2101.047a.258.258,0,0,1-.065.176.353.353,0,0,1-.241.088h-2.936a.365.365,0,0,1-.26-.088.238.238,0,0,1-.065-.171c0-.158.121-.255.315-.255h2.941C126.842,2100.792,126.962,2100.89,126.967,2101.047Z" transform="translate(-117.788 -2096.72)" fill="#026c9f"/>
  </g>
</svg>
