<svg id="dr.terms" xmlns="http://www.w3.org/2000/svg" width="20" height="20" viewBox="0 0 20 20">
  <rect id="back" width="20" height="20" fill="none"/>
  <g id="icon" transform="translate(3.771 1.172)">
    <path id="Path_1518" data-name="Path 1518" d="M29.262,2632.833c-.7-.7-1.412-1.408-2.1-2.1-.352-.356-.708-.708-1.064-1.064a1.678,1.678,0,0,0-.149-.129c-.016-.015-.031-.027-.051-.043H16.873a.9.9,0,0,0-.673,1.041v16.14a.763.763,0,0,0,.223.634,1.819,1.819,0,0,0,.317.2c.047.023.094.051.141.078H28.73c.555-.239.673-.431.673-1.056v-1.987c0-3.712,0-7.554,0-11.328A.513.513,0,0,0,29.262,2632.833Zm-3.2-1.784v-.712l2.507,2.507H27.325c-.348,0-.63,0-.888,0a.373.373,0,0,1-.379-.38C26.058,2631.991,26.058,2631.51,26.062,2631.048Zm2.9,15.569c0,.411-.125.536-.54.536H17.178c-.422,0-.544-.125-.544-.552v-16.121c0-.426.121-.547.544-.547H25.62v2.472a.821.821,0,0,0,.876.876h2.468Z" transform="translate(-16.2 -2629.5)" fill="#026c9f"/>
    <path id="Path_1519" data-name="Path 1519" d="M29.262,2632.833c-.7-.7-1.412-1.408-2.1-2.1-.352-.356-.708-.708-1.064-1.064a1.678,1.678,0,0,0-.149-.129c-.016-.015-.031-.027-.051-.043H16.873a.9.9,0,0,0-.673,1.041v16.14a.763.763,0,0,0,.223.634,1.819,1.819,0,0,0,.317.2c.047.023.094.051.141.078H28.73c.555-.239.673-.431.673-1.056v-1.987c0-3.712,0-7.554,0-11.328A.513.513,0,0,0,29.262,2632.833Zm-3.2-1.784v-.712l2.507,2.507H27.325c-.348,0-.63,0-.888,0a.373.373,0,0,1-.379-.38C26.058,2631.991,26.058,2631.51,26.062,2631.048Zm2.9,15.569c0,.411-.125.536-.54.536H17.178c-.422,0-.544-.125-.544-.552v-16.121c0-.426.121-.547.544-.547H25.62v2.472a.821.821,0,0,0,.876.876h2.468Z" transform="translate(-16.2 -2629.5)" fill="#026c9f"/>
    <path id="Path_1520" data-name="Path 1520" d="M79.54,3004.167a1.122,1.122,0,0,0-1.174-1.064c-.391,0-.814,0-1.33,0H73.1c-.52,0-.947,0-1.338,0a1.191,1.191,0,0,0-.853.34,1.1,1.1,0,0,0-.313.8,1.131,1.131,0,0,0,1.154,1.119c.422,0,.876,0,1.432,0h3.9c.509,0,.923,0,1.31,0a1.153,1.153,0,0,0,.841-.356A1.113,1.113,0,0,0,79.54,3004.167Zm-.438.129a.707.707,0,0,1-.622.622c-.043,0-.086,0-.121,0H71.72a.7.7,0,0,1-.688-.7.685.685,0,0,1,.708-.68c.489,0,.978,0,1.467,0h5.1a1.139,1.139,0,0,1,.321.035A.7.7,0,0,1,79.1,3004.3Z" transform="translate(-68.47 -2988.485)" fill="#026c9f"/>
    <path id="Path_1521" data-name="Path 1521" d="M79.54,3004.167a1.122,1.122,0,0,0-1.174-1.064c-.391,0-.814,0-1.33,0H73.1c-.52,0-.947,0-1.338,0a1.191,1.191,0,0,0-.853.34,1.1,1.1,0,0,0-.313.8,1.131,1.131,0,0,0,1.154,1.119c.422,0,.876,0,1.432,0h3.9c.509,0,.923,0,1.31,0a1.153,1.153,0,0,0,.841-.356A1.113,1.113,0,0,0,79.54,3004.167Zm-.438.129a.707.707,0,0,1-.622.622c-.043,0-.086,0-.121,0H71.72a.7.7,0,0,1-.688-.7.685.685,0,0,1,.708-.68c.489,0,.978,0,1.467,0h5.1a1.139,1.139,0,0,1,.321.035A.7.7,0,0,1,79.1,3004.3Z" transform="translate(-68.47 -2988.485)" fill="#026c9f"/>
    <path id="Path_1522" data-name="Path 1522" d="M73.97,2894.5l-.043-.051.039-.055c.016-.023.031-.043.047-.066a.5.5,0,0,0,.07-.11.2.2,0,0,0-.055-.266.217.217,0,0,0-.133-.055.236.236,0,0,0-.137.055.452.452,0,0,0-.1.109.327.327,0,0,1-.3.149h-.008c-.325,0-.673-.008-1.029-.008-.243,0-.5,0-.767,0a.815.815,0,0,0-.857.872v1.408a.831.831,0,0,0,.876.9c.289,0,.579,0,.865,0s.579,0,.861,0a.817.817,0,0,0,.872-.88v-.556c0-.238,0-.485,0-.728A1.033,1.033,0,0,0,73.97,2894.5Zm-.239,2c0,.305-.141.446-.438.446s-.575,0-.853,0c-.293,0-.587,0-.872,0a.4.4,0,0,1-.434-.438c0-.458,0-.927,0-1.428,0-.254.137-.422.348-.422.188,0,.4,0,.653,0h1.048l-.759.951-.066-.051a.49.49,0,0,1-.043-.036.676.676,0,0,0-.066-.051.24.24,0,0,0-.121-.035.207.207,0,0,0-.156.074.192.192,0,0,0-.016.267,2.749,2.749,0,0,0,.352.355.173.173,0,0,0,.117.047.268.268,0,0,0,.2-.109c.188-.231.379-.47.559-.7.086-.11.176-.219.262-.329l.067-.079c.012-.015.027-.031.043-.051l.121-.145.027.188a.406.406,0,0,1,.008.059.512.512,0,0,1,.012.105v.008C73.732,2895.57,73.736,2896.04,73.732,2896.5Z" transform="translate(-68.568 -2883.557)" fill="#026c9f"/>
    <path id="Path_1523" data-name="Path 1523" d="M73.97,2894.5l-.043-.051.039-.055c.016-.023.031-.043.047-.066a.5.5,0,0,0,.07-.11.2.2,0,0,0-.055-.266.217.217,0,0,0-.133-.055.236.236,0,0,0-.137.055.452.452,0,0,0-.1.109.327.327,0,0,1-.3.149h-.008c-.325,0-.673-.008-1.029-.008-.243,0-.5,0-.767,0a.815.815,0,0,0-.857.872v1.408a.831.831,0,0,0,.876.9c.289,0,.579,0,.865,0s.579,0,.861,0a.817.817,0,0,0,.872-.88v-.556c0-.238,0-.485,0-.728A1.033,1.033,0,0,0,73.97,2894.5Zm-.239,2c0,.305-.141.446-.438.446s-.575,0-.853,0c-.293,0-.587,0-.872,0a.4.4,0,0,1-.434-.438c0-.458,0-.927,0-1.428,0-.254.137-.422.348-.422.188,0,.4,0,.653,0h1.048l-.759.951-.066-.051a.49.49,0,0,1-.043-.036.676.676,0,0,0-.066-.051.24.24,0,0,0-.121-.035.207.207,0,0,0-.156.074.192.192,0,0,0-.016.267,2.749,2.749,0,0,0,.352.355.173.173,0,0,0,.117.047.268.268,0,0,0,.2-.109c.188-.231.379-.47.559-.7.086-.11.176-.219.262-.329l.067-.079c.012-.015.027-.031.043-.051l.121-.145.027.188a.406.406,0,0,1,.008.059.512.512,0,0,1,.012.105v.008C73.732,2895.57,73.736,2896.04,73.732,2896.5Z" transform="translate(-68.568 -2883.557)" fill="#026c9f"/>
    <path id="Path_1524" data-name="Path 1524" d="M72.538,2746.527a.214.214,0,0,1-.192.207.447.447,0,0,1-.078,0h-9a.447.447,0,0,1-.078,0,.213.213,0,0,1-.192-.219.208.208,0,0,1,.184-.211.571.571,0,0,1,.082,0h9.005a.6.6,0,0,1,.082,0A.209.209,0,0,1,72.538,2746.527Z" transform="translate(-61.166 -2741.73)" fill="#026c9f"/>
    <path id="Path_1525" data-name="Path 1525" d="M72.538,2746.527a.214.214,0,0,1-.192.207.447.447,0,0,1-.078,0h-9a.447.447,0,0,1-.078,0,.213.213,0,0,1-.192-.219.208.208,0,0,1,.184-.211.571.571,0,0,1,.082,0h9.005a.6.6,0,0,1,.082,0A.209.209,0,0,1,72.538,2746.527Z" transform="translate(-61.166 -2741.73)" fill="#026c9f"/>
    <path id="Path_1526" data-name="Path 1526" d="M72.541,2863.219a.212.212,0,0,1-.184.211.606.606,0,0,1-.082,0H63.266a.607.607,0,0,1-.082,0,.216.216,0,0,1,0-.426.565.565,0,0,1,.086,0h9.013a.3.3,0,0,1,.086.008A.2.2,0,0,1,72.541,2863.219Z" transform="translate(-61.169 -2853.865)" fill="#026c9f"/>
    <path id="Path_1527" data-name="Path 1527" d="M72.541,2863.219a.212.212,0,0,1-.184.211.606.606,0,0,1-.082,0H63.266a.607.607,0,0,1-.082,0,.216.216,0,0,1,0-.426.565.565,0,0,1,.086,0h9.013a.3.3,0,0,1,.086.008A.2.2,0,0,1,72.541,2863.219Z" transform="translate(-61.169 -2853.865)" fill="#026c9f"/>
    <path id="Path_1528" data-name="Path 1528" d="M72.424,2785.615a.688.688,0,0,1-.2.023h-8.86a.675.675,0,0,1-.2-.019.213.213,0,0,1,.043-.411c.035,0,.074-.008.106-.008h8.962a.99.99,0,0,1,.106,0,.184.184,0,0,1,.18.18A.19.19,0,0,1,72.424,2785.615Z" transform="translate(-61.193 -2779.109)" fill="#026c9f"/>
    <path id="Path_1529" data-name="Path 1529" d="M72.424,2785.615a.688.688,0,0,1-.2.023h-8.86a.675.675,0,0,1-.2-.019.213.213,0,0,1,.043-.411c.035,0,.074-.008.106-.008h8.962a.99.99,0,0,1,.106,0,.184.184,0,0,1,.18.18A.19.19,0,0,1,72.424,2785.615Z" transform="translate(-61.193 -2779.109)" fill="#026c9f"/>
    <path id="Path_1530" data-name="Path 1530" d="M72.537,2824.242a.188.188,0,0,1-.172.188.716.716,0,0,1-.129.008H63.36a.458.458,0,0,1-.313-.078.191.191,0,0,1-.047-.141c0-.114.047-.219.368-.219h8.806a.862.862,0,0,1,.223.02A.187.187,0,0,1,72.537,2824.242Z" transform="translate(-61.169 -2816.391)" fill="#026c9f"/>
    <path id="Path_1531" data-name="Path 1531" d="M72.537,2824.242a.188.188,0,0,1-.172.188.716.716,0,0,1-.129.008H63.36a.458.458,0,0,1-.313-.078.191.191,0,0,1-.047-.141c0-.114.047-.219.368-.219h8.806a.862.862,0,0,1,.223.02A.187.187,0,0,1,72.537,2824.242Z" transform="translate(-61.169 -2816.391)" fill="#026c9f"/>
    <path id="Path_1532" data-name="Path 1532" d="M184.468,2948.811c0,.133-.094.219-.254.223-.086,0-.168,0-.254,0h-4.2a.552.552,0,0,1-.113-.008.208.208,0,0,1-.164-.227.211.211,0,0,1,.2-.2.542.542,0,0,1,.078,0h4.463C184.375,2948.6,184.468,2948.682,184.468,2948.811Z" transform="translate(-173.097 -2936.117)" fill="#026c9f"/>
    <path id="Path_1533" data-name="Path 1533" d="M184.468,2948.811c0,.133-.094.219-.254.223-.086,0-.168,0-.254,0h-4.2a.552.552,0,0,1-.113-.008.208.208,0,0,1-.164-.227.211.211,0,0,1,.2-.2.542.542,0,0,1,.078,0h4.463C184.375,2948.6,184.468,2948.682,184.468,2948.811Z" transform="translate(-173.097 -2936.117)" fill="#026c9f"/>
    <path id="Path_1534" data-name="Path 1534" d="M65.863,2684.311a.2.2,0,0,1-.051.145.347.347,0,0,1-.258.083H63.3c-.133,0-.293-.04-.3-.219a.192.192,0,0,1,.051-.145.335.335,0,0,1,.239-.075h2.273C65.7,2684.1,65.86,2684.135,65.863,2684.311Z" transform="translate(-61.169 -2681.964)" fill="#026c9f"/>
    <path id="Path_1535" data-name="Path 1535" d="M65.863,2684.311a.2.2,0,0,1-.051.145.347.347,0,0,1-.258.083H63.3c-.133,0-.293-.04-.3-.219a.192.192,0,0,1,.051-.145.335.335,0,0,1,.239-.075h2.273C65.7,2684.1,65.86,2684.135,65.863,2684.311Z" transform="translate(-61.169 -2681.964)" fill="#026c9f"/>
    <path id="Path_1536" data-name="Path 1536" d="M181.051,2917.619a.215.215,0,0,1-.223.219c-.2,0-.407,0-.606,0s-.4,0-.6,0a.217.217,0,1,1,.012-.434c.07,0,.145,0,.235,0h.724c.086,0,.16,0,.227,0A.219.219,0,0,1,181.051,2917.619Z" transform="translate(-173.016 -2906.138)" fill="#026c9f"/>
    <path id="Path_1537" data-name="Path 1537" d="M181.051,2917.619a.215.215,0,0,1-.223.219c-.2,0-.407,0-.606,0s-.4,0-.6,0a.217.217,0,1,1,.012-.434c.07,0,.145,0,.235,0h.724c.086,0,.16,0,.227,0A.219.219,0,0,1,181.051,2917.619Z" transform="translate(-173.016 -2906.138)" fill="#026c9f"/>
  </g>
</svg>
