<svg id="dr.transactions" xmlns="http://www.w3.org/2000/svg" width="20" height="20" viewBox="0 0 20 20">
  <rect id="back" width="20" height="20" fill="none"/>
  <g id="icon" transform="translate(1.743 1.648)">
    <path id="Path_1542" data-name="Path 1542" d="M16.049,1555.345c-.014-.09-.028-.184-.042-.273a5.136,5.136,0,0,0-4.5-4.359c-.193-.019-.382-.028-.584-.038l-.287-.014h0v-1.324c0-1.107,0-2.253,0-3.384a.6.6,0,0,0-.306-.561c-.33-.2-.646-.405-.91-.58a.608.608,0,0,0-.339-.113.594.594,0,0,0-.335.113c-.127.085-.259.17-.391.25s-.292.184-.438.283a.24.24,0,0,1-.123.042.237.237,0,0,1-.127-.047c-.137-.089-.278-.179-.415-.264s-.269-.17-.4-.254a.632.632,0,0,0-.353-.118.607.607,0,0,0-.349.118c-.127.085-.259.17-.386.25s-.269.169-.4.259a.273.273,0,0,1-.151.057.239.239,0,0,1-.141-.052c-.188-.132-.386-.254-.58-.372-.085-.052-.165-.1-.25-.16a.627.627,0,0,0-.32-.1.594.594,0,0,0-.325.108c-.127.085-.259.17-.386.25-.151.094-.306.193-.452.292a.241.241,0,0,1-.118.042.2.2,0,0,1-.113-.042c-.156-.1-.316-.2-.471-.3-.123-.075-.245-.156-.368-.236a.587.587,0,0,0-.335-.108.608.608,0,0,0-.339.113c-.278.184-.565.363-.844.537l-.085.052a.577.577,0,0,0-.287.523v13a.556.556,0,0,0,.278.509c.316.2.636.405.952.608a.627.627,0,0,0,.32.1.629.629,0,0,0,.325-.1c.1-.066.2-.127.3-.193.184-.113.372-.236.556-.358a.178.178,0,0,1,.108-.038.225.225,0,0,1,.113.042c.137.089.273.179.41.264s.283.179.419.269a.62.62,0,0,0,.349.118.634.634,0,0,0,.353-.118c.132-.09.269-.174.4-.259s.287-.179.429-.273a.178.178,0,0,1,.108-.038.2.2,0,0,1,.108.042c.108.075.226.146.335.217.151.094.306.193.452.292a.679.679,0,0,0,.391.137.644.644,0,0,0,.377-.132c.127-.09.264-.174.4-.259.061-.038.123-.075.179-.113l0,0,.042.033c.028.019.052.042.075.061a5.058,5.058,0,0,0,2.177,1.089c.2.042.4.075.6.1l.273.042h.58l.335-.057c.24-.038.485-.076.721-.137a5.108,5.108,0,0,0,3.742-4.213c.014-.089.028-.179.038-.264l.019-.122v-.7A1.114,1.114,0,0,0,16.049,1555.345Zm-8.963,3.916c-.042.028-.09.057-.132.085-.123.08-.25.16-.377.236a.117.117,0,0,1-.047.009.242.242,0,0,1-.113-.033c-.278-.17-.561-.349-.844-.537a.58.58,0,0,0-.688,0c-.123.08-.245.156-.368.236-.151.094-.311.2-.462.3a.178.178,0,0,1-.231,0c-.132-.085-.269-.17-.4-.255s-.283-.174-.419-.269a.633.633,0,0,0-.353-.118.643.643,0,0,0-.363.123c-.269.179-.547.358-.834.528a.185.185,0,0,1-.094.024.228.228,0,0,1-.09-.019c-.141-.085-.283-.174-.419-.264s-.283-.179-.429-.268a.179.179,0,0,1-.085-.2v-12.79a.255.255,0,0,1,.132-.25c.273-.16.533-.335.778-.495a.239.239,0,0,1,.118-.042.2.2,0,0,1,.113.042c.156.1.311.2.467.3.118.075.24.151.363.231a.635.635,0,0,0,.344.113.623.623,0,0,0,.344-.113c.123-.08.245-.16.372-.236.156-.1.316-.2.471-.3a.2.2,0,0,1,.1-.038.166.166,0,0,1,.1.038c.113.075.226.146.335.212.156.094.316.2.467.3a.668.668,0,0,0,.382.132.655.655,0,0,0,.386-.137c.132-.09.273-.179.41-.264s.245-.156.363-.236a.224.224,0,0,1,.127-.047.238.238,0,0,1,.123.042c.151.1.311.2.467.3.118.075.245.151.363.231a.609.609,0,0,0,.339.113.619.619,0,0,0,.349-.118c.212-.141.424-.273.65-.415.094-.061.193-.123.287-.184l0,0,.2.132c.254.16.514.325.768.49a.156.156,0,0,1,.047.113c0,1.593,0,3.191,0,4.736,0,0,0,.01,0,.014s0,.009-.009.014v0h0a5.152,5.152,0,0,0-3.007,8.511l0,0Zm3.827,1.178H10.9a4.616,4.616,0,0,1,.028-9.232h0a4.616,4.616,0,1,1-.024,9.232Z" transform="translate(0.2 -1544.7)" fill="#026c9f"/>
    <path id="Path_1543" data-name="Path 1543" d="M16.049,1555.345c-.014-.09-.028-.184-.042-.273a5.136,5.136,0,0,0-4.5-4.359c-.193-.019-.382-.028-.584-.038l-.287-.014h0v-1.324c0-1.107,0-2.253,0-3.384a.6.6,0,0,0-.306-.561c-.33-.2-.646-.405-.91-.58a.608.608,0,0,0-.339-.113.594.594,0,0,0-.335.113c-.127.085-.259.17-.391.25s-.292.184-.438.283a.24.24,0,0,1-.123.042.237.237,0,0,1-.127-.047c-.137-.089-.278-.179-.415-.264s-.269-.17-.4-.254a.632.632,0,0,0-.353-.118.607.607,0,0,0-.349.118c-.127.085-.259.17-.386.25s-.269.169-.4.259a.273.273,0,0,1-.151.057.239.239,0,0,1-.141-.052c-.188-.132-.386-.254-.58-.372-.085-.052-.165-.1-.25-.16a.627.627,0,0,0-.32-.1.594.594,0,0,0-.325.108c-.127.085-.259.17-.386.25-.151.094-.306.193-.452.292a.241.241,0,0,1-.118.042.2.2,0,0,1-.113-.042c-.156-.1-.316-.2-.471-.3-.123-.075-.245-.156-.368-.236a.587.587,0,0,0-.335-.108.608.608,0,0,0-.339.113c-.278.184-.565.363-.844.537l-.085.052a.577.577,0,0,0-.287.523v13a.556.556,0,0,0,.278.509c.316.2.636.405.952.608a.627.627,0,0,0,.32.1.629.629,0,0,0,.325-.1c.1-.066.2-.127.3-.193.184-.113.372-.236.556-.358a.178.178,0,0,1,.108-.038.225.225,0,0,1,.113.042c.137.089.273.179.41.264s.283.179.419.269a.62.62,0,0,0,.349.118.634.634,0,0,0,.353-.118c.132-.09.269-.174.4-.259s.287-.179.429-.273a.178.178,0,0,1,.108-.038.2.2,0,0,1,.108.042c.108.075.226.146.335.217.151.094.306.193.452.292a.679.679,0,0,0,.391.137.644.644,0,0,0,.377-.132c.127-.09.264-.174.4-.259.061-.038.123-.075.179-.113l0,0,.042.033c.028.019.052.042.075.061a5.058,5.058,0,0,0,2.177,1.089c.2.042.4.075.6.1l.273.042h.58l.335-.057c.24-.038.485-.076.721-.137a5.108,5.108,0,0,0,3.742-4.213c.014-.089.028-.179.038-.264l.019-.122v-.7A1.114,1.114,0,0,0,16.049,1555.345Zm-8.963,3.916c-.042.028-.09.057-.132.085-.123.08-.25.16-.377.236a.117.117,0,0,1-.047.009.242.242,0,0,1-.113-.033c-.278-.17-.561-.349-.844-.537a.58.58,0,0,0-.688,0c-.123.08-.245.156-.368.236-.151.094-.311.2-.462.3a.178.178,0,0,1-.231,0c-.132-.085-.269-.17-.4-.255s-.283-.174-.419-.269a.633.633,0,0,0-.353-.118.643.643,0,0,0-.363.123c-.269.179-.547.358-.834.528a.185.185,0,0,1-.094.024.228.228,0,0,1-.09-.019c-.141-.085-.283-.174-.419-.264s-.283-.179-.429-.268a.179.179,0,0,1-.085-.2v-12.79a.255.255,0,0,1,.132-.25c.273-.16.533-.335.778-.495a.239.239,0,0,1,.118-.042.2.2,0,0,1,.113.042c.156.1.311.2.467.3.118.075.24.151.363.231a.635.635,0,0,0,.344.113.623.623,0,0,0,.344-.113c.123-.08.245-.16.372-.236.156-.1.316-.2.471-.3a.2.2,0,0,1,.1-.038.166.166,0,0,1,.1.038c.113.075.226.146.335.212.156.094.316.2.467.3a.668.668,0,0,0,.382.132.655.655,0,0,0,.386-.137c.132-.09.273-.179.41-.264s.245-.156.363-.236a.224.224,0,0,1,.127-.047.238.238,0,0,1,.123.042c.151.1.311.2.467.3.118.075.245.151.363.231a.609.609,0,0,0,.339.113.619.619,0,0,0,.349-.118c.212-.141.424-.273.65-.415.094-.061.193-.123.287-.184l0,0,.2.132c.254.16.514.325.768.49a.156.156,0,0,1,.047.113c0,1.593,0,3.191,0,4.736,0,0,0,.01,0,.014s0,.009-.009.014v0h0a5.152,5.152,0,0,0-3.007,8.511l0,0Zm3.827,1.178H10.9a4.616,4.616,0,0,1,.028-9.232h0a4.616,4.616,0,1,1-.024,9.232Z" transform="translate(0.2 -1544.7)" fill="#026c9f"/>
    <path id="Path_1544" data-name="Path 1544" d="M36.438,1599.566c-.1-.033-.137-.075-.137-.179,0-.3,0-.594,0-.886v-.434a.644.644,0,0,1,.009-.09c0-.019,0-.038,0-.057v-.009l.009,0a.828.828,0,0,1,.533.726c.019.193.113.306.259.306h.033c.165-.014.245-.141.231-.358a1.334,1.334,0,0,0-.938-1.187c-.028-.01-.057-.019-.09-.033l-.052-.019v-.3a.251.251,0,0,0-.24-.255h-.019a.256.256,0,0,0-.259.231.591.591,0,0,0,0,.155c.019.141-.042.188-.16.226a1.346,1.346,0,0,0,0,2.554c.033.01.066.019.1.033l.057.019v1.588h-.009a.769.769,0,0,1-.542-.721c-.019-.179-.113-.288-.259-.288h-.019a.241.241,0,0,0-.179.085.324.324,0,0,0-.066.245,1.272,1.272,0,0,0,.8,1.155c.193.08.316.156.287.4a.208.208,0,0,0,.057.179.259.259,0,0,0,.2.085h0a.258.258,0,0,0,.259-.269v-.014a.831.831,0,0,0,0-.108c-.019-.132.042-.179.156-.217a1.325,1.325,0,0,0,.933-1.286A1.363,1.363,0,0,0,36.438,1599.566Zm-.664-.132-.009,0a.793.793,0,0,1-.547-.749.8.8,0,0,1,.547-.754l.009,0Zm.537,2.173-.009,0v-1.522l.009,0a.794.794,0,0,1,.547.773A.782.782,0,0,1,36.311,1601.607Z" transform="translate(-33.054 -1594.345)" fill="#026c9f"/>
    <path id="Path_1545" data-name="Path 1545" d="M36.438,1599.566c-.1-.033-.137-.075-.137-.179,0-.3,0-.594,0-.886v-.434a.644.644,0,0,1,.009-.09c0-.019,0-.038,0-.057v-.009l.009,0a.828.828,0,0,1,.533.726c.019.193.113.306.259.306h.033c.165-.014.245-.141.231-.358a1.334,1.334,0,0,0-.938-1.187c-.028-.01-.057-.019-.09-.033l-.052-.019v-.3a.251.251,0,0,0-.24-.255h-.019a.256.256,0,0,0-.259.231.591.591,0,0,0,0,.155c.019.141-.042.188-.16.226a1.346,1.346,0,0,0,0,2.554c.033.01.066.019.1.033l.057.019v1.588h-.009a.769.769,0,0,1-.542-.721c-.019-.179-.113-.288-.259-.288h-.019a.241.241,0,0,0-.179.085.324.324,0,0,0-.066.245,1.272,1.272,0,0,0,.8,1.155c.193.08.316.156.287.4a.208.208,0,0,0,.057.179.259.259,0,0,0,.2.085h0a.258.258,0,0,0,.259-.269v-.014a.831.831,0,0,0,0-.108c-.019-.132.042-.179.156-.217a1.325,1.325,0,0,0,.933-1.286A1.363,1.363,0,0,0,36.438,1599.566Zm-.664-.132-.009,0a.793.793,0,0,1-.547-.749.8.8,0,0,1,.547-.754l.009,0Zm.537,2.173-.009,0v-1.522l.009,0a.794.794,0,0,1,.547.773A.782.782,0,0,1,36.311,1601.607Z" transform="translate(-33.054 -1594.345)" fill="#026c9f"/>
    <path id="Path_1546" data-name="Path 1546" d="M113.631,1625.664a.261.261,0,0,1-.287.259c-.193,0-.4,0-.674,0h-2.983a.9.9,0,0,1-.188-.014.257.257,0,0,1,0-.5.72.72,0,0,1,.17-.014h3.666C113.518,1625.409,113.631,1625.513,113.631,1625.664Z" transform="translate(-104.14 -1621.597)" fill="#026c9f"/>
    <path id="Path_1547" data-name="Path 1547" d="M113.631,1625.664a.261.261,0,0,1-.287.259c-.193,0-.4,0-.674,0h-2.983a.9.9,0,0,1-.188-.014.257.257,0,0,1,0-.5.72.72,0,0,1,.17-.014h3.666C113.518,1625.409,113.631,1625.513,113.631,1625.664Z" transform="translate(-104.14 -1621.597)" fill="#026c9f"/>
    <path id="Path_1548" data-name="Path 1548" d="M113.6,1596.864c0,.165-.127.264-.335.264H109.6a.343.343,0,0,1-.292-.137.242.242,0,0,1,0-.24.273.273,0,0,1,.278-.151h3.685a.363.363,0,0,1,.264.09A.222.222,0,0,1,113.6,1596.864Z" transform="translate(-104.114 -1594.154)" fill="#026c9f"/>
    <path id="Path_1549" data-name="Path 1549" d="M113.6,1596.864c0,.165-.127.264-.335.264H109.6a.343.343,0,0,1-.292-.137.242.242,0,0,1,0-.24.273.273,0,0,1,.278-.151h3.685a.363.363,0,0,1,.264.09A.222.222,0,0,1,113.6,1596.864Z" transform="translate(-104.114 -1594.154)" fill="#026c9f"/>
    <path id="Path_1550" data-name="Path 1550" d="M113.6,1654.486a.282.282,0,0,1-.254.137c-.146,0-.3,0-.495,0h-3.237a.339.339,0,0,1-.245-.089.242.242,0,0,1-.066-.179c0-.16.127-.259.32-.259h3.671a.3.3,0,0,1,.3.132A.248.248,0,0,1,113.6,1654.486Z" transform="translate(-104.14 -1648.944)" fill="#026c9f"/>
    <path id="Path_1551" data-name="Path 1551" d="M113.6,1654.486a.282.282,0,0,1-.254.137c-.146,0-.3,0-.495,0h-3.237a.339.339,0,0,1-.245-.089.242.242,0,0,1-.066-.179c0-.16.127-.259.32-.259h3.671a.3.3,0,0,1,.3.132A.248.248,0,0,1,113.6,1654.486Z" transform="translate(-104.14 -1648.944)" fill="#026c9f"/>
    <path id="Path_1552" data-name="Path 1552" d="M32.853,1804.156a.252.252,0,0,1-.08.193.347.347,0,0,1-.231.071H29.4a.339.339,0,0,1-.254-.085.243.243,0,0,1-.061-.184c0-.165.118-.254.32-.254h3.138C32.735,1803.892,32.853,1803.991,32.853,1804.156Z" transform="translate(-27.707 -1791.682)" fill="#026c9f"/>
    <path id="Path_1553" data-name="Path 1553" d="M32.853,1804.156a.252.252,0,0,1-.08.193.347.347,0,0,1-.231.071H29.4a.339.339,0,0,1-.254-.085.243.243,0,0,1-.061-.184c0-.165.118-.254.32-.254h3.138C32.735,1803.892,32.853,1803.991,32.853,1804.156Z" transform="translate(-27.707 -1791.682)" fill="#026c9f"/>
    <path id="Path_1554" data-name="Path 1554" d="M32.548,1746.8a.36.36,0,0,1-.151.028H29.259a.416.416,0,0,1-.165-.028.24.24,0,0,1-.146-.292.251.251,0,0,1,.269-.208H32.4a.672.672,0,0,1,.1,0,.257.257,0,0,1,.052.495Z" transform="translate(-27.567 -1736.799)" fill="#026c9f"/>
    <path id="Path_1555" data-name="Path 1555" d="M32.548,1746.8a.36.36,0,0,1-.151.028H29.259a.416.416,0,0,1-.165-.028.24.24,0,0,1-.146-.292.251.251,0,0,1,.269-.208H32.4a.672.672,0,0,1,.1,0,.257.257,0,0,1,.052.495Z" transform="translate(-27.567 -1736.799)" fill="#026c9f"/>
    <path id="Path_1556" data-name="Path 1556" d="M32.751,1775.287a.24.24,0,0,1-.24.236.707.707,0,0,1-.1,0h-3.1a.492.492,0,0,1-.118-.01.258.258,0,0,1-.033-.5.692.692,0,0,1,.2-.019h3.025a.788.788,0,0,1,.151.009A.254.254,0,0,1,32.751,1775.287Z" transform="translate(-27.605 -1764.147)" fill="#026c9f"/>
    <path id="Path_1557" data-name="Path 1557" d="M32.751,1775.287a.24.24,0,0,1-.24.236.707.707,0,0,1-.1,0h-3.1a.492.492,0,0,1-.118-.01.258.258,0,0,1-.033-.5.692.692,0,0,1,.2-.019h3.025a.788.788,0,0,1,.151.009A.254.254,0,0,1,32.751,1775.287Z" transform="translate(-27.605 -1764.147)" fill="#026c9f"/>
    <path id="Path_1558" data-name="Path 1558" d="M111.454,1683.254a.26.26,0,0,1-.071.188.3.3,0,0,1-.221.08h-.773c-.264,0-.533,0-.8,0a.313.313,0,0,1-.221-.085.256.256,0,0,1-.071-.184.261.261,0,0,1,.292-.25h1.569A.256.256,0,0,1,111.454,1683.254Z" transform="translate(-104.14 -1676.483)" fill="#026c9f"/>
    <path id="Path_1559" data-name="Path 1559" d="M111.454,1683.254a.26.26,0,0,1-.071.188.3.3,0,0,1-.221.08h-.773c-.264,0-.533,0-.8,0a.313.313,0,0,1-.221-.085.256.256,0,0,1-.071-.184.261.261,0,0,1,.292-.25h1.569A.256.256,0,0,1,111.454,1683.254Z" transform="translate(-104.14 -1676.483)" fill="#026c9f"/>
    <path id="Path_1560" data-name="Path 1560" d="M110.557,1711.969a.246.246,0,0,1-.236.255.848.848,0,0,1-.113,0h-.363a.777.777,0,0,1-.108,0,.253.253,0,0,1-.24-.255.25.25,0,0,1,.231-.259c.1,0,.2-.009.3-.009s.2,0,.3.009A.244.244,0,0,1,110.557,1711.969Z" transform="translate(-104.327 -1703.83)" fill="#026c9f"/>
    <path id="Path_1561" data-name="Path 1561" d="M110.557,1711.969a.246.246,0,0,1-.236.255.848.848,0,0,1-.113,0h-.363a.777.777,0,0,1-.108,0,.253.253,0,0,1-.24-.255.25.25,0,0,1,.231-.259c.1,0,.2-.009.3-.009s.2,0,.3.009A.244.244,0,0,1,110.557,1711.969Z" transform="translate(-104.327 -1703.83)" fill="#026c9f"/>
    <path id="Path_1562" data-name="Path 1562" d="M201.038,1729.991c-.1-.08-.2-.156-.306-.236-.2-.155-.415-.316-.608-.485a.661.661,0,0,0-.434-.17.584.584,0,0,0-.575.528v0h-2.922a.544.544,0,0,0-.594.6v.382c0,.438.2.631.631.631h2.879v0a.587.587,0,0,0,.575.532.71.71,0,0,0,.471-.193,6.749,6.749,0,0,1,.575-.467c.1-.075.207-.156.306-.236a.582.582,0,0,0,.245-.448A.568.568,0,0,0,201.038,1729.991Zm-1.381,1.282v-.226c0-.231-.094-.32-.32-.325h-3.2v-.556h3.105c.349,0,.4-.052.41-.405a.359.359,0,0,1,0-.066l0-.071,1.093.82Z" transform="translate(-186.373 -1720.41)" fill="#026c9f"/>
    <path id="Path_1563" data-name="Path 1563" d="M201.038,1729.991c-.1-.08-.2-.156-.306-.236-.2-.155-.415-.316-.608-.485a.661.661,0,0,0-.434-.17.584.584,0,0,0-.575.528v0h-2.922a.544.544,0,0,0-.594.6v.382c0,.438.2.631.631.631h2.879v0a.587.587,0,0,0,.575.532.71.71,0,0,0,.471-.193,6.749,6.749,0,0,1,.575-.467c.1-.075.207-.156.306-.236a.582.582,0,0,0,.245-.448A.568.568,0,0,0,201.038,1729.991Zm-1.381,1.282v-.226c0-.231-.094-.32-.32-.325h-3.2v-.556h3.105c.349,0,.4-.052.41-.405a.359.359,0,0,1,0-.066l0-.071,1.093.82Z" transform="translate(-186.373 -1720.41)" fill="#026c9f"/>
    <path id="Path_1564" data-name="Path 1564" d="M160.893,1776.219v-.1c0-.476-.193-.669-.669-.669H157.5c-.075,0-.132-.009-.16-.113a.56.56,0,0,0-.537-.434.584.584,0,0,0-.344.118c-.325.24-.66.5-1.065.829a.535.535,0,0,0-.2.405.508.508,0,0,0,.184.391c.4.335.763.617,1.1.858a.549.549,0,0,0,.853-.311c.028-.113.08-.132.174-.132h0c.221,0,.438,0,.66,0h2.121a.543.543,0,0,0,.589-.584A1.192,1.192,0,0,0,160.893,1776.219Zm-.537.316h-3.1c-.363,0-.41.047-.419.415a.269.269,0,0,1,0,.057c0,.014,0,.071,0,.071l-1.093-.825,1.1-.829v.231c0,.231.094.316.325.321h3.19Z" transform="translate(-147.877 -1764.052)" fill="#026c9f"/>
    <path id="Path_1565" data-name="Path 1565" d="M160.893,1776.219v-.1c0-.476-.193-.669-.669-.669H157.5c-.075,0-.132-.009-.16-.113a.56.56,0,0,0-.537-.434.584.584,0,0,0-.344.118c-.325.24-.66.5-1.065.829a.535.535,0,0,0-.2.405.508.508,0,0,0,.184.391c.4.335.763.617,1.1.858a.549.549,0,0,0,.853-.311c.028-.113.08-.132.174-.132h0c.221,0,.438,0,.66,0h2.121a.543.543,0,0,0,.589-.584A1.192,1.192,0,0,0,160.893,1776.219Zm-.537.316h-3.1c-.363,0-.41.047-.419.415a.269.269,0,0,1,0,.057c0,.014,0,.071,0,.071l-1.093-.825,1.1-.829v.231c0,.231.094.316.325.321h3.19Z" transform="translate(-147.877 -1764.052)" fill="#026c9f"/>
  </g>
</svg>
