<svg xmlns="http://www.w3.org/2000/svg" width="20" height="20" viewBox="0 0 20 20">
    <path style="fill:none" d="M0 0h20v20H0z"/>
    <path data-name="Path 1538" d="M42.352 3415.9a1.6 1.6 0 0 1-1.551 1.551H27.737a1.609 1.609 0 0 1-1.559-1.121 3.505 3.505 0 0 1-.056-.193c-.009-.026-.013-.052-.021-.077v-4.537c.021-.06.039-.12.056-.18a2.061 2.061 0 0 1 .146-.387 1.577 1.577 0 0 1 1.439-.851H29.025c.189 0 .3.09.305.24a.2.2 0 0 1-.06.159.34.34 0 0 1-.253.086h-1.242a1.126 1.126 0 0 0-1.194 1.2v3.969a1.132 1.132 0 0 0 1.211 1.2h12.88a1.133 1.133 0 0 0 1.211-1.207v-3.97a1.127 1.127 0 0 0-1.194-1.2h-1.22a.38.38 0 0 1-.271-.09.2.2 0 0 1-.056-.159c0-.21.215-.24.335-.24h1.16a2.389 2.389 0 0 1 .309.017 1.6 1.6 0 0 1 1.418 1.534c.005 1.456.005 2.885-.012 4.256z" transform="translate(-24.234 -3400.697)" style="fill:#026c9f"/>
    <path data-name="Path 1539" d="M42.352 3415.9a1.6 1.6 0 0 1-1.551 1.551H27.737a1.609 1.609 0 0 1-1.559-1.121 3.505 3.505 0 0 1-.056-.193c-.009-.026-.013-.052-.021-.077v-4.537c.021-.06.039-.12.056-.18a2.061 2.061 0 0 1 .146-.387 1.577 1.577 0 0 1 1.439-.851H29.025c.189 0 .3.09.305.24a.2.2 0 0 1-.06.159.34.34 0 0 1-.253.086h-1.242a1.126 1.126 0 0 0-1.194 1.2v3.969a1.132 1.132 0 0 0 1.211 1.2h12.88a1.133 1.133 0 0 0 1.211-1.207v-3.97a1.127 1.127 0 0 0-1.194-1.2h-1.22a.38.38 0 0 1-.271-.09.2.2 0 0 1-.056-.159c0-.21.215-.24.335-.24h1.16a2.389 2.389 0 0 1 .309.017 1.6 1.6 0 0 1 1.418 1.534c.005 1.456.005 2.885-.012 4.256z" transform="translate(-24.234 -3400.697)" style="fill:#026c9f"/>
    <path data-name="Path 1540" d="M129.78 3272c-.047-.112-.129-.155-.3-.155h-2.08v-4.481a.594.594 0 0 0-.666-.662h-1.864a.6.6 0 0 0-.692.688v4.459h-2.1c-.163 0-.245.047-.292.159s-.013.189.1.3c.778.774 1.551 1.551 2.328 2.325.447.442.889.889 1.336 1.332a.373.373 0 0 0 .236.138.367.367 0 0 0 .228-.129l1.443-1.443q1.108-1.109 2.221-2.217c.122-.124.145-.214.102-.314zm-4 3.475-3.119-3.119.223-.013h.043a.844.844 0 0 1 .107 0h1.289c.258 0 .339-.078.339-.335v-4.8h2.26v4.79c0 .271.073.344.344.348h1.658z" transform="translate(-115.79 -3263.458)" style="fill:#026c9f"/>
    <path data-name="Path 1541" d="M129.78 3272c-.047-.112-.129-.155-.3-.155h-2.08v-4.481a.594.594 0 0 0-.666-.662h-1.864a.6.6 0 0 0-.692.688v4.459h-2.1c-.163 0-.245.047-.292.159s-.013.189.1.3c.778.774 1.551 1.551 2.328 2.325.447.442.889.889 1.336 1.332a.373.373 0 0 0 .236.138.367.367 0 0 0 .228-.129l1.443-1.443q1.108-1.109 2.221-2.217c.122-.124.145-.214.102-.314zm-4 3.475-3.119-3.119.223-.013h.043a.844.844 0 0 1 .107 0h1.289c.258 0 .339-.078.339-.335v-4.8h2.26v4.79c0 .271.073.344.344.348h1.658z" transform="translate(-115.79 -3263.458)" style="fill:#026c9f"/>
</svg>
