<svg xmlns="http://www.w3.org/2000/svg" width="20" height="20" viewBox="0 0 20 20">
    <path style="fill:none" d="M0 0h20v20H0z"/>
    <path data-name="Path 1483" d="M5.215 17.858a3.894 3.894 0 0 1-.394-.125A1.624 1.624 0 0 1 3.8 16.23V1.816A1.618 1.618 0 0 1 4.747.233a1.673 1.673 0 0 1 .58-.149 7.978 7.978 0 0 1 .817-.009.258.258 0 0 1 .283.26.261.261 0 0 1-.288.255h-.747a1.114 1.114 0 0 0-1.058 1.281c.042-.028.079-.051.111-.074a1.6 1.6 0 0 1 .97-.329q1.4-.007 2.8 0a.662.662 0 0 1 .64.376.764.764 0 0 0 1.355.009.721.721 0 0 1 .687-.385c.835 0 1.666.009 2.5 0a1.864 1.864 0 0 1 1.318.441 3.748 3.748 0 0 0-.032-.441A1.1 1.1 0 0 0 13.555.6H7.526c-.278 0-.408-.088-.4-.269s.13-.251.4-.251h6.047a1.622 1.622 0 0 1 1.634 1.332 2.225 2.225 0 0 1 .028.432v3.805h4.218a.639.639 0 0 1 .733.733v6.251c0 .5-.223.724-.719.724h-4.232v2.715a1.632 1.632 0 0 1-1.374 1.773c-.009 0-.019.014-.028.019H11.61c-.107-.093-.2-.195-.139-.353s.2-.167.348-.167h1.722a1.416 1.416 0 0 0 .343-.037 1.067 1.067 0 0 0 .8-1.244 1.893 1.893 0 0 1-1.378.413q-3.829-.014-7.662 0a1.907 1.907 0 0 1-1.276-.4h-.032a1.108 1.108 0 0 0 1.109 1.262H9.96a3.241 3.241 0 0 1 .52.009.328.328 0 0 1 .237.158c.028.084-.037.195-.065.292-.009.023-.037.042-.051.06q-2.689-.001-5.386.001zm9.485-4.506h-2.8a.607.607 0 0 1-.664-.668v-1.666a.368.368 0 0 0-.2-.353 57.834 57.834 0 0 1-1.146-.687.509.509 0 0 1 0-.951c.385-.232.77-.469 1.16-.7a.344.344 0 0 0 .19-.339V6.373c0-.506.227-.733.729-.733H14.7c0-.079.009-.135.009-.19V3.18a1.105 1.105 0 0 0-1.193-1.188h-2.52a.41.41 0 0 0-.396.208 1.269 1.269 0 0 1-2.164-.05.309.309 0 0 0-.3-.162H5.547a1.121 1.121 0 0 0-1.23 1.23v11.494a1.132 1.132 0 0 0 1.244 1.239h8.061A1.082 1.082 0 0 0 14.7 15c.029-.539 0-1.082 0-1.648zM10.1 9.5c.413.246.8.487 1.2.715a.842.842 0 0 1 .455.8c-.009.538 0 1.077 0 1.615 0 .144.032.2.19.2q3.766-.007 7.536 0c.135 0 .186-.042.186-.181q-.007-3.153 0-6.3c0-.148-.056-.19-.195-.19q-3.759.007-7.522 0c-.153 0-.2.056-.2.2v1.685a.763.763 0 0 1-.39.691l-.418.251c-.269.171-.548.338-.842.514z" transform="translate(-2.117 .91)" style="fill:#026c9f"/>
    <path data-name="Path 1484" d="M121.912 22.794c0 .184-.1.294-.257.294a.263.263 0 0 1-.257-.3.27.27 0 0 1 .253-.289.265.265 0 0 1 .261.295z" transform="translate(-114.255 -20.49)" style="fill:#026c9f"/>
    <path data-name="Path 1485" d="M39.518 77.2a.251.251 0 0 1-.2.271.238.238 0 0 1-.294-.152 7.831 7.831 0 0 1-.2-.515c-.032-.087-.069-.129-.17-.129H37.28a.143.143 0 0 0-.161.115q-.083.241-.179.482a.262.262 0 0 1-.349.184.256.256 0 0 1-.133-.358l1.195-3.166a.33.33 0 0 1 .312-.23.335.335 0 0 1 .326.234q.6 1.571 1.195 3.143c.014.048.023.094.032.121zm-1.544-2.642c-.211.556-.4 1.071-.6 1.6h1.213a248.03 248.03 0 0 1-.613-1.603z" transform="translate(-33.254 -69.295)" style="fill:#026c9f"/>
    <path data-name="Path 1486" d="M38.9 259.691h-2.134a.885.885 0 0 1-.156 0 .244.244 0 0 1-.225-.239.239.239 0 0 1 .2-.262.561.561 0 0 1 .152-.009h4.328a.509.509 0 0 1 .119 0 .251.251 0 0 1 .234.266.241.241 0 0 1-.239.243c-.11.009-.216 0-.326 0l-1.953.001z" transform="translate(-33.204 -246.168)" style="fill:#026c9f"/>
    <path data-name="Path 1487" d="M38.884 296.315h-2.132a.7.7 0 0 1-.17-.009.254.254 0 0 1 .028-.5 1.035 1.035 0 0 1 .119 0h4.434a.251.251 0 0 1 .257.243.247.247 0 0 1-.253.266c-.165.009-.331 0-.5 0z" transform="translate(-33.204 -281.093)" style="fill:#026c9f"/>
    <path data-name="Path 1488" d="M38.178 223.077h-1.461c-.156 0-.271-.051-.3-.221s.092-.294.308-.3h2.899a.284.284 0 0 1 .294.165c.074.179-.051.349-.271.349-.485.007-.977.007-1.469.007z" transform="translate(-33.233 -211.249)" style="fill:#026c9f"/>
    <path data-name="Path 1489" d="M37.566 186.715h-.753c-.207 0-.312-.1-.312-.262s.106-.253.317-.253h1.507c.211 0 .317.087.322.248s-.106.262-.326.266c-.254.005-.507.001-.755.001z" transform="translate(-33.315 -176.581)" style="fill:#026c9f"/>
    <path data-name="Path 1490" d="M197.685 160.253v1.512a.5.5 0 0 1-.234.482.494.494 0 0 1-.551-.041c-.377-.23-.753-.459-1.139-.675a.7.7 0 0 0-.322-.087c-.262-.014-.528 0-.79 0a.471.471 0 0 1-.519-.524v-1.36a.486.486 0 0 1 .533-.533 3.846 3.846 0 0 1 .515 0 1.236 1.236 0 0 0 .836-.23c.294-.2.606-.372.914-.547a.468.468 0 0 1 .749.423c.012.527.008 1.051.008 1.58zm-.524-1.539c-.4.239-.776.459-1.149.689-.037.023-.055.106-.055.165 0 .326.028.657-.009.979a.644.644 0 0 0 .432.753 7.354 7.354 0 0 1 .781.459zm-1.737 2.2v-1.364h-.758v1.365z" transform="translate(-183.585 -149.823)" style="fill:#026c9f"/>
    <path data-name="Path 1491" d="M294.863 165.771a1.985 1.985 0 0 1-1.094 1.76c-.179.1-.322.06-.4-.083s-.018-.276.161-.372a1.452 1.452 0 0 0 0-2.6c-.175-.092-.23-.221-.165-.358a.263.263 0 0 1 .4-.1 1.976 1.976 0 0 1 1.098 1.753z" transform="translate(-278.186 -155.364)" style="fill:#026c9f"/>
    <path data-name="Path 1492" d="M283.088 184.795a1 1 0 0 1-.423.763.26.26 0 0 1-.381-.037.25.25 0 0 1 .06-.363.5.5 0 0 0 0-.855.257.257 0 1 1 .317-.4 1.062 1.062 0 0 1 .427.892z" transform="translate(-267.619 -174.32)" style="fill:#026c9f"/>
</svg>
