<svg xmlns="http://www.w3.org/2000/svg" width="20" height="20" viewBox="0 0 20 20">
    <path style="fill:none" d="M0 0h20v20H0z"/>
    <g data-name="emphasis">
        <path data-name="Path 11273" d="M17.942 4.584c-2.4.477-5.117 1.017-7.731 1.53a.325.325 0 0 0-.067.018h-.01a.384.384 0 0 0-.007.093v9.405l-.3-.191a2.565 2.565 0 0 0-1.212-.418c-.06 0-.12-.006-.179-.006A2.491 2.491 0 0 0 7.77 19.9c.078.023.161.043.24.063l.025.006.1.026h.591l.079-.019.034-.008c.091-.02.184-.041.272-.069a2.452 2.452 0 0 0 1.783-2 2.111 2.111 0 0 0 .034-.414v-7.108l8.2-1.629v4.424l-.281-.134-.049-.023a1.178 1.178 0 0 1-.107-.054 2.511 2.511 0 0 0-1.239-.328 2.488 2.488 0 1 0 2.422 3.049q.028-.129.054-.261l.021-.1V4.184zM9.638 18.7a1.675 1.675 0 0 1-1.191.5h-.005a1.691 1.691 0 0 1-1.194-2.878 1.661 1.661 0 0 1 1.188-.5A1.7 1.7 0 0 1 10.13 17.5a1.668 1.668 0 0 1-.492 1.2zm1.3-9.139v-2.77l8.192-1.626V7.93zm6.515 7.254a1.664 1.664 0 0 1-1.189-.5 1.69 1.69 0 0 1 1.191-2.88 1.688 1.688 0 0 1-.005 3.376z" style="fill:#026c9f" transform="translate(.024)"/>
        <path data-name="Path 11274" d="M8.043 4.586a3.1 3.1 0 0 0-1.055-2.237l-.388-.34c-.294-.258-.6-.526-.9-.785l-.068-.061-.039-.043-.02-.02-.061-.063c-.02-.021-.04-.037-.058-.063S5.416.931 5.4.91 5.365.868 5.349.846L5.34.835 5.3.781 5.265.727 5.211.642C5.2.627 5.194.611 5.186.595L5.153.53 5.139.5c0-.01-.012-.027-.017-.041L5.109.427A1.48 1.48 0 0 1 5.065.3l-.02-.075a2.44 2.44 0 0 1-.016-.073A.18.18 0 0 0 4.854 0h-.51a.178.178 0 0 0-.177.177v8.3a.752.752 0 0 1-.011.114.447.447 0 0 1-.007.048.178.178 0 0 1-.264.131l-.073-.039-.112-.068A2.505 2.505 0 0 0 .179 11.8a2.53 2.53 0 0 0 2.327 1.579 2.465 2.465 0 0 0 .461-.044A2.51 2.51 0 0 0 5 10.868v-8.7a.178.178 0 0 1 .09-.154l.066-.038A.177.177 0 0 1 5.369 2c.132.127.268.253.4.379.333.313.678.637.993.981a1.612 1.612 0 0 1 .364.805 8.85 8.85 0 0 1 .089 1.055c0 .1.009.2.014.306.008.149.006.3 0 .444v.021h.64a.177.177 0 0 0 .177-.176v-.148c.013-.373.018-.728-.003-1.081zm-4.362 7.463a1.645 1.645 0 0 1-1.177.49A1.671 1.671 0 0 1 2.5 9.2a1.671 1.671 0 0 1 1.179 2.85z" style="fill:#026c9f" transform="translate(.024)"/>
    </g>
</svg>
