<svg id="filter" xmlns="http://www.w3.org/2000/svg" width="20.006" height="20" viewBox="0 0 20.006 20">
  <path id="Path_1400" data-name="Path 1400" d="M-747.1,519.564a2.042,2.042,0,0,1,.84-1.619,1.833,1.833,0,0,1,1.066-.374c.734-.012,1.47-.035,2.2,0a1.967,1.967,0,0,1,1.9,1.874c0,.03.008.06.015.115h.254c.89,0,1.781,0,2.671,0a.993.993,0,0,1,1.058.982.991.991,0,0,1-1.047,1.019c-.891.007-1.781,0-2.672,0h-.238a7.027,7.027,0,0,1-.173.7,1.933,1.933,0,0,1-1.763,1.285c-.656.018-1.312.009-1.968.008a2.015,2.015,0,0,1-2.144-1.992h-.288c-2.851,0-5.7,0-8.553-.007a1.515,1.515,0,0,1-.669-.158.951.951,0,0,1-.45-1.087,1.008,1.008,0,0,1,.914-.751c.078,0,.156,0,.234,0h8.814Zm3.992,1.994v-1.978h-1.959v1.978Z" transform="translate(757.092 -503.563)" fill="#026c9f"/>
  <path id="Path_1401" data-name="Path 1401" d="M-744.991,296.107c.018-.144.025-.26.048-.373a1.973,1.973,0,0,1,1.919-1.614c.672-.015,1.344-.011,2.016,0a1.974,1.974,0,0,1,2.016,1.8c.007.054.018.107.031.19.318,0,.636-.007.954,0a1,1,0,0,1,.966,1.342,1,1,0,0,1-.935.658c-.327.006-.655,0-.987,0-.012.078-.023.139-.031.2a1.937,1.937,0,0,1-1.835,1.781,17.508,17.508,0,0,1-2.365-.008,1.931,1.931,0,0,1-1.778-1.835c0-.038-.009-.075-.018-.138h-10.924a.993.993,0,0,1-1.065-1.023.973.973,0,0,1,.809-.953,2.123,2.123,0,0,1,.373-.026h10.8Zm4,.018h-1.98V298.1h1.98Z" transform="translate(756.984 -294.11)" fill="#026c9f"/>
  <path id="Path_1402" data-name="Path 1402" d="M-747.067,409.871a2.04,2.04,0,0,1-.928,1.683,1.942,1.942,0,0,1-1.085.32c-.656,0-1.312,0-1.969,0a2,2,0,0,1-2.024-1.851c0-.039-.007-.077-.015-.152h-.248c-.93,0-1.859.005-2.789-.006a.974.974,0,0,1-.928-.758.97.97,0,0,1,.485-1.095,1.405,1.405,0,0,1,.583-.128c.875-.013,1.75-.006,2.625-.006h.25a6.393,6.393,0,0,1,.135-.632,1.983,1.983,0,0,1,1.854-1.369c.672-.01,1.344-.007,2.016,0a2,2,0,0,1,2.021,1.828c.005.046.008.093.016.174h.272q4.277,0,8.554,0a1.648,1.648,0,0,1,.507.061.978.978,0,0,1,.643,1.1.987.987,0,0,1-.915.828c-.1.006-.2,0-.3,0h-8.758Zm-2.024-1.977h-1.962v1.961h1.962Z" transform="translate(757.079 -398.874)" fill="#026c9f"/>
</svg>
