<svg id="forgotpass" xmlns="http://www.w3.org/2000/svg" width="20.858" height="18.633" viewBox="0 0 20.858 18.633">
  <path id="Path_1306" data-name="Path 1306" d="M733-626.734c.026-.083.053-.165.078-.248a1.825,1.825,0,0,1,1.687-1.307c.068,0,.136,0,.2,0q8.462,0,16.923,0a1.807,1.807,0,0,1,1.778,1.055,1.882,1.882,0,0,1,.179.785q.017,5.888.005,11.776a1.818,1.818,0,0,1-1.879,1.838c-1.188.007-2.376,0-3.564,0-1.453,0-2.905,0-4.358,0a.278.278,0,0,0-.324.229,4.215,4.215,0,0,1-3.107,2.78,5.461,5.461,0,0,1-1.715.166.376.376,0,0,1-.365-.21.351.351,0,0,1,.086-.41,4.321,4.321,0,0,0,1.144-2.849c.007-.254.164-.408.372-.393s.324.17.32.417a4.933,4.933,0,0,1-.746,2.529q-.053.087-.1.175s0,.013,0,.036a4.294,4.294,0,0,0,1.812-.52,3.336,3.336,0,0,0,1.735-2.274c.067-.3.164-.369.488-.369q4.134,0,8.268,0a1.2,1.2,0,0,0,.921-.351,1.2,1.2,0,0,0,.321-.875q0-5.48,0-10.959c0-.231,0-.463,0-.694a1.132,1.132,0,0,0-1.181-1.181q-3.106,0-6.211,0c-3.591,0-7.182.012-10.773-.009a1.24,1.24,0,0,0-1.312,1.314c.019,3.843.008,7.687.009,11.531a1.138,1.138,0,0,0,.858,1.186,1.6,1.6,0,0,0,.383.035c.869,0,1.738,0,2.607,0,.061,0,.122,0,.183,0a.358.358,0,0,1,.359.366.344.344,0,0,1-.372.327c-.977,0-1.955.014-2.932,0a1.8,1.8,0,0,1-1.74-1.447.922.922,0,0,0-.04-.111Z" transform="translate(-733 628.295)" fill="#fff"/>
  <path id="Path_1307" data-name="Path 1307" d="M864.685-523.658v1.045h.885c.1,0,.191-.005.285,0a.34.34,0,0,1,.333.363.328.328,0,0,1-.344.328c-.379.006-.759,0-1.154,0v1.052h.21c.482,0,.964,0,1.446,0,.263,0,.41.129.409.347s-.155.346-.414.347q-.967,0-1.935,0c-.3,0-.424-.126-.425-.421q0-1.673,0-3.347c0-.285.122-.413.41-.415q.977-.007,1.955,0c.263,0,.41.136.409.353s-.147.341-.415.343c-.475,0-.95,0-1.426,0Z" transform="translate(-856.853 530.013)" fill="#fff"/>
  <path id="Path_1308" data-name="Path 1308" d="M794.358-522.48h1.27c.033,0,.065,0,.119-.008,0-.423,0-.836,0-1.249a.808.808,0,0,1,.033-.26.311.311,0,0,1,.352-.214.317.317,0,0,1,.3.284,1.124,1.124,0,0,1,.008.183q0,1.612,0,3.224c0,.041,0,.082,0,.122a.349.349,0,0,1-.341.359.352.352,0,0,1-.349-.353c-.01-.2,0-.408,0-.612,0-.251,0-.5,0-.766h-1.389c0,.284,0,.561,0,.838,0,.19.006.381,0,.571a.343.343,0,0,1-.335.322.355.355,0,0,1-.347-.289.864.864,0,0,1-.008-.163q0-1.643,0-3.286c0-.034,0-.068,0-.1a.348.348,0,0,1,.361-.339.337.337,0,0,1,.329.347c.007.381,0,.762,0,1.143Z" transform="translate(-790.363 529.88)" fill="#fff"/>
  <path id="Path_1309" data-name="Path 1309" d="M1005.267-521.507c0,.36.007.686,0,1.012-.008.287-.255.47-.477.34a.447.447,0,0,1-.2-.313c-.015-1.156-.011-2.312-.008-3.467a.311.311,0,0,1,.317-.353,8.086,8.086,0,0,1,1.379.039,1.357,1.357,0,0,1,1.074,1.473,1.4,1.4,0,0,1-1.385,1.267C1005.739-521.5,1005.516-521.507,1005.267-521.507Zm.008-.685a7.487,7.487,0,0,0,.89-.053.661.661,0,0,0,.491-.649.663.663,0,0,0-.493-.667,7.264,7.264,0,0,0-.887-.05Z" transform="translate(-989.796 529.957)" fill="#fff"/>
  <path id="Path_1310" data-name="Path 1310" d="M934.983-520.737h.362c.455,0,.909,0,1.364,0a.335.335,0,0,1,.355.34.353.353,0,0,1-.349.352c-.02,0-.041,0-.061,0-.651,0-1.3,0-1.954,0-.284,0-.41-.128-.41-.413q0-1.683,0-3.365c0-.245.133-.4.337-.4s.355.153.355.407c0,.945,0,1.89,0,2.835Z" transform="translate(-923.335 529.883)" fill="#fff"/>
</svg>
