<svg id="google" xmlns="http://www.w3.org/2000/svg" width="56" height="56" viewBox="0 0 56 56">
  <g id="back" fill="#fff" stroke="#fff" stroke-width="1">
    <rect width="56" height="56" rx="5" stroke="none"/>
    <rect x="0.5" y="0.5" width="55" height="55" rx="4.5" fill="none"/>
  </g>
  <g id="icon" transform="translate(-49 -153.763)">
    <path id="Path_1606" data-name="Path 1606" d="M51.225,8.351,54.5,5.081,54.714,3.7A14.734,14.734,0,0,0,33.907,4.986a15.12,15.12,0,0,0-3.19,5.975l1.171-.165L38.43,9.717l.505-.516a8.194,8.194,0,0,1,11.189-.907Z" transform="translate(31.985 166.639)" fill="#ea4335"/>
    <path id="Path_1607" data-name="Path 1607" d="M137.02,32.357a14.734,14.734,0,0,0-4.441-7.161l-4.59,4.59a8.159,8.159,0,0,1,3,6.472v.815a4.063,4.063,0,1,1,0,8.125H122.8l-.8.872v4.9l.8.769h8.182a10.6,10.6,0,0,0,6.036-19.383" transform="translate(-45.88 145.146)" fill="#4285f4"/>
    <path id="Path_1608" data-name="Path 1608" d="M34.638,165.7h8.171v-6.541H34.638a4.008,4.008,0,0,1-1.675-.367l-1.16.355L28.51,162.42l-.287,1.113a10.6,10.6,0,0,0,6.415,2.169" transform="translate(34.112 31.184)" fill="#34a853"/>
    <path id="Path_1609" data-name="Path 1609" d="M10.563,61.425a10.627,10.627,0,0,0-6.415,19.05l4.74-4.739a4.085,4.085,0,1,1,5.405-5.405l4.74-4.74a10.615,10.615,0,0,0-8.469-4.166" transform="translate(58.187 114.242)" fill="#fbbc05"/>
  </g>
</svg>
