<svg xmlns="http://www.w3.org/2000/svg" width="144.237" height="29.066" viewBox="0 0 144.237 29.066">
    <defs>
        <linearGradient id="vtpckinyza" y1=".009" x2="1" y2="1" gradientUnits="objectBoundingBox">
            <stop offset="0" stop-color="#05a6e8"/>
            <stop offset="1" stop-color="#003e64"/>
        </linearGradient>
    </defs>
    <path data-name="Path 1" d="M101.933-605.8a9.84 9.84 0 0 1-1.882-5.8v-5.539a1.351 1.351 0 0 0-1.337-1.357 1.311 1.311 0 0 0-.9.385 1.306 1.306 0 0 0-.385.927v5.583a12.468 12.468 0 0 0 3.56 8.74.292.292 0 0 0 .412 0 .291.291 0 0 0 .082-.152c.152-.768.421-2.145.5-2.562a.284.284 0 0 0-.05-.225z" transform="translate(-97.427 623.501)" style="fill:#003152"/>
    <path data-name="Path 2" d="M160.405-617.145v5.537a12.512 12.512 0 0 1-11.546 12.474v2.073h2.086a1.312 1.312 0 0 1 1.312 1.312 1.305 1.305 0 0 1-.385.927 1.3 1.3 0 0 1-.927.385h-6.44a1.312 1.312 0 0 1-1.312-1.312 1.306 1.306 0 0 1 .385-.927 1.306 1.306 0 0 1 .927-.385h1.729v-2.105a12.386 12.386 0 0 1-4.629-1.429.292.292 0 0 1-.113-.4.292.292 0 0 1 .138-.126l2.532-1.115a.291.291 0 0 1 .21-.009 9.878 9.878 0 0 0 3.173.52h.348a9.886 9.886 0 0 0 9.886-9.886v-5.583a1.306 1.306 0 0 1 .385-.927 1.311 1.311 0 0 1 .9-.385 1.351 1.351 0 0 1 1.341 1.361z" transform="translate(-135.037 623.501)" style="fill:#003152"/>
    <path data-name="Path 3" d="M145.723-573.192v.088a7.476 7.476 0 0 1-7.476 7.476h-.674a7.551 7.551 0 0 1-1.067-.076l-5.617 2.474a.327.327 0 0 1-.432-.167.328.328 0 0 1-.022-.2l1.023-5.209a7.679 7.679 0 0 1-1.362-4.381v-.009h2.945a.43.43 0 0 1 .353.18 4.919 4.919 0 0 0 4.037 2.1h.608a4.919 4.919 0 0 0 4.157-2.283z" transform="translate(-125.334 584.797)" style="fill:url(#vtpckinyza)"/>
    <path data-name="Path 4" d="M145.723-645.316v1.739H130.1v-1.739c0-.22.009-.437.028-.652h12.767a4.924 4.924 0 0 0-4.852-4.084h-.608a4.919 4.919 0 0 0-3.716 1.693h-2.973a7.476 7.476 0 0 1 6.831-4.434h.674a7.478 7.478 0 0 1 7.449 6.825c.015.215.023.432.023.652z" transform="translate(-125.334 652.792)" style="fill:url(#vtpckinyza)"/>
    <g>
        <path data-name="Path 5" d="M371.844-590.466h-12.2a5.4 5.4 0 0 0 5.672 5.433 5.113 5.113 0 0 0 4.9-2.983l1.145.186a6.222 6.222 0 0 1-6.072 3.968 6.757 6.757 0 0 1-6.924-7.083 6.72 6.72 0 0 1 6.737-6.924c4.127 0 6.737 3.355 6.737 7.11zm-12.2-.985h10.891a5.385 5.385 0 0 0-5.432-5.246 5.373 5.373 0 0 0-5.455 5.246z" transform="translate(-320.326 605.876)" style="fill:url(#vtpckinyza)"/>
        <path data-name="Path 6" d="M465.947-620.75a4.218 4.218 0 0 0 4.474 3.835c2.636 0 4.287-1.385 4.287-3.408 0-2.45-2.157-3.675-4.554-4.793-2.823-1.385-5.086-2.477-5.086-5.566 0-2.61 2.317-4.447 5.166-4.447a4.946 4.946 0 0 1 5.006 4.58h-1.278a3.7 3.7 0 0 0-3.728-3.355c-2.13 0-3.888 1.331-3.888 3.249 0 2.5 1.944 3.3 4.154 4.341 3.062 1.438 5.486 2.982 5.486 6.018 0 2.8-2.29 4.607-5.565 4.607a5.488 5.488 0 0 1-5.752-5.06z" transform="translate(-411.127 637.705)" style="fill:url(#vtpckinyza)"/>
        <path data-name="Path 7" d="M469.507-616.4a5.641 5.641 0 0 1-5.9-5.2l-.01-.156h1.567l.012.133a4.082 4.082 0 0 0 4.328 3.7c2.516 0 4.141-1.281 4.141-3.263 0-2.379-2.114-3.562-4.469-4.661l-.053-.026c-2.859-1.4-5.117-2.51-5.117-5.672 0-2.618 2.284-4.593 5.312-4.593a5.07 5.07 0 0 1 5.152 4.714l.014.158h-1.567l-.015-.129a3.535 3.535 0 0 0-3.583-3.226c-2.133 0-3.742 1.334-3.742 3.1 0 2.3 1.673 3.087 3.792 4.078l.278.13c2.818 1.323 5.569 2.888 5.569 6.15.002 2.854-2.293 4.763-5.709 4.763zm-5.594-5.06a5.383 5.383 0 0 0 5.594 4.768c3.242 0 5.42-1.793 5.42-4.461 0-2.789-2.067-4.32-5.4-5.886l-.278-.13c-2.125-.994-3.96-1.852-3.96-4.342 0-1.935 1.734-3.395 4.034-3.395a3.813 3.813 0 0 1 3.856 3.355h.989a4.78 4.78 0 0 0-4.845-4.289c-2.862 0-5.02 1.849-5.02 4.3 0 2.98 2.186 4.052 4.954 5.41l.05.025c2.344 1.094 4.635 2.376 4.635 4.924 0 2.159-1.74 3.554-4.433 3.554a4.367 4.367 0 0 1-4.605-3.835z" transform="translate(-410.213 638.559)" style="fill:url(#vtpckinyza)"/>
        <path data-name="Path 8" d="M562.752-597.6h1.2l.08 3.622a6.526 6.526 0 0 1 6.018-3.888 6.984 6.984 0 0 1 6.977 6.977 7 7 0 0 1-6.977 7.03 6.506 6.506 0 0 1-6.018-3.914V-578h-1.278zm7.163 12.516a5.8 5.8 0 0 0 5.805-5.805 5.791 5.791 0 0 0-5.805-5.752 5.768 5.768 0 0 0-5.778 5.752 5.779 5.779 0 0 0 5.778 5.802z" transform="translate(-494.91 605.876)" style="fill:url(#vtpckinyza)"/>
        <path data-name="Path 9" d="M562.613-579.42h-1.861v-20.18h1.775l.062 2.807a6.859 6.859 0 0 1 5.751-3.073 7.277 7.277 0 0 1 7.268 7.268 7.3 7.3 0 0 1-7.268 7.322 6.842 6.842 0 0 1-5.727-3.053zm-1.278-.58h.7v-10.9l.559 1.3a6.231 6.231 0 0 0 5.75 3.738 6.72 6.72 0 0 0 6.685-6.739 6.693 6.693 0 0 0-6.685-6.685 6.243 6.243 0 0 0-5.751 3.713l-.53 1.217-.1-4.663h-.622zm6.872-6.5a6.091 6.091 0 0 1-6.07-6.1 6.064 6.064 0 0 1 6.07-6.043 6.077 6.077 0 0 1 6.1 6.043 6.1 6.1 0 0 1-6.1 6.1zm0-11.557a5.48 5.48 0 0 0-5.487 5.46 5.507 5.507 0 0 0 5.487 5.514 5.52 5.52 0 0 0 5.514-5.514 5.493 5.493 0 0 0-5.514-5.464z" transform="translate(-493.202 607.585)" style="fill:url(#vtpckinyza)"/>
        <path data-name="Path 10" d="M690.2-590.466H678a5.4 5.4 0 0 0 5.672 5.433 5.114 5.114 0 0 0 4.9-2.983l1.145.186a6.221 6.221 0 0 1-6.071 3.968 6.757 6.757 0 0 1-6.924-7.083 6.72 6.72 0 0 1 6.737-6.924c4.128 0 6.737 3.355 6.737 7.11zm-12.2-.985h10.891a5.385 5.385 0 0 0-5.432-5.246 5.373 5.373 0 0 0-5.459 5.246z" transform="translate(-592.265 605.876)" style="fill:url(#vtpckinyza)"/>
        <path data-name="Path 11" d="M681.085-585.987a7.2 7.2 0 0 1-7.361-7.521 7.48 7.48 0 0 1 2.01-5.181 7.028 7.028 0 0 1 5.164-2.18 7.206 7.206 0 0 1 7.175 7.547v.73h-12.166a4.934 4.934 0 0 0 5.2 4.558 4.693 4.693 0 0 0 4.5-2.716l.134-.315 1.988.324-.16.486a6.7 6.7 0 0 1-6.484 4.268zm-.186-14.007a6.255 6.255 0 0 0-6.3 6.486 6.352 6.352 0 0 0 6.486 6.646 5.924 5.924 0 0 0 5.464-3.186l-.282-.046a5.593 5.593 0 0 1-5.155 2.935 5.854 5.854 0 0 1-6.112-5.856l-.015-.452H687.2c-.068-3.191-2.271-6.527-6.3-6.527zm5.9 6.418h-11.813l.017-.453a5.8 5.8 0 0 1 5.9-5.667 5.815 5.815 0 0 1 5.869 5.658zm-10.882-.875h9.935a4.92 4.92 0 0 0-4.949-4.371 4.934 4.934 0 0 0-4.991 4.371z" transform="translate(-589.703 608.439)" style="fill:url(#vtpckinyza)"/>
        <path data-name="Path 12" d="M800.514-590.466h-12.2a5.4 5.4 0 0 0 5.672 5.433 5.113 5.113 0 0 0 4.9-2.983l1.145.186a6.221 6.221 0 0 1-6.071 3.968 6.757 6.757 0 0 1-6.924-7.083 6.72 6.72 0 0 1 6.737-6.924c4.127 0 6.737 3.355 6.737 7.11zm-12.2-.985h10.891a5.385 5.385 0 0 0-5.432-5.246 5.373 5.373 0 0 0-5.455 5.246z" transform="translate(-686.498 605.876)" style="fill:url(#vtpckinyza)"/>
        <path data-name="Path 13" d="M790.547-586.7a7.339 7.339 0 0 1-7.507-7.667 7.626 7.626 0 0 1 2.05-5.281 7.173 7.173 0 0 1 5.27-2.226 7.349 7.349 0 0 1 7.32 7.693v.876h-12.147a4.79 4.79 0 0 0 5.04 4.266 4.55 4.55 0 0 0 4.363-2.628l.179-.42 2.269.369-.213.648a6.843 6.843 0 0 1-6.624 4.37zm-.187-14a6.112 6.112 0 0 0-6.154 6.34 6.144 6.144 0 0 0 6.34 6.5 6.9 6.9 0 0 0 .862-.053 7.157 7.157 0 0 1-.835.048 5.994 5.994 0 0 1-6.255-6l-.014-.421h-.004v-.181l.016-.424a5.947 5.947 0 0 1 6.042-5.808 5.958 5.958 0 0 1 6.015 5.8l.025.436h.108c-.125-3.079-2.27-6.237-6.146-6.237zm-4.819 5.251h9.6a4.764 4.764 0 0 0-4.778-4.08 4.79 4.79 0 0 0-4.821 4.078z" transform="translate(-683.081 609.293)" style="fill:url(#vtpckinyza)"/>
        <path data-name="Path 14" d="M904.519-596.644a5.831 5.831 0 0 0-5.832 5.752 5.841 5.841 0 0 0 5.832 5.805 5.753 5.753 0 0 0 4.287-1.944v1.331a5.986 5.986 0 0 1-4.42 1.838 7.023 7.023 0 0 1-7.03-7.03 7.012 7.012 0 0 1 7.03-6.977 5.986 5.986 0 0 1 4.42 1.837v1.331a5.754 5.754 0 0 0-4.287-1.943z" transform="translate(-780.73 605.876)" style="fill:url(#vtpckinyza)"/>
        <path data-name="Path 15" d="M900.115-587.4a7.768 7.768 0 0 1-7.759-7.759 7.741 7.741 0 0 1 7.759-7.706 6.671 6.671 0 0 1 4.948 2.063l.2.211v3.443l-1.256-1.316a5.021 5.021 0 0 0-3.76-1.718 5.131 5.131 0 0 0-5.1 5.023 5.1 5.1 0 0 0 5.1 5.076 5.021 5.021 0 0 0 3.76-1.718l1.256-1.316v3.443l-.2.211a6.671 6.671 0 0 1-4.948 2.063z" transform="translate(-776.459 610.147)" style="fill:url(#vtpckinyza)"/>
        <path data-name="Path 16" d="M1010.993-628.439v7.8h-1.278v-7.4c0-3.595-1.784-5.113-4.128-5.113-3.914 0-5.139 3.515-5.219 5.139v7.376h-1.278v-19.972h1.278v9.4a6.344 6.344 0 0 1 5.566-3.169c2.982 0 5.059 1.997 5.059 5.939z" transform="translate(-867.632 642.385)" style="fill:url(#vtpckinyza)"/>
        <path data-name="Path 17" d="M1006.744-624.887h-3.028v-8.278c0-1.933-.564-4.238-3.253-4.238a4.4 4.4 0 0 0-4.345 4.287v8.228h-3.028v-21.722h3.028v7.914a7.122 7.122 0 0 1 4.691-1.683c3.66 0 5.934 2.611 5.934 6.813z" transform="translate(-862.507 647.51)" style="fill:url(#vtpckinyza)"/>
    </g>
</svg>
