<svg xmlns="http://www.w3.org/2000/svg" width="24.799" height="25.009" viewBox="0 0 24.799 25.009">
    <path data-name="Path 11244" d="M23.8 8.244A3.569 3.569 0 0 0 21.822 4.9q-4.093-2.23-8.2-4.436a3.466 3.466 0 0 0-3.44-.011Q6.012 2.7 1.868 4.992a3.453 3.453 0 0 0-1.86 3.189C0 12.237 0 16.292.006 20.348a3.71 3.71 0 0 0 .077.76A3.612 3.612 0 0 0 3.721 24q4.1.007 8.2 0H20a4.438 4.438 0 0 0 .982-.092 3.6 3.6 0 0 0 2.818-3.621V8.244m-2.114 4.295v7.746a1.492 1.492 0 0 1-1.179 1.558 2.565 2.565 0 0 1-.513.038H3.725a1.5 1.5 0 0 1-1.575-1.22 1.638 1.638 0 0 1-.03-.322V19.2c0-3.609-.009-7.341 0-11.009a1.364 1.364 0 0 1 .772-1.348 721.262 721.262 0 0 1 8.292-4.529 1.477 1.477 0 0 1 .7-.2 1.551 1.551 0 0 1 .735.21c2.433 1.3 5.035 2.711 8.188 4.428a1.471 1.471 0 0 1 .875 1.492z" transform="translate(.5 .509)" style="fill:rgba(255,255,255,.3);stroke:transparent"/>
    <path data-name="Path 11245" d="M114.1 223.967a4.771 4.771 0 0 1-4.648-3.694.807.807 0 1 1 1.562-.382 3.173 3.173 0 0 0 6.151.176c.028-.1.05-.209.084-.31a.779.779 0 0 1 .894-.531.74.74 0 0 1 .611.786 3.65 3.65 0 0 1-.225.906 4.758 4.758 0 0 1-4.43 3.05" transform="translate(-101.699 -204.219)" style="fill:rgba(255,255,255,.3);stroke:transparent"/>
</svg>
