<svg id="ibm" xmlns="http://www.w3.org/2000/svg" width="56" height="56" viewBox="0 0 56 56">
  <g id="back" fill="#fff" stroke="#fff" stroke-width="1">
    <rect width="56" height="56" rx="5" stroke="none"/>
    <rect x="0.5" y="0.5" width="55" height="55" rx="4.5" fill="none"/>
  </g>
  <path id="icon" d="M7.31,13.955V15H0V13.955Zm11.423,0A3.958,3.958,0,0,1,16.043,15l-7.689-.01V13.955Zm10.869,0L29.237,15l-.361-1.044Zm-3.5,0V15H20.885V13.955h5.221Zm11.487,0V15H32.371V13.955ZM19.916,11.961a3.96,3.96,0,0,1-.42,1.044H8.354V11.961Zm10.386,0-.366,1.044H28.542l-.367-1.044Zm-4.2,0v1.044H20.885V11.961h5.221Zm11.487,0v1.044H32.371V11.961Zm-30.283,0v1.044H0V11.961ZM5.221,9.968v1.044H2.088V9.968H5.221Zm8.354,0v1.044H10.442V9.968h3.133Zm6.316,0a3.988,3.988,0,0,1,.14,1.044H16.518V9.968ZM31,9.968l-.367,1.044H27.842l-.367-1.044H31Zm-4.9,0v1.044H22.973V9.968h3.133Zm9.4,0v1.044H32.371V9.968H35.5ZM5.221,7.974V9.018H2.088V7.974H5.221Zm20.885,0V9.018H22.973V7.974Zm9.4,0V9.018H32.371V7.974Zm-16.881,0a4,4,0,0,1,.871,1.044H10.442V7.974Zm13.078,0-.367,1.044H27.143l-.367-1.044H31.7ZM28.945,5.981l.294.844.293-.844H35.5V7.025H32.371V6.065l-.337.959H26.443l-.337-.96v.96H22.973V5.981h5.972Zm-18.5,0h9.052a4,4,0,0,1-.871,1.044H10.442V5.981Zm-5.221,0V7.025H2.088V5.981H5.221Zm0-1.994V5.031H2.088V3.987H5.221Zm8.354,0V5.031H10.442V3.987Zm6.455,0a3.988,3.988,0,0,1-.14,1.044H16.518V3.987Zm8.221,0,.363,1.044H22.973V3.987h5.279Zm7.252,0V5.031H29.862l.363-1.044H35.5ZM7.31,1.993V3.038H0V1.993H7.31Zm12.186,0a3.961,3.961,0,0,1,.42,1.044H8.354V1.993Zm18.1,0V3.038H30.555l.363-1.044h6.674Zm-10.034,0,.363,1.044H20.885V1.993h6.674ZM7.31,0V1.044H0V0H7.31Zm8.734,0a3.972,3.972,0,0,1,2.69,1.044H8.354V0ZM37.593,0V1.044H31.249L31.612,0h5.981ZM26.865,0l.363,1.044H20.885V0h5.981Z" transform="translate(9.204 20.5)"/>
</svg>
