<svg id="login_logo" xmlns="http://www.w3.org/2000/svg" width="159.841" height="196.192" viewBox="0 0 159.841 196.192">
  <g id="icon" transform="translate(-107.745 -92.904)">
    <path id="Path_1" data-name="Path 1" d="M-135.067-212.551a43.5,43.5,0,0,1-8.321-25.653V-262.69a5.971,5.971,0,0,0-5.91-6,5.793,5.793,0,0,0-3.99,1.7,5.772,5.772,0,0,0-1.7,4.1v24.679a55.12,55.12,0,0,0,15.74,38.64,1.29,1.29,0,0,0,2.185-.657c.67-3.4,1.863-9.481,2.224-11.325A1.257,1.257,0,0,0-135.067-212.551Z" transform="translate(286.939 383.696)" fill="#fff"/>
    <path id="Path_2" data-name="Path 2" d="M-27.189-262.69v24.48a55.314,55.314,0,0,1-51.041,55.147v9.165h9.223a5.8,5.8,0,0,1,5.8,5.8,5.772,5.772,0,0,1-1.7,4.1,5.771,5.771,0,0,1-4.1,1.7H-97.477a5.8,5.8,0,0,1-5.8-5.8,5.772,5.772,0,0,1,1.7-4.1,5.772,5.772,0,0,1,4.1-1.7h7.644v-9.307a54.769,54.769,0,0,1-20.464-6.316,1.293,1.293,0,0,1,.11-2.314l11.2-4.931a1.283,1.283,0,0,1,.928-.039,43.706,43.706,0,0,0,14.025,2.3h1.54A43.707,43.707,0,0,0-38.791-238.21V-262.89a5.772,5.772,0,0,1,1.7-4.1,5.793,5.793,0,0,1,3.99-1.7A5.971,5.971,0,0,1-27.189-262.69Z" transform="translate(271.288 383.696)" fill="#fff"/>
    <path id="Path_3" data-name="Path 3" d="M-53.238-223.38v.387A33.053,33.053,0,0,1-86.29-189.941h-2.978a33.459,33.459,0,0,1-4.718-.335l-24.834,10.938a1.448,1.448,0,0,1-2-1.6l4.525-23.029a32.867,32.867,0,0,1-6.02-19.02v-.387h14.051a21.747,21.747,0,0,0,18.376,10.093h2.688A21.747,21.747,0,0,0-68.83-223.38Z" transform="translate(275.326 367.59)" fill="#fff"/>
    <path id="Path_4" data-name="Path 4" d="M-53.238-269.928v7.689H-122.32v-7.689c0-.973.039-1.934.122-2.881h56.442a21.767,21.767,0,0,0-21.45-18.054h-2.688a21.743,21.743,0,0,0-16.429,7.483h-13.142a33.051,33.051,0,0,1,30.2-19.6h2.978a33.06,33.06,0,0,1,32.93,30.171C-53.277-271.862-53.238-270.9-53.238-269.928Z" transform="translate(275.326 395.884)" fill="#fff"/>
  </g>
  <g id="text" transform="translate(-107.745 -92.904)">
    <path id="Path_5" data-name="Path 5" d="M378.651-586.726H360.294a8.122,8.122,0,0,0,8.538,8.177,7.7,7.7,0,0,0,7.375-4.489l1.724.28a9.365,9.365,0,0,1-9.139,5.972c-5.932,0-10.421-4.329-10.421-10.662a10.114,10.114,0,0,1,10.141-10.421c6.213,0,10.141,5.05,10.141,10.7Zm-18.358-1.483h16.394a8.1,8.1,0,0,0-8.177-7.9A8.087,8.087,0,0,0,360.294-588.209Z" transform="translate(-250.625 856.625)" fill="#fff"/>
    <path id="Path_6" data-name="Path 6" d="M466.593-613.485c.361,3.928,3.567,5.772,6.734,5.772,3.968,0,6.453-2.084,6.453-5.13,0-3.688-3.247-5.532-6.854-7.215-4.249-2.084-7.656-3.728-7.656-8.377,0-3.928,3.487-6.694,7.776-6.694a7.444,7.444,0,0,1,7.535,6.894h-1.924a5.564,5.564,0,0,0-5.612-5.05c-3.206,0-5.852,2-5.852,4.89,0,3.768,2.926,4.97,6.253,6.534,4.609,2.164,8.257,4.489,8.257,9.059,0,4.209-3.447,6.934-8.377,6.934-4.409,0-8.337-2.886-8.658-7.616Z" transform="translate(-333.596 885.708)" fill="#fff"/>
    <path id="Path_7" data-name="Path 7" d="M472.492-606.431c-4.836,0-8.57-3.289-8.877-7.82l-.016-.234h2.359l.018.2c.353,3.849,3.527,5.573,6.515,5.573,3.787,0,6.234-1.928,6.234-4.911,0-3.58-3.182-5.362-6.728-7.016l-.08-.039c-4.3-2.111-7.7-3.778-7.7-8.537,0-3.941,3.437-6.913,8-6.913a7.632,7.632,0,0,1,7.754,7.1l.02.238h-2.359l-.022-.195a5.32,5.32,0,0,0-5.394-4.856c-3.211,0-5.632,2.008-5.632,4.671,0,3.469,2.519,4.647,5.708,6.138l.419.2c4.242,1.992,8.383,4.347,8.383,9.257C481.088-609.306,477.634-606.431,472.492-606.431Zm-8.42-7.616c.445,4.713,4.54,7.177,8.42,7.177,4.879,0,8.158-2.7,8.158-6.715,0-4.2-3.111-6.5-8.131-8.86l-.419-.2c-3.2-1.5-5.96-2.788-5.96-6.536,0-2.913,2.61-5.11,6.071-5.11a5.739,5.739,0,0,1,5.8,5.05H479.5a7.194,7.194,0,0,0-7.293-6.455c-4.308,0-7.557,2.784-7.557,6.474,0,4.485,3.291,6.1,7.457,8.143l.076.037c3.528,1.647,6.977,3.577,6.977,7.412,0,3.25-2.619,5.35-6.673,5.35-3.136,0-6.464-1.787-6.932-5.772Z" transform="translate(-332.761 886.489)" fill="#fff"/>
    <path id="Path_8" data-name="Path 8" d="M562.752-597.468h1.8l.12,5.451a9.822,9.822,0,0,1,9.059-5.852,10.512,10.512,0,0,1,10.5,10.5,10.529,10.529,0,0,1-10.5,10.582,9.793,9.793,0,0,1-9.059-5.892v14.71h-1.924Zm10.782,18.839a8.733,8.733,0,0,0,8.738-8.738,8.716,8.716,0,0,0-8.738-8.658,8.681,8.681,0,0,0-8.7,8.658A8.7,8.7,0,0,0,573.534-578.63Z" transform="translate(-410.155 856.625)" fill="#fff"/>
    <path id="Path_9" data-name="Path 9" d="M563.554-569.09h-2.8v-30.378h2.672l.093,4.224a10.324,10.324,0,0,1,8.656-4.625,10.953,10.953,0,0,1,10.941,10.94,10.993,10.993,0,0,1-10.941,11.021,10.3,10.3,0,0,1-8.62-4.6Zm-1.924-.878h1.046v-16.4l.842,1.957a9.379,9.379,0,0,0,8.656,5.627,10.114,10.114,0,0,0,10.063-10.143,10.074,10.074,0,0,0-10.063-10.063,9.4,9.4,0,0,0-8.656,5.588l-.8,1.831-.155-7.019h-.936Zm10.343-9.784a9.168,9.168,0,0,1-9.137-9.177,9.127,9.127,0,0,1,9.137-9.1,9.147,9.147,0,0,1,9.177,9.1A9.187,9.187,0,0,1,571.973-579.752Zm0-17.4a8.248,8.248,0,0,0-8.259,8.219,8.289,8.289,0,0,0,8.259,8.3,8.308,8.308,0,0,0,8.3-8.3A8.268,8.268,0,0,0,571.973-597.147Z" transform="translate(-408.594 858.186)" fill="#fff"/>
    <path id="Path_10" data-name="Path 10" d="M697-586.726H678.647a8.122,8.122,0,0,0,8.538,8.177,7.7,7.7,0,0,0,7.375-4.489l1.723.28a9.365,9.365,0,0,1-9.139,5.972c-5.932,0-10.422-4.329-10.422-10.662a10.115,10.115,0,0,1,10.141-10.421c6.213,0,10.141,5.05,10.141,10.7Zm-18.358-1.483h16.394a8.105,8.105,0,0,0-8.177-7.9A8.087,8.087,0,0,0,678.647-588.209Z" transform="translate(-499.115 856.625)" fill="#fff"/>
    <path id="Path_11" data-name="Path 11" d="M684.8-578.469c-6.42,0-11.08-4.761-11.08-11.32a11.26,11.26,0,0,1,3.026-7.8,10.579,10.579,0,0,1,7.773-3.282c6.157,0,10.8,4.884,10.8,11.36v1.1H677.01c.428,4.132,3.5,6.86,7.834,6.86a7.065,7.065,0,0,0,6.77-4.089l.2-.475,2.993.487-.24.732A10.079,10.079,0,0,1,684.8-578.469Zm-.281-21.083a9.414,9.414,0,0,0-9.482,9.763c0,5.8,4.106,10,9.763,10a8.917,8.917,0,0,0,8.224-4.8l-.425-.069a8.419,8.419,0,0,1-7.759,4.418,8.811,8.811,0,0,1-9.2-8.814l-.022-.68H694C693.906-594.53,690.59-599.552,684.523-599.552Zm8.874,9.66H675.623l.025-.683a8.735,8.735,0,0,1,8.875-8.53,8.753,8.753,0,0,1,8.834,8.517Zm-16.379-1.317h14.955a7.406,7.406,0,0,0-7.449-6.58A7.427,7.427,0,0,0,677.018-591.209Z" transform="translate(-496.774 858.966)" fill="#fff"/>
    <path id="Path_12" data-name="Path 12" d="M807.322-586.726H788.964a8.122,8.122,0,0,0,8.538,8.177,7.7,7.7,0,0,0,7.375-4.489l1.723.28a9.364,9.364,0,0,1-9.139,5.972c-5.932,0-10.421-4.329-10.421-10.662a10.114,10.114,0,0,1,10.141-10.421c6.213,0,10.141,5.05,10.141,10.7Zm-18.358-1.483h16.394a8.1,8.1,0,0,0-8.177-7.9A8.088,8.088,0,0,0,788.964-588.209Z" transform="translate(-585.222 856.625)" fill="#fff"/>
    <path id="Path_13" data-name="Path 13" d="M794.339-579.03c-6.547,0-11.3-4.853-11.3-11.54a11.478,11.478,0,0,1,3.086-7.949,10.8,10.8,0,0,1,7.932-3.35c6.282,0,11.019,4.978,11.019,11.58v1.319H786.793a7.21,7.21,0,0,0,7.587,6.421,6.849,6.849,0,0,0,6.568-3.955l.269-.633,3.416.556-.321.976A10.3,10.3,0,0,1,794.339-579.03Zm-.28-21.083a9.2,9.2,0,0,0-9.263,9.544c0,5.761,3.924,9.784,9.544,9.784a10.384,10.384,0,0,0,1.3-.08,10.8,10.8,0,0,1-1.257.072,9.022,9.022,0,0,1-9.415-9.026l-.021-.634h-.013l.007-.183,0-.09h.006l.023-.638a8.951,8.951,0,0,1,9.094-8.742,8.968,8.968,0,0,1,9.053,8.723l.038.656h.163C803.121-595.356,799.892-600.113,794.059-600.113Zm-7.253,7.9H801.25a7.171,7.171,0,0,0-7.192-6.141A7.21,7.21,0,0,0,786.805-592.209Z" transform="translate(-582.1 859.747)" fill="#fff"/>
    <path id="Path_14" data-name="Path 14" d="M908.138-596.025a8.776,8.776,0,0,0-8.778,8.658,8.792,8.792,0,0,0,8.778,8.738,8.66,8.66,0,0,0,6.453-2.926v2a9.01,9.01,0,0,1-6.654,2.766,10.572,10.572,0,0,1-10.582-10.582,10.555,10.555,0,0,1,10.582-10.5,9.01,9.01,0,0,1,6.654,2.766v2A8.661,8.661,0,0,0,908.138-596.025Z" transform="translate(-671.329 856.625)" fill="#fff"/>
    <path id="Path_15" data-name="Path 15" d="M904.035-579.591a11.692,11.692,0,0,1-11.679-11.679,11.652,11.652,0,0,1,11.679-11.6,10.041,10.041,0,0,1,7.447,3.1l.3.318v5.183l-1.891-1.981a7.558,7.558,0,0,0-5.659-2.586,7.723,7.723,0,0,0-7.681,7.56,7.67,7.67,0,0,0,7.681,7.641,7.557,7.557,0,0,0,5.659-2.586l1.891-1.981v5.183l-.3.318A10.041,10.041,0,0,1,904.035-579.591Z" transform="translate(-667.427 860.527)" fill="#fff"/>
    <path id="Path_16" data-name="Path 16" d="M1017.007-622.291v11.744h-1.924V-621.69c0-5.411-2.685-7.7-6.213-7.7-5.892,0-7.736,5.291-7.856,7.736v11.1H999.09v-30.062h1.924v14.149a9.548,9.548,0,0,1,8.377-4.77C1013.88-631.23,1017.007-628.224,1017.007-622.291Z" transform="translate(-750.738 889.985)" fill="#fff"/>
    <path id="Path_17" data-name="Path 17" d="M1013.641-613.914h-4.557v-12.46c0-2.91-.849-6.379-4.9-6.379-5.076,0-6.437,4.628-6.54,6.453v12.385h-4.557v-32.7h4.557V-634.7a10.72,10.72,0,0,1,7.061-2.533c5.51,0,8.932,3.93,8.932,10.255Z" transform="translate(-746.055 894.668)" fill="#fff"/>
  </g>
</svg>
