<svg id="mail" xmlns="http://www.w3.org/2000/svg" width="20.051" height="15.398" viewBox="0 0 20.051 15.398">
  <path id="Path_1311" data-name="Path 1311" d="M-785.607-54.816c-.034.125-.063.252-.1.375a2.021,2.021,0,0,1-1.8,1.4c-.1.007-.2.012-.293.012q-7.822,0-15.644,0a2.128,2.128,0,0,1-1.682-.686,2,2,0,0,1-.523-1.375c0-.875,0-1.749,0-2.624q0-4.307,0-8.615a2.028,2.028,0,0,1,1.64-2.052,2.838,2.838,0,0,1,.565-.044q7.822,0,15.644,0a2.036,2.036,0,0,1,2.175,1.731.248.248,0,0,0,.026.052Zm-19.3-9.452v.237q0,4.415,0,8.83a1.3,1.3,0,0,0,1.409,1.415q7.871,0,15.741,0a1.794,1.794,0,0,0,.408-.035,1.287,1.287,0,0,0,1-1.324q0-3.857,0-7.714,0-1.743,0-3.485a1.285,1.285,0,0,0-.6-1.125,1.442,1.442,0,0,0-.841-.205q-7.841,0-15.683,0c-.052,0-.1,0-.157,0a1.285,1.285,0,0,0-1.279,1.308c0,.365.005.731,0,1.1a.22.22,0,0,0,.154.232q4.134,2,8.264,4.015a1.839,1.839,0,0,0,1.739,0c1.383-.686,2.777-1.353,4.166-2.028.539-.262,1.077-.527,1.618-.785a.375.375,0,0,1,.574.28c.019.225-.127.336-.31.425q-2.911,1.411-5.821,2.826a2.408,2.408,0,0,1-2.22-.008q-3.962-1.932-7.93-3.854C-804.746-64.2-804.817-64.227-804.91-64.268Z" transform="translate(805.658 68.427)" fill="#fff"/>
  <path id="Path_1312" data-name="Path 1312" d="M-764.678,106.235c-.121-.093-.257-.149-.306-.248a.7.7,0,0,1-.006-.367c.006-.049.068-.093.109-.134q1.764-1.766,3.531-3.529a.608.608,0,0,1,.221-.154.342.342,0,0,1,.4.127.346.346,0,0,1,.02.42.986.986,0,0,1-.14.162q-1.737,1.738-3.476,3.472A2.765,2.765,0,0,1-764.678,106.235Z" transform="translate(767.138 -92.877)" fill="#fff"/>
  <path id="Path_1313" data-name="Path 1313" d="M-546.181,100.817a1.685,1.685,0,0,1,.316.188q1.8,1.794,3.6,3.6a.37.37,0,0,1,.02.556.377.377,0,0,1-.556-.037q-1.794-1.79-3.585-3.584a.346.346,0,0,1-.1-.44A1.486,1.486,0,0,1-546.181,100.817Z" transform="translate(560.09 -91.963)" fill="#fff"/>
</svg>
