<svg xmlns="http://www.w3.org/2000/svg" width="20" height="20" viewBox="0 0 20 20">
  <g id="maxi" transform="translate(397.187 -278.447)">
    <path id="Path_1314" data-name="Path 1314" d="M-207.177,278.447a.727.727,0,0,1,.727.727v5.954a.727.727,0,0,1-.727.727h-1.5a.727.727,0,0,1-.727-.727v-2.99a.727.727,0,0,0-.727-.727h-2.99a.727.727,0,0,1-.727-.727v-1.509a.727.727,0,0,1,.727-.727" transform="translate(-170.737)" fill="#026c9f"/>
    <path id="Path_1315" data-name="Path 1315" d="M-397.187,468.489v-5.937a.727.727,0,0,1,.727-.727h1.5a.727.727,0,0,1,.727.727v2.972a.727.727,0,0,0,.727.727h3a.727.727,0,0,1,.727.727v1.511a.727.727,0,0,1-.727.727h-5.954A.727.727,0,0,1-397.187,468.489Z" transform="translate(0 -170.769)" fill="#026c9f"/>
    <path id="Path_1316" data-name="Path 1316" d="M-214.036,468.28v-1.5a.727.727,0,0,1,.727-.727h2.987a.727.727,0,0,0,.727-.727v-3a.727.727,0,0,1,.727-.727h1.513a.727.727,0,0,1,.727.727v5.954a.727.727,0,0,1-.727.727h-5.954A.727.727,0,0,1-214.036,468.28Z" transform="translate(-170.559 -170.56)" fill="#026c9f"/>
    <path id="Path_1317" data-name="Path 1317" d="M-390.4,278.624a.727.727,0,0,1,.727.727v1.48a.727.727,0,0,1-.727.727h-2.973a.727.727,0,0,0-.727.727v2.992a.727.727,0,0,1-.727.727h-1.5a.727.727,0,0,1-.727-.727v-5.926a.727.727,0,0,1,.727-.727" transform="translate(-0.119 -0.164)" fill="#026c9f"/>
  </g>
</svg>
