<svg id="mini" xmlns="http://www.w3.org/2000/svg" width="20" height="20" viewBox="0 0 20 20">
  <path id="Path_1314" data-name="Path 1314" d="M-213.117,285.855a.727.727,0,0,1-.727-.727v-5.954a.727.727,0,0,1,.727-.727h1.5a.727.727,0,0,1,.727.727v2.99a.727.727,0,0,0,.727.727h2.99a.727.727,0,0,1,.727.727v1.509a.727.727,0,0,1-.727.727" transform="translate(226.45 -278.447)" fill="#026c9f"/>
  <path id="Path_1315" data-name="Path 1315" d="M-389.779,462.551v5.937a.727.727,0,0,1-.727.727h-1.5a.727.727,0,0,1-.727-.727v-2.972a.727.727,0,0,0-.727-.727h-3a.727.727,0,0,1-.727-.727v-1.511a.727.727,0,0,1,.727-.727h5.954A.727.727,0,0,1-389.779,462.551Z" transform="translate(397.187 -449.216)" fill="#026c9f"/>
  <path id="Path_1316" data-name="Path 1316" d="M-206.628,462.326v1.5a.727.727,0,0,1-.727.727h-2.987a.727.727,0,0,0-.727.727v3a.727.727,0,0,1-.727.727h-1.513a.727.727,0,0,1-.727-.727v-5.954a.727.727,0,0,1,.727-.727h5.954A.727.727,0,0,1-206.628,462.326Z" transform="translate(226.628 -449.007)" fill="#026c9f"/>
  <path id="Path_1317" data-name="Path 1317" d="M-396.332,286a.727.727,0,0,1-.727-.727V283.8a.727.727,0,0,1,.727-.727h2.973a.727.727,0,0,0,.727-.727v-2.992a.727.727,0,0,1,.727-.727h1.5a.727.727,0,0,1,.727.727v5.926a.727.727,0,0,1-.727.727" transform="translate(397.068 -278.611)" fill="#026c9f"/>
</svg>
