<svg id="password" xmlns="http://www.w3.org/2000/svg" width="24" height="18.633" viewBox="0 0 24 18.633">
  <path id="Path_1300" data-name="Path 1300" d="M218.738-595.607a3.652,3.652,0,0,1-.29.581,1.24,1.24,0,0,1-1.041.49c-.162,0-.325,0-.517,0,0,.435,0,.847,0,1.259a3.009,3.009,0,0,1-.008.328.39.39,0,0,1-.383.37.382.382,0,0,1-.4-.373c-.016-.3-.008-.594-.009-.892,0-.218,0-.437,0-.674h-18.7v.263q0,1.6,0,3.193c0,.467-.112.576-.584.577h-1.194a2.733,2.733,0,0,0,.812,1.6,2.733,2.733,0,0,0,1.871.8c.086,0,.172,0,.258,0q8.189,0,16.379,0a2.787,2.787,0,0,0,2.568-1.386,7.723,7.723,0,0,0,.428-1.02H217.6q-3.07,0-6.139,0a1.672,1.672,0,0,0-1.067.348,2.154,2.154,0,0,1-1.35.455h-4.616a2.124,2.124,0,0,1-1.33-.445,1.715,1.715,0,0,0-1.111-.359c-.867.009-1.734,0-2.6,0-.318,0-.513-.215-.449-.483a.355.355,0,0,1,.34-.307c1.069,0,2.14-.018,3.207.041a2.221,2.221,0,0,1,.979.4,2,2,0,0,0,1.114.354q2.179-.015,4.358,0a1.628,1.628,0,0,0,1.045-.342,2.218,2.218,0,0,1,1.4-.461q3.421,0,6.842,0a.542.542,0,0,1,.519.284v.282c-.046.221-.087.442-.139.662a3.628,3.628,0,0,1-3.345,2.775c-.1,0-.2.006-.3.006q-8.214,0-16.428,0a3.62,3.62,0,0,1-3.567-2.517,6.793,6.793,0,0,1-.208-1.008.4.4,0,0,1,.437-.479c.383-.006.766,0,1.148,0h.236a1.241,1.241,0,0,0,.017-.135c0-1.025,0-2.05,0-3.116-.164,0-.316,0-.468,0a1.3,1.3,0,0,1-1.38-1.381q0-2.278,0-4.555a1.29,1.29,0,0,1,1.376-1.381h17.6a1.225,1.225,0,0,1,.21.008.389.389,0,0,1,.328.4.385.385,0,0,1-.338.388,2.068,2.068,0,0,1-.281.007H196.246c-.569,0-.708.137-.708.7q0,2.183,0,4.367c0,.479.168.646.65.646h21.091c.5,0,.66-.164.66-.659q0-2.207,0-4.414c0-.481-.164-.642-.652-.642-.234,0-.469,0-.7,0-.357,0-.5-.137-.5-.5,0-.767,0-1.534,0-2.3a1.184,1.184,0,0,0-.9-1.215,1.652,1.652,0,0,0-.395-.035q-8.05,0-16.1,0a1.2,1.2,0,0,0-1.3,1.3,2.137,2.137,0,0,1-.019.374.357.357,0,0,1-.38.312.364.364,0,0,1-.386-.307,2.059,2.059,0,0,1,1.851-2.477q.14-.008.281-.008,8,0,16.006,0a2.063,2.063,0,0,1,1.68.724,2.033,2.033,0,0,1,.467,1.368c0,.564,0,1.127,0,1.691v.275h.489a1.288,1.288,0,0,1,1.315.956.438.438,0,0,0,.044.077Z" transform="translate(-194.738 605.911)" fill="#fff"/>
  <path id="Path_1301" data-name="Path 1301" d="M366.258-504.967c.018-.335-.048-.733.407-.736s.4.392.414.732c.308-.154.616-.415.86.021.129.23.026.382-.438.689.254.194.664.323.4.763-.125.207-.276.2-.818-.029-.023.313.038.723-.424.715-.444-.008-.386-.4-.4-.714-.571.224-.719.221-.849-.007s-.06-.366.421-.73c-.244-.182-.65-.312-.411-.72C365.65-505.375,365.959-505.127,366.258-504.967Z" transform="translate(-354.668 511.974)" fill="#fff"/>
  <path id="Path_1302" data-name="Path 1302" d="M238.142-504.254c-.477-.318-.574-.48-.452-.719s.285-.244.856-.02c.029-.313-.053-.737.438-.712.435.022.367.406.386.728.3-.143.626-.423.85.021.195.387-.171.518-.438.691.264.187.662.325.418.732-.233.388-.541.134-.813-.012-.09.6-.178.749-.441.74s-.327-.141-.411-.735c-.281.13-.6.405-.829-.007C237.486-503.939,237.853-504.085,238.142-504.254Z" transform="translate(-234.943 511.977)" fill="#fff"/>
  <path id="Path_1303" data-name="Path 1303" d="M430.153-503.546c-.292.136-.6.407-.834.016-.245-.408.148-.546.366-.7a5.4,5.4,0,0,1-.42-.507.268.268,0,0,1,.051-.257.7.7,0,0,1,.394-.183,1.326,1.326,0,0,1,.441.187c.028-.316-.056-.729.418-.72.451.008.386.4.4.663a4.718,4.718,0,0,1,.647-.1c.07,0,.168.112.212.194.125.237.022.394-.443.689.267.188.677.341.4.756-.239.362-.537.091-.8-.029-.068.584-.167.746-.439.734S430.183-502.984,430.153-503.546Z" transform="translate(-414.562 511.977)" fill="#fff"/>
  <path id="Path_1304" data-name="Path 1304" d="M303.245-505.12c.3-.155.6-.409.849,0,.145.232.028.413-.433.71.255.186.667.326.411.738-.238.383-.544.12-.836-.033-.01.34.056.7-.393.751-.258.028-.348-.133-.439-.732-.273.132-.582.4-.814.006s.14-.551.43-.725c-.281-.183-.658-.317-.439-.716.229-.418.546-.146.826-.01.081-.6.17-.743.444-.732S303.2-505.7,303.245-505.12Z" transform="translate(-294.831 512.127)" fill="#fff"/>
  <path id="Path_1305" data-name="Path 1305" d="M493.6-504.347c-.469-.331-.557-.486-.422-.722s.308-.24.841-.005c.028-.316-.044-.711.442-.721.257-.005.329.143.392.732.287-.133.594-.411.849.013.136.227.025.395-.433.7.252.188.667.328.4.744-.235.369-.533.121-.828-.038-.019.338.053.732-.428.748-.264.009-.355-.175-.4-.736-.288.139-.592.4-.847-.013C493.041-503.86,493.137-504.006,493.6-504.347Z" transform="translate(-474.453 512.06)" fill="#fff"/>
</svg>
