<svg xmlns="http://www.w3.org/2000/svg" width="20" height="20" viewBox="0 0 20 20">
    <path style="fill:none" d="M0 0h20v20H0z"/>
    <g data-name="pauses">
        <path data-name="Path 11292" d="M17.094 2.953A9.98 9.98 0 0 0 10.014 0h-.04A10 10 0 0 0 10 20h.008A10 10 0 0 0 20 10.018a9.877 9.877 0 0 0-2.906-7.065zm-.585 13.522A9.139 9.139 0 0 1 10 19.192h-.006A9.193 9.193 0 0 1 9.982.807h.033a9.233 9.233 0 0 1 9.18 9.181 9.1 9.1 0 0 1-2.686 6.487z" style="fill:#026c9f"/>
        <path data-name="Path 11293" d="M17.094 2.953A9.98 9.98 0 0 0 10.014 0h-.04A10 10 0 0 0 10 20h.008A10 10 0 0 0 20 10.018a9.877 9.877 0 0 0-2.906-7.065zm-.585 13.522A9.139 9.139 0 0 1 10 19.192h-.006A9.193 9.193 0 0 1 9.982.807h.033a9.233 9.233 0 0 1 9.18 9.181 9.1 9.1 0 0 1-2.686 6.487z" style="fill:#026c9f"/>
        <path data-name="Path 11294" d="M17.094 2.953A9.98 9.98 0 0 0 10.014 0h-.04A10 10 0 0 0 10 20h.008A10 10 0 0 0 20 10.018a9.877 9.877 0 0 0-2.906-7.065zm-.585 13.522A9.139 9.139 0 0 1 10 19.192h-.006A9.193 9.193 0 0 1 9.982.807h.033a9.233 9.233 0 0 1 9.18 9.181 9.1 9.1 0 0 1-2.686 6.487z" style="fill:#026c9f"/>
        <path data-name="Path 11295" d="M17.094 2.953A9.98 9.98 0 0 0 10.014 0h-.04A10 10 0 0 0 10 20h.008A10 10 0 0 0 20 10.018a9.877 9.877 0 0 0-2.906-7.065zm-.585 13.522A9.139 9.139 0 0 1 10 19.192h-.006A9.193 9.193 0 0 1 9.982.807h.033a9.233 9.233 0 0 1 9.18 9.181 9.1 9.1 0 0 1-2.686 6.487z" style="fill:#026c9f"/>
        <path data-name="Path 11296" d="M12.538 13.2a.4.4 0 0 1-.313.4.456.456 0 0 1-.088.01.385.385 0 0 1-.367-.236.733.733 0 0 1-.044-.249c-.006-2-.007-4.1 0-6.245 0-.3.151-.476.411-.476a.419.419 0 0 1 .407.481v4.091c-.002.724-.001 1.476-.006 2.224z" style="fill:#026c9f"/>
        <path data-name="Path 11297" d="M12.538 13.2a.4.4 0 0 1-.313.4.456.456 0 0 1-.088.01.385.385 0 0 1-.367-.236.733.733 0 0 1-.044-.249c-.006-2-.007-4.1 0-6.245 0-.3.151-.476.411-.476a.419.419 0 0 1 .407.481v4.091c-.002.724-.001 1.476-.006 2.224z" style="fill:#026c9f"/>
        <path data-name="Path 11298" d="M12.538 13.2a.4.4 0 0 1-.313.4.456.456 0 0 1-.088.01.385.385 0 0 1-.367-.236.733.733 0 0 1-.044-.249c-.006-2-.007-4.1 0-6.245 0-.3.151-.476.411-.476a.419.419 0 0 1 .407.481v4.091c-.002.724-.001 1.476-.006 2.224z" style="fill:#026c9f"/>
        <path data-name="Path 11299" d="M12.538 13.2a.4.4 0 0 1-.313.4.456.456 0 0 1-.088.01.385.385 0 0 1-.367-.236.733.733 0 0 1-.044-.249c-.006-2-.007-4.1 0-6.245 0-.3.151-.476.411-.476a.419.419 0 0 1 .407.481v4.091c-.002.724-.001 1.476-.006 2.224z" style="fill:#026c9f"/>
        <path data-name="Path 11300" d="M8.278 13.122c0 .321-.155.415-.272.457a.469.469 0 0 1-.157.029.3.3 0 0 1-.249-.108.771.771 0 0 1-.136-.372c-.02-.765-.016-1.54-.013-2.291V6.802a.4.4 0 0 1 .316-.4.449.449 0 0 1 .095-.002.381.381 0 0 1 .376.256.684.684 0 0 1 .036.225c.006 1.983.007 4.085.004 6.241z" style="fill:#026c9f"/>
        <path data-name="Path 11301" d="M8.278 13.122c0 .321-.155.415-.272.457a.469.469 0 0 1-.157.029.3.3 0 0 1-.249-.108.771.771 0 0 1-.136-.372c-.02-.765-.016-1.54-.013-2.291V6.802a.4.4 0 0 1 .316-.4.449.449 0 0 1 .095-.002.381.381 0 0 1 .376.256.684.684 0 0 1 .036.225c.006 1.983.007 4.085.004 6.241z" style="fill:#026c9f"/>
        <path data-name="Path 11302" d="M8.278 13.122c0 .321-.155.415-.272.457a.469.469 0 0 1-.157.029.3.3 0 0 1-.249-.108.771.771 0 0 1-.136-.372c-.02-.765-.016-1.54-.013-2.291V6.802a.4.4 0 0 1 .316-.4.449.449 0 0 1 .095-.002.381.381 0 0 1 .376.256.684.684 0 0 1 .036.225c.006 1.983.007 4.085.004 6.241z" style="fill:#026c9f"/>
        <path data-name="Path 11303" d="M8.278 13.122c0 .321-.155.415-.272.457a.469.469 0 0 1-.157.029.3.3 0 0 1-.249-.108.771.771 0 0 1-.136-.372c-.02-.765-.016-1.54-.013-2.291V6.802a.4.4 0 0 1 .316-.4.449.449 0 0 1 .095-.002.381.381 0 0 1 .376.256.684.684 0 0 1 .036.225c.006 1.983.007 4.085.004 6.241z" style="fill:#026c9f"/>
    </g>
</svg>
