<svg xmlns="http://www.w3.org/2000/svg" width="28" height="28" viewBox="0 0 28 28">
    <path data-name="Rectangle 915" style="fill:none" d="M0 0h28v28H0z"/>
    <path data-name="paystack-logo" d="M25.065 2.954H1.468A1.481 1.481 0 0 0 0 4.422v2.63A1.468 1.468 0 0 0 1.468 8.52h23.6a1.5 1.5 0 0 0 1.487-1.468V4.441a1.489 1.489 0 0 0-1.487-1.487zm0 14.638H1.468A1.468 1.468 0 0 0 0 19.061v2.63a1.468 1.468 0 0 0 1.468 1.468h23.6a1.485 1.485 0 0 0 1.487-1.468v-2.63a1.472 1.472 0 0 0-1.487-1.468zm-10.312 7.3H1.468A1.468 1.468 0 0 0 0 26.361v2.63a1.468 1.468 0 0 0 1.468 1.468h13.266a1.468 1.468 0 0 0 1.466-1.468v-2.63a1.44 1.44 0 0 0-1.449-1.468zm11.8-14.619H1.468A1.468 1.468 0 0 0 0 11.741v2.63a1.468 1.468 0 0 0 1.468 1.468h25.064A1.468 1.468 0 0 0 28 14.372v-2.63a1.452 1.452 0 0 0-1.449-1.468z" transform="translate(0 -2.707)" style="fill:#00c3f7"/>
</svg>
