<svg xmlns="http://www.w3.org/2000/svg" width="20" height="20" viewBox="0 0 20 20">
    <path style="fill:none" d="M0 0h20v20H0z"/>
    <g data-name="pitch">
        <path data-name="Path 11289" d="m12.8 12.648-.011.108c-.074.786-.158 1.677-.292 2.513a1.345 1.345 0 0 1-1.4 1.152h-.057a1.4 1.4 0 0 1-1.353-1.262q-.313-2.2-.63-4.408l-.424-2.895q-.3-2.089-.592-4.176l-.318-2.22v-.009a.542.542 0 0 0-.108-.311l-.021-.027a.7.7 0 0 0-.382-.295A.587.587 0 0 0 7.065.8a.572.572 0 0 0-.56.544l-.08.565-.049.342-.761 5.332-.144 1.008c-.129.9-.247 1.7-.354 2.514a1.418 1.418 0 0 1-1.326 1.324h-.089a1.391 1.391 0 0 1-1.4-1.178q-.074-.323-.145-.643l-.025-.108a95.275 95.275 0 0 0-.269-1.168A1.547 1.547 0 0 0 .387 8.079.41.41 0 0 1 0 7.769v-.157c.155-.315.281-.34.442-.34a1.658 1.658 0 0 1 .377.054 2.321 2.321 0 0 1 1.819 1.821c.127.494.241 1.023.333 1.446.034.162.07.323.105.482a.611.611 0 0 0 .615.556h.045a.607.607 0 0 0 .581-.6l.431-3.028.208-1.457c.119-.832.592-4.158.713-4.989l.018-.131c.015-.114.03-.231.054-.34A1.373 1.373 0 0 1 7.12 0h.054a1.359 1.359 0 0 1 1.31 1.185c.18 1.253.377 2.636.6 4.229l.381 2.671q.3 2.062.592 4.126l.327 2.271c.018.133.037.266.054.4l.017.121a.638.638 0 0 0 1.275-.008l.148-1.317.075-.66.016-.157v-.034c.008-.077.016-.15.026-.222a.4.4 0 0 1 .395-.359h.041a.382.382 0 0 1 .356.4z" style="fill:#026c9f" transform="translate(0 1.79)"/>
        <path data-name="Path 11290" d="m12.8 12.648-.011.108c-.074.786-.158 1.677-.292 2.513a1.345 1.345 0 0 1-1.4 1.152h-.057a1.4 1.4 0 0 1-1.353-1.262q-.313-2.2-.63-4.408l-.424-2.895q-.3-2.089-.592-4.176l-.318-2.22v-.009a.542.542 0 0 0-.108-.311l-.021-.027a.7.7 0 0 0-.382-.295A.587.587 0 0 0 7.065.8a.572.572 0 0 0-.56.544l-.08.565-.049.342-.761 5.332-.144 1.008c-.129.9-.247 1.7-.354 2.514a1.418 1.418 0 0 1-1.326 1.324h-.089a1.391 1.391 0 0 1-1.4-1.178q-.074-.323-.145-.643l-.025-.108a95.275 95.275 0 0 0-.269-1.168A1.547 1.547 0 0 0 .387 8.079.41.41 0 0 1 0 7.769v-.157c.155-.315.281-.34.442-.34a1.658 1.658 0 0 1 .377.054 2.321 2.321 0 0 1 1.819 1.821c.127.494.241 1.023.333 1.446.034.162.07.323.105.482a.611.611 0 0 0 .615.556h.045a.607.607 0 0 0 .581-.6l.431-3.028.208-1.457c.119-.832.592-4.158.713-4.989l.018-.131c.015-.114.03-.231.054-.34A1.373 1.373 0 0 1 7.12 0h.054a1.359 1.359 0 0 1 1.31 1.185c.18 1.253.377 2.636.6 4.229l.381 2.671q.3 2.062.592 4.126l.327 2.271c.018.133.037.266.054.4l.017.121a.638.638 0 0 0 1.275-.008l.148-1.317.075-.66.016-.157v-.034c.008-.077.016-.15.026-.222a.4.4 0 0 1 .395-.359h.041a.382.382 0 0 1 .356.4z" style="fill:#026c9f" transform="translate(0 1.79)"/>
        <path data-name="Path 11291" d="M20 7.669a.4.4 0 0 1-.387.409 1.858 1.858 0 0 0-1.758 1.481l-.095.4c-.061.263-.117.5-.177.735a1.315 1.315 0 0 1-1.3 1.044h-.067a1.325 1.325 0 0 1-1.251-1.157q-.162-.969-.319-1.939l-.29-1.767a.771.771 0 0 0-.039-.142l-.008-.022a.413.413 0 0 0-.4-.291.431.431 0 0 0-.114.016l-.034.01a.414.414 0 0 0-.3.352l-.1.847-.083.741-.156 1.375a.408.408 0 0 1-.4.389h-.043a.393.393 0 0 1-.269-.144.414.414 0 0 1-.087-.311c.1-.939.22-2 .351-3.042a1.186 1.186 0 0 1 1.196-1.078h.03a1.2 1.2 0 0 1 1.22 1.047l.2 1.194.074.455c.108.646.227 1.393.35 2.12a.713.713 0 0 0 .159.323.274.274 0 0 1 .023.031.417.417 0 0 0 .68.034.336.336 0 0 1 .03-.033.726.726 0 0 0 .195-.317c.05-.189.1-.382.135-.553v-.012c.054-.238.108-.463.173-.685a2.624 2.624 0 0 1 2.432-1.9h.025a.4.4 0 0 1 .404.39z" style="fill:#026c9f" transform="translate(0 1.79)"/>
    </g>
</svg>
