<svg xmlns="http://www.w3.org/2000/svg" width="54" height="54" viewBox="0 0 54 54">
  <g id="placeholder" transform="translate(186 -1518)">
    <rect id="Rectangle_691" data-name="Rectangle 691" width="54" height="54" transform="translate(-186 1518)" fill="#fff"/>
    <g id="Group_2" data-name="Group 2" transform="translate(-170.388 1532.132)" opacity="0.33">
      <g id="Group_1" data-name="Group 1" transform="translate(0 4.489)">
        <g id="Group_3" data-name="Group 3">
          <path id="Path_1" data-name="Path 1" d="M101.473-607.1a8.835,8.835,0,0,1-1.69-5.21v-4.973a1.213,1.213,0,0,0-1.2-1.219,1.177,1.177,0,0,0-.81.346,1.173,1.173,0,0,0-.346.833v5.012a11.194,11.194,0,0,0,3.2,7.847.262.262,0,0,0,.37,0,.261.261,0,0,0,.073-.137c.136-.69.378-1.926.452-2.3A.255.255,0,0,0,101.473-607.1Z" transform="translate(-97.427 618.502)" fill="#003152"/>
          <path id="Path_2" data-name="Path 2" d="M158.47-617.283v4.972a11.234,11.234,0,0,1-10.366,11.2v1.861h1.873a1.178,1.178,0,0,1,1.178,1.178,1.172,1.172,0,0,1-.346.833,1.172,1.172,0,0,1-.833.346h-5.782a1.178,1.178,0,0,1-1.178-1.178h0a1.173,1.173,0,0,1,.346-.833,1.172,1.172,0,0,1,.833-.346h1.552v-1.89a11.12,11.12,0,0,1-4.156-1.283.262.262,0,0,1-.1-.357.262.262,0,0,1,.124-.113l2.274-1a.261.261,0,0,1,.188-.008,8.871,8.871,0,0,0,2.848.467h.313a8.876,8.876,0,0,0,8.876-8.876v-5.012a1.173,1.173,0,0,1,.346-.833,1.177,1.177,0,0,1,.81-.346A1.213,1.213,0,0,1,158.47-617.283Z" transform="translate(-135.693 618.502)" fill="#003152"/>
        </g>
      </g>
      <path id="Path_3" data-name="Path 3" d="M144.127-573.192v.079a6.713,6.713,0,0,1-6.713,6.713h-.6a6.785,6.785,0,0,1-.958-.068l-5.044,2.221a.294.294,0,0,1-.388-.15.294.294,0,0,1-.02-.176l.919-4.677a6.9,6.9,0,0,1-1.223-3.934v-.008h2.644a.386.386,0,0,1,.317.162,4.417,4.417,0,0,0,3.624,1.888h.546a4.416,4.416,0,0,0,3.732-2.05Z" transform="translate(-125.82 583.612)" fill="#0095d7"/>
      <path id="Path_4" data-name="Path 4" d="M144.127-646.079v1.562H130.1v-1.562c0-.2.008-.393.025-.585h11.463a4.421,4.421,0,0,0-4.356-3.667h-.546a4.416,4.416,0,0,0-3.337,1.52h-2.669a6.713,6.713,0,0,1,6.133-3.981h.6a6.714,6.714,0,0,1,6.688,6.128C144.119-646.472,144.127-646.277,144.127-646.079Z" transform="translate(-125.82 652.792)" fill="#0095d7"/>
    </g>
  </g>
</svg>
