<svg xmlns="http://www.w3.org/2000/svg" width="28" height="28" viewBox="0 0 28 28">
  <g id="play" transform="translate(0.415 0.415)">
    <rect id="Rectangle_638" data-name="Rectangle 638" width="28" height="28" transform="translate(-0.415 -0.415)" fill="none"/>
    <path id="Path_1405" data-name="Path 1405" d="M-532.481,810.065a2.367,2.367,0,0,1-.809-.3,1.936,1.936,0,0,1-.907-1.582c-.014-.286,0-.573,0-.859q0-4.714,0-9.428a1.906,1.906,0,0,1,.62-1.5,1.913,1.913,0,0,1,2.4-.193q3.344,2.059,6.686,4.121c.586.361,1.183.7,1.749,1.095a1.913,1.913,0,0,1-.014,3.132c-.689.464-1.41.88-2.118,1.314q-1.989,1.22-3.981,2.438a.6.6,0,0,1-.511.1.526.526,0,0,1-.388-.411.524.524,0,0,1,.18-.536,1.342,1.342,0,0,1,.171-.117q2.935-1.8,5.871-3.6a.9.9,0,0,0,.462-.575.839.839,0,0,0-.443-.943q-1.521-.939-3.042-1.875-2.612-1.61-5.224-3.22a.82.82,0,0,0-1.168.221,1.662,1.662,0,0,0-.14.413.39.39,0,0,0,0,.111q0,5.074,0,10.149a.867.867,0,0,0,.59.89.8.8,0,0,0,.627-.066.9.9,0,0,1,.406-.1.517.517,0,0,1,.469.44.516.516,0,0,1-.267.574c-.226.111-.469.185-.705.274-.029.011-.06.019-.091.027Z" transform="translate(542.461 -789.204)" fill="#fff" stroke="#fff" stroke-width="0.5"/>
  </g>
</svg>
