<svg id="play_speech" xmlns="http://www.w3.org/2000/svg" width="28" height="28" viewBox="0 0 28 28">
  <rect id="back" width="28" height="28" fill="none"/>
  <path id="Path_1405" data-name="Path 1405" d="M-532.019,813.866a3.006,3.006,0,0,1-1.026-.383,2.454,2.454,0,0,1-1.15-2.005c-.018-.362-.006-.726-.006-1.089q0-5.976,0-11.952a2.416,2.416,0,0,1,.786-1.9,2.426,2.426,0,0,1,3.047-.245q4.239,2.61,8.475,5.225c.742.458,1.5.893,2.217,1.388a2.425,2.425,0,0,1-.018,3.97c-.873.588-1.787,1.115-2.686,1.666q-2.522,1.547-5.046,3.091a.765.765,0,0,1-.648.13.667.667,0,0,1-.492-.522.664.664,0,0,1,.228-.68,1.7,1.7,0,0,1,.217-.148q3.721-2.28,7.443-4.558a1.136,1.136,0,0,0,.586-.729,1.064,1.064,0,0,0-.562-1.2q-1.928-1.19-3.857-2.377-3.311-2.041-6.622-4.082a1.04,1.04,0,0,0-1.481.28,2.113,2.113,0,0,0-.177.523.5.5,0,0,0,0,.14q0,6.433,0,12.865a1.1,1.1,0,0,0,.747,1.129,1.017,1.017,0,0,0,.8-.083,1.145,1.145,0,0,1,.514-.125.655.655,0,0,1,.595.558.654.654,0,0,1-.339.727c-.286.14-.595.234-.894.348-.037.014-.077.024-.115.035Z" transform="translate(541.429 -790.866)" fill="#fff"/>
</svg>
