<svg xmlns="http://www.w3.org/2000/svg" width="36.265" height="25" viewBox="0 0 36.265 25">
    <path data-name="Path 11249" d="M1902.448 38.652a.91.91 0 0 1 1.233 0l4.816 4.43a4.422 4.422 0 0 0 3.043 1.273 4.711 4.711 0 0 0 2.359-.676q.92-.53 1.838-1.062l.73-.422a.916.916 0 0 1 1.364.927l-.717 4.787c-.408 2.724-.829 5.533-1.242 8.309a.913.913 0 0 1-.9.779h-23.799a.915.915 0 0 1-.905-.781c-.208-1.4-.415-2.81-.616-4.181-.206-1.406-.419-2.86-.632-4.291-.244-1.642-.5-3.31-.743-4.922v-.016a.753.753 0 0 1 1.121-.766l1.006.581 1.84 1.061a4.7 4.7 0 0 0 2.354.674 4.43 4.43 0 0 0 3.047-1.278l4.812-4.426m.615-3.213a2.052 2.052 0 0 0-1.387.607l-5.691 5.235a2.047 2.047 0 0 1-1.395.634 2.284 2.284 0 0 1-1.136-.349c-1.712-.986-3.422-1.978-5.136-2.959a2.029 2.029 0 0 0-1.01-.292 1.831 1.831 0 0 0-1.045.343 1.809 1.809 0 0 0-.8 1.887c.381 2.519.769 5.037 1.143 7.557.469 3.15.923 6.3 1.395 9.452a1.939 1.939 0 0 0 2.215 1.883h25.773a2.153 2.153 0 0 0 1.5-.487 2.332 2.332 0 0 0 .682-1.537q1.148-7.727 2.31-15.452a12.044 12.044 0 0 0 .22-1.783 1.828 1.828 0 0 0-1.866-1.841 2.1 2.1 0 0 0-1.043.283c-1.705.971-3.4 1.962-5.1 2.942a2.294 2.294 0 0 1-1.141.35 2.041 2.041 0 0 1-1.391-.629l-5.691-5.235a2.068 2.068 0 0 0-1.4-.611" transform="translate(-1884.928 -34.939)" style="fill:rgba(255,255,255,.3);stroke:transparent"/>
    <path data-name="Path 11252" d="M2056.144 243.889h-7.317a1.22 1.22 0 1 1 0-2.441h7.317a1.22 1.22 0 0 1 0 2.441" transform="translate(-2034.734 -225.235)" style="fill:rgba(255,255,255,.3);stroke:transparent"/>
</svg>
