<svg xmlns="http://www.w3.org/2000/svg" width="25.025" height="25" viewBox="0 0 25.025 25">
    <path data-name="Path 11247" d="M1026.935 192.74a10.782 10.782 0 0 1 5.9 1.824.911.911 0 0 1 .415 1.009.923.923 0 0 1-.821.693 1.061 1.061 0 0 1-.686-.217 8.781 8.781 0 0 0-3.572-1.353 9 9 0 0 0-6.272 1.34 1.076 1.076 0 0 1-.7.229.921.921 0 0 1-.4-1.705 10.712 10.712 0 0 1 2.149-1.107 11.143 11.143 0 0 1 4-.714" transform="translate(-1014.525 -179.297)" style="fill:rgba(255,255,255,.3);stroke:transparent"/>
    <path data-name="Path 11248" d="M1078.089 80.517a2.766 2.766 0 1 1-2.794 2.713 2.763 2.763 0 0 1 2.794-2.713" transform="translate(-1065.784 -74.61)" style="fill:rgba(255,255,255,.3);stroke:transparent"/>
    <path data-name="Path 11250" d="M953.144 1.848a10.152 10.152 0 1 1-.051 20.3h-.1a10.152 10.152 0 0 1 .153-20.3M953.149 0h-.01a12 12 0 0 0-12.031 11.817 11.85 11.85 0 0 0 .876 4.7A12.076 12.076 0 0 0 948.305 23a11.846 11.846 0 0 0 4.668 1h.119a12.03 12.03 0 0 0 8.48-3.465A12 12 0 0 0 953.159 0z" transform="translate(-940.607 .5)" style="fill:rgba(255,255,255,.3);stroke:transparent"/>
</svg>
