<svg id="save_speech" xmlns="http://www.w3.org/2000/svg" width="28" height="28" viewBox="0 0 28 28">
  <rect id="back" width="28" height="28" fill="none"/>
  <path id="Path_1406" data-name="Path 1406" d="M-2126.364,2115.14v12.2c-.012.038-.027.075-.036.114a2.055,2.055,0,0,1-2,1.677q-6.96.007-13.92,0a2.05,2.05,0,0,1-2.04-2.04q-.007-6.959,0-13.919a1.987,1.987,0,0,1,.817-1.618,2.485,2.485,0,0,1,.972-.419h12.2a.639.639,0,0,0,.1.031,2.742,2.742,0,0,1,1.561.767q.788.774,1.563,1.563a2.732,2.732,0,0,1,.7,1.273C-2126.413,2114.889-2126.39,2115.015-2126.364,2115.14Zm-15-2.883c-.311,0-.6,0-.895,0a.935.935,0,0,0-.977.97q0,6.908,0,13.815a.931.931,0,0,0,.968.962q6.908,0,13.816,0a.931.931,0,0,0,.964-.966q0-5.79,0-11.583a1.656,1.656,0,0,0-.49-1.2q-.746-.757-1.5-1.5a1.45,1.45,0,0,0-.925-.46c-.5-.032-1.006-.023-1.509-.031-.145,0-.29,0-.45,0v.229q0,1.608,0,3.217c0,.474-.2.676-.669.676h-7.646c-.479,0-.685-.2-.685-.683q0-1.608,0-3.217Zm7.866.011h-6.729v2.97h6.729Z" transform="translate(2149.364 -2106.132)" fill="#fff"/>
  <path id="Path_1407" data-name="Path 1407" d="M-1981.261,2341.448a3.38,3.38,0,0,1-3.381-3.368,3.379,3.379,0,0,1,3.369-3.38,3.379,3.379,0,0,1,3.38,3.368A3.381,3.381,0,0,1-1981.261,2341.448Zm0-5.624a2.257,2.257,0,0,0-2.258,2.238,2.257,2.257,0,0,0,2.233,2.262,2.256,2.256,0,0,0,2.266-2.246A2.256,2.256,0,0,0-1981.259,2335.824Z" transform="translate(1995.267 -2321.825)" fill="#fff"/>
</svg>
