<svg xmlns="http://www.w3.org/2000/svg" width="20" height="20" viewBox="0 0 20 20">
    <path style="fill:none" d="M0 0h20v20H0z"/>
    <g data-name="say_as">
        <path data-name="Path 11263" d="M18.43 6.877a.782.782 0 0 0-.776-.66.829.829 0 0 0-.12.009h-4.626V2.057a2.557 2.557 0 0 0-.032-.5A1.881 1.881 0 0 0 11.024.012h-6.79c-.235 0-.505.039-.519.35A.321.321 0 0 0 3.8.608a.587.587 0 0 0 .436.13h6.788a1.161 1.161 0 0 1 1.125.909c.014.107.024.216.029.325a2.153 2.153 0 0 0-1.269-.414H8.925L8 1.563h-.06a.874.874 0 0 0-.777.47.779.779 0 0 1-1.381-.007.815.815 0 0 0-.733-.462H1.88a1.866 1.866 0 0 0-1.125.381l-.021.014v-.015A1.17 1.17 0 0 1 1.853.728h.864A.366.366 0 0 0 3.081.37V.331a.359.359 0 0 0-.36-.325H2.69C2.572 0 2.452 0 2.334 0a9.51 9.51 0 0 0-.559.017A1.941 1.941 0 0 0 1.1.19 1.888 1.888 0 0 0 0 2.025v16.08a1.878 1.878 0 0 0 1.187 1.745 4.373 4.373 0 0 0 .447.142H7.7l.022-.029a.094.094 0 0 1 .014-.015.193.193 0 0 0 .053-.071v-.006a.918.918 0 0 1 .031-.087.434.434 0 0 0 .041-.282V19.493a.439.439 0 0 0-.32-.212 3.6 3.6 0 0 0-.36-.017c-.077 0-.155 0-.227.007H1.9a1.27 1.27 0 0 1-.161-.011 1.165 1.165 0 0 1-1-1.216 2.213 2.213 0 0 0 1.279.412h.116c1.419 0 2.857-.008 4.275-.008s2.852 0 4.269.008c.07.007.141.01.212.01a2.193 2.193 0 0 0 1.275-.411 1.114 1.114 0 0 1-.853 1.183 1.513 1.513 0 0 1-.344.039H9.024a.416.416 0 0 0-.456.234.409.409 0 0 0 .176.476l.019.013h2.527l.017-.009a.132.132 0 0 0 .021-.015 1.894 1.894 0 0 0 1.581-2.052v-2.951h4.648a.765.765 0 0 0 .875-.881v-6.97a.775.775 0 0 0 0-.245zm-6.265 9.848a1.136 1.136 0 0 1-1.131.994h-9c-.041 0-.083.006-.123.006a.794.794 0 0 1-.119-.006 1.192 1.192 0 0 1-1.065-1.3V3.579a1.238 1.238 0 0 1 0-.241A1.174 1.174 0 0 1 1.9 2.281a.777.777 0 0 1 .122.006h2.923a.273.273 0 0 1 .24.148 1.489 1.489 0 0 0 2.541.055.385.385 0 0 1 .335-.2h2.96a.77.77 0 0 1 .091 0 1.161 1.161 0 0 1 1.064 1.248v2.541a.585.585 0 0 1 0 .082v.058H9.191a.773.773 0 0 0-.885.891v1.807a.308.308 0 0 1-.171.306c-.28.165-.562.336-.836.5l-.46.277a.639.639 0 0 0 0 1.193c.451.275.859.523 1.279.766a.337.337 0 0 1 .183.324v1.86a.689.689 0 0 0 0 .148.747.747 0 0 0 .747.675.694.694 0 0 0 .072 0h3.049c0 .189 0 .376.007.558.003.414.01.805-.011 1.201zm5.541-2.617c0 .111-.019.129-.134.129h-8.4c-.123 0-.139-.016-.139-.148V12.289a1.01 1.01 0 0 0-.544-.96c-.3-.168-.576-.339-.876-.52l-.364-.209c.291-.175.567-.341.836-.511l.464-.279a.921.921 0 0 0 .472-.836V7.091c0-.125.026-.148.15-.148h8.394c.123 0 .145.021.145.139v7.026z" style="fill:#026c9f" transform="translate(.78)"/>
        <path data-name="Path 11264" d="M6.817 1.521a.269.269 0 0 1 0 .034.356.356 0 0 1-.359.4.366.366 0 0 1-.358-.374.336.336 0 0 1 0-.039.376.376 0 0 1 .344-.393h.01a.369.369 0 0 1 .367.372z" style="fill:#026c9f" transform="translate(.78)"/>
        <path data-name="Path 11265" d="M5.262 7.793v-.016c0-.013-.009-.032-.015-.054l-.02-.078V7.64C4.784 6.475 4.338 5.3 3.9 4.137a.445.445 0 0 0-.426-.312h-.013a.439.439 0 0 0-.422.306Q2.7 5.016 2.372 5.9t-.665 1.757c0 .011-.01.022-.014.033a.359.359 0 0 0 .2.465.4.4 0 0 0 .049.015.379.379 0 0 0 .085.01.363.363 0 0 0 .357-.28c.071-.178.138-.358.2-.536v-.01a.087.087 0 0 1 .085-.071h1.555c.071 0 .092.016.121.1.082.23.15.408.224.576a.339.339 0 0 0 .414.214.353.353 0 0 0 .279-.379zM2.9 6.564l.268-.716c.1-.26.2-.521.3-.79.2.517.382 1 .576 1.507z" style="fill:#026c9f" transform="translate(.78)"/>
        <path data-name="Path 11266" d="M7.437 13.8a.344.344 0 0 1-.336.344H2.087a.735.735 0 0 1-.093 0 .344.344 0 0 1-.318-.335.34.34 0 0 1 .285-.369.7.7 0 0 1 .133-.012h4.941a.5.5 0 0 1 .075 0 .353.353 0 0 1 .327.37z" style="fill:#026c9f" transform="translate(.78)"/>
        <path data-name="Path 11267" d="M7.118 16.036H2.1a.885.885 0 0 1-.148-.013.357.357 0 0 1 .036-.7h5.098a.358.358 0 0 1 .032.714z" style="fill:#026c9f" transform="translate(.78)"/>
        <path data-name="Path 11268" d="M5.7 12.077a.4.4 0 0 1-.344.166c-.541.008-1.1.008-1.639.008H2.086a.358.358 0 0 1-.407-.307.334.334 0 0 1 .067-.275.454.454 0 0 1 .344-.148h3.279a.39.39 0 0 1 .355.23.344.344 0 0 1-.025.327z" style="fill:#026c9f" transform="translate(.78)"/>
        <path data-name="Path 11269" d="M4.222 9.987a.337.337 0 0 1-.088.246.476.476 0 0 1-.348.124H2.1c-.264 0-.421-.136-.421-.365s.155-.356.427-.356h1.683c.367.002.429.222.433.351z" style="fill:#026c9f" transform="translate(.78)"/>
        <path data-name="Path 11270" d="M14 12.3v-2.037c0-.46 0-.934-.009-1.4A.6.6 0 0 0 13.4 8.2a.587.587 0 0 0-.357.119l-.121.068c-.3.17-.609.344-.9.544a1.3 1.3 0 0 1-.766.246.814.814 0 0 1-.119-.006c-.1-.006-.2-.01-.292-.01s-.192 0-.287.01a.531.531 0 0 0-.057 0 .537.537 0 0 0-.062 0 .615.615 0 0 0-.55.671v1.514a.617.617 0 0 0 0 .131.6.6 0 0 0 .6.534.53.53 0 0 0 .062 0h.59c.1 0 .2 0 .292.007a.714.714 0 0 1 .325.088c.437.246.858.5 1.265.75a.614.614 0 0 0 .991-.557zm-2.669-1.018h-.7V9.9h.7zm1.937.88a8.261 8.261 0 0 0-.765-.443h-.005.002a.639.639 0 0 1-.433-.754v-.008a5.492 5.492 0 0 0 .016-.773c0-.108-.005-.219-.005-.328a.258.258 0 0 1 .026-.121c.3-.183.59-.358.9-.544l.267-.158z" style="fill:#026c9f" transform="translate(.78)"/>
        <path data-name="Path 11271" d="M16.879 10.591a2.278 2.278 0 0 1-1.261 2.029.492.492 0 0 1-.239.069.339.339 0 0 1-.3-.192.33.33 0 0 1-.034-.255.46.46 0 0 1 .243-.26 1.547 1.547 0 0 0 0-2.771c-.228-.119-.308-.3-.217-.5A.367.367 0 0 1 15.4 8.5a.362.362 0 0 1 .15.032.4.4 0 0 1 .066.039 2.268 2.268 0 0 1 1.263 2.02z" style="fill:#026c9f" transform="translate(.78)"/>
        <path data-name="Path 11272" d="M15.53 10.671a1.18 1.18 0 0 1-.5.906.364.364 0 0 1-.509-.031l-.02-.024a.352.352 0 0 1 .061-.492l.024-.017a.485.485 0 0 0 0-.83.36.36 0 0 1 .377-.614.409.409 0 0 1 .063.049 1.258 1.258 0 0 1 .5 1.052z" style="fill:#026c9f" transform="translate(.78)"/>
    </g>
</svg>
