<svg xmlns="http://www.w3.org/2000/svg" width="20" height="20" viewBox="0 0 20 20">
    <path style="fill:none" d="M0 0h20v20H0z"/>
    <g data-name="speed">
        <path data-name="Path 11280" d="M20 11.877c-.065.39-.115.782-.2 1.168a7.58 7.58 0 0 1-1.036 2.511.4.4 0 0 1-.563.176.4.4 0 0 1-.093-.6 6.85 6.85 0 0 0 1.039-2.894 6.958 6.958 0 0 0-1.985-5.914 7.1 7.1 0 1 0-6.447 11.951 6.952 6.952 0 0 0 5.137-.917c.311-.189.526-.179.667.038s.054.437-.257.63a7.9 7.9 0 0 1-11.441-3.7.293.293 0 0 0-.327-.215c-.788.009-1.576 0-2.365 0a1.9 1.9 0 0 1-.215-.007.382.382 0 0 1-.355-.376.386.386 0 0 1 .356-.394 1.677 1.677 0 0 1 .195-.006h2.347c-.082-.508-.161-.992-.241-1.5H2.513a.389.389 0 1 1 0-.777c.495-.005.99 0 1.484 0H4.2l.192-1.5H.552a1.167 1.167 0 0 1-.269-.025.383.383 0 0 1 .054-.748 1.784 1.784 0 0 1 .215.002h3.906a.23.23 0 0 0 .251-.174c.183-.442.385-.877.585-1.327-.054 0-.113-.009-.174-.009H3.127c-.283 0-.464-.154-.464-.388s.184-.392.463-.392h2.539a.372.372 0 0 0 .328-.15 7.766 7.766 0 0 1 4.226-2.677c.05-.012.1-.031.154-.049 0-.061.008-.119.008-.177v-.8a1.345 1.345 0 0 1-.959-.937A1.317 1.317 0 0 1 10.664.015a72.311 72.311 0 0 1 2.871 0 1.325 1.325 0 0 1 .437 2.567c-.108.041-.151.088-.146.206.01.273 0 .546 0 .8.462.161.924.282 1.352.475A7.772 7.772 0 0 1 19.93 10.3c.025.161.047.323.07.48zm-7.9-10h1.34a.556.556 0 0 0 .614-.538.557.557 0 0 0-.6-.554Q12.1.784 10.741.79a.548.548 0 0 0-.591.561.541.541 0 0 0 .6.531c.45.003.899 0 1.35 0zm-.928 1.575h1.864v-.771h-1.868z" style="fill:#026c9f" transform="translate(0 .395)"/>
        <path data-name="Path 11281" d="M12.118 5.263A6.06 6.06 0 1 1 6.053 11.3a6.058 6.058 0 0 1 6.065-6.037zm-.013.782a5.278 5.278 0 1 0 5.283 5.273A5.276 5.276 0 0 0 12.1 6.044z" style="fill:#026c9f" transform="translate(0 .395)"/>
        <path data-name="Path 11282" d="M.4 14.115a.384.384 0 0 1-.4-.372.389.389 0 1 1 .778-.016.385.385 0 0 1-.381.388z" style="fill:#026c9f" transform="translate(0 .395)"/>
        <path data-name="Path 11283" d="M17.028 16.612a.38.38 0 0 1 .394-.371.385.385 0 1 1-.026.77.381.381 0 0 1-.368-.4z" style="fill:#026c9f" transform="translate(0 .395)"/>
        <path data-name="Path 11284" d="M10.89 11.27a1.375 1.375 0 0 1 .073-.327c.064-.136.017-.21-.077-.3a29.93 29.93 0 0 1-.691-.689.392.392 0 0 1-.04-.587.4.4 0 0 1 .591.033c.247.241.484.492.736.727a.256.256 0 0 0 .211.047 1.22 1.22 0 0 1 .823.005.2.2 0 0 0 .249-.066q.867-.873 1.74-1.74a.686.686 0 0 1 .215-.161.36.36 0 0 1 .439.117.37.37 0 0 1 .023.454 1.012 1.012 0 0 1-.156.174c-.566.567-1.129 1.134-1.7 1.7a.233.233 0 0 0-.07.283 1.207 1.207 0 0 1-1.641 1.484 1.211 1.211 0 0 1-.725-1.154zm1.209-.376a.425.425 0 0 0-.42.442.43.43 0 1 0 .86-.019.426.426 0 0 0-.44-.424z" style="fill:#026c9f" transform="translate(0 .395)"/>
        <path data-name="Path 11285" d="M12.5 7.325v.194a.387.387 0 0 1-.772.026 2.4 2.4 0 0 1 0-.408.385.385 0 0 1 .405-.381.379.379 0 0 1 .371.394v.175z" style="fill:#026c9f" transform="translate(0 .395)"/>
        <path data-name="Path 11286" d="M16.112 10.937h.175a.388.388 0 0 1 .016.776 2.527 2.527 0 0 1-.388 0 .382.382 0 0 1-.376-.411.378.378 0 0 1 .4-.366c.061-.001.115 0 .173.001z" style="fill:#026c9f" transform="translate(0 .395)"/>
        <path data-name="Path 11287" d="M12.494 15.311a1.882 1.882 0 0 1 0 .215.393.393 0 0 1-.409.361.389.389 0 0 1-.366-.382c-.006-.116 0-.233 0-.349a.39.39 0 1 1 .779-.018v.175z" style="fill:#026c9f" transform="translate(0 .395)"/>
        <path data-name="Path 11288" d="M8.118 10.932a2.038 2.038 0 0 1 .215 0 .37.37 0 0 1 .345.359.362.362 0 0 1-.319.4 2.065 2.065 0 0 1-.484 0 .376.376 0 0 1-.332-.394.383.383 0 0 1 .362-.367c.071-.007.143 0 .215 0z" style="fill:#026c9f" transform="translate(0 .395)"/>
    </g>
</svg>
