<svg xmlns="http://www.w3.org/2000/svg" width="215.077" height="174.197" viewBox="0 0 215.077 174.197">
    <defs>
        <clipPath id="e6tn55fi0a">
            <path data-name="Rectangle 937" style="fill:none" d="M0 0h215.077v174.197H0z"/>
        </clipPath>
        <clipPath id="o2i32yj8kb">
            <path data-name="Rectangle 938" style="fill:none" d="M0 0h48.124v28.27H0z"/>
        </clipPath>
    </defs>
    <g data-name="Group 1839" style="clip-path:url(#e6tn55fi0a)">
        <path data-name="Path 11222" d="M1163.856 944.269a.343.343 0 0 0-.47-.121l-1.138.673-.673-1.138a.343.343 0 0 0-.591.349l.673 1.138-1.138.673a.343.343 0 0 0 .349.591l1.138-.673.673 1.138a.343.343 0 0 0 .591-.349l-.673-1.138 1.138-.673a.343.343 0 0 0 .121-.47" transform="translate(-994.518 -808.671)" style="fill:#dedede"/>
        <path data-name="Path 11223" d="M1196.113 983.607a1.494 1.494 0 1 1 1.494-1.494 1.5 1.5 0 0 1-1.494 1.494m0-2.19a.7.7 0 1 0 .7.7.7.7 0 0 0-.7-.7" transform="translate(-1023.889 -840.472)" style="fill:#dedede"/>
        <path data-name="Path 11224" d="M139.878 1137.086a1.494 1.494 0 1 1 1.494-1.494 1.5 1.5 0 0 1-1.494 1.494m0-2.19a.7.7 0 1 0 .7.7.7.7 0 0 0-.7-.7" transform="translate(-118.607 -972.017)" style="fill:#dedede"/>
        <path data-name="Path 11225" d="M1297.921 12.55a1.494 1.494 0 1 1 1.494-1.494 1.5 1.5 0 0 1-1.494 1.494m0-2.19a.7.7 0 1 0 .7.7.7.7 0 0 0-.7-.7" transform="translate(-1111.147 -8.195)" style="fill:#dedede"/>
        <path data-name="Path 11226" d="M1480.133 295.113a.343.343 0 0 0-.158.459l.579 1.189-1.189.579a.343.343 0 0 0 .3.617l1.189-.579.579 1.189a.343.343 0 0 0 .617-.3l-.579-1.189 1.189-.579a.343.343 0 1 0-.3-.617l-1.189.579-.579-1.189a.344.344 0 0 0-.459-.158" transform="translate(-1267.776 -252.907)" style="fill:#dedede"/>
        <path data-name="Path 11227" d="M1325.842 476.415a1.494 1.494 0 1 1 1.494-1.494 1.5 1.5 0 0 1-1.494 1.494m0-2.19a.7.7 0 1 0 .7.7.7.7 0 0 0-.7-.7" transform="translate(-1135.078 -405.766)" style="fill:#dedede"/>
        <path data-name="Path 11228" d="M.183 639.572a.343.343 0 0 0-.015.485l.9.964-.964.9a.343.343 0 0 0 .224.593.341.341 0 0 0 .246-.093l.964-.9.9.964a.343.343 0 0 0 .5-.469l-.9-.964.964-.9a.343.343 0 0 0-.469-.5l-.964.9-.9-.964a.343.343 0 0 0-.485-.016" transform="translate(0 -548.088)" style="fill:#dedede"/>
        <path data-name="Path 11229" d="M95.367 737.184a1.494 1.494 0 1 1 1.494-1.494 1.5 1.5 0 0 1-1.494 1.494m0-2.19a.7.7 0 1 0 .7.7.7.7 0 0 0-.7-.7" transform="translate(-80.457 -629.268)" style="fill:#dedede"/>
        <path data-name="Path 11230" d="M53.426 646.128a.3.3 0 0 1-.017-.608c1-.056 2.018-.157 3.017-.3a.3.3 0 0 1 .085.6 36.023 36.023 0 0 1-3.068.3h-.017m-4.278-.013h-.019a36.656 36.656 0 0 1-3.066-.323.3.3 0 1 1 .089-.6c1 .148 2.01.255 3.014.318a.3.3 0 0 1-.019.608m11.515-1.131a.3.3 0 0 1-.077-.6 36.756 36.756 0 0 0 2.9-.892.3.3 0 1 1 .2.573c-.963.342-1.954.647-2.945.907a.3.3 0 0 1-.077.01m-18.744-.07a.3.3 0 0 1-.08-.011 36.974 36.974 0 0 1-2.937-.937.3.3 0 1 1 .209-.571c.946.346 1.917.657 2.888.922a.3.3 0 0 1-.08.6m25.605-2.5a.3.3 0 0 1-.135-.577c.9-.447 1.8-.937 2.656-1.459a.3.3 0 0 1 .315.52c-.875.53-1.784 1.03-2.7 1.484a.3.3 0 0 1-.135.032m-32.442-.141a.3.3 0 0 1-.137-.033 37.064 37.064 0 0 1-2.688-1.508.3.3 0 0 1 .32-.517 36.437 36.437 0 0 0 2.644 1.483.3.3 0 0 1-.138.576m38.639-3.76a.3.3 0 0 1-.187-.544A35.983 35.983 0 0 0 75.843 636a.3.3 0 0 1 .414.446c-.75.7-1.54 1.369-2.346 2a.3.3 0 0 1-.187.065m-44.806-.194a.3.3 0 0 1-.189-.066 37.552 37.552 0 0 1-2.332-2.016.3.3 0 1 1 .417-.443c.733.689 1.5 1.356 2.294 1.982a.3.3 0 0 1-.189.542M79 633.445a.3.3 0 0 1-.232-.5 36.137 36.137 0 0 0 1.865-2.39.3.3 0 0 1 .495.354c-.6.833-1.233 1.65-1.9 2.43a.3.3 0 0 1-.232.107m-55.339-.229a.3.3 0 0 1-.233-.109 36.35 36.35 0 0 1-1.879-2.444.3.3 0 1 1 .5-.35c.579.823 1.2 1.631 1.847 2.4a.3.3 0 0 1-.233.5m59.5-5.8a.3.3 0 0 1-.266-.451c.486-.882.94-1.8 1.349-2.715a.3.3 0 1 1 .556.248 36.705 36.705 0 0 1-1.372 2.76.3.3 0 0 1-.267.158m-63.613-.261a.3.3 0 0 1-.268-.16c-.485-.9-.938-1.834-1.345-2.774a.3.3 0 1 1 .558-.242c.4.924.845 1.841 1.322 2.727a.3.3 0 0 1-.267.448m66.481-6.481a.3.3 0 0 1-.291-.394c.3-.962.559-1.948.775-2.93a.3.3 0 1 1 .594.13c-.219 1-.484 2-.788 2.98a.3.3 0 0 1-.29.214m-69.281-.288a.3.3 0 0 1-.291-.217 36.878 36.878 0 0 1-.758-2.987.3.3 0 0 1 .6-.125c.207.988.458 1.976.746 2.938a.3.3 0 0 1-.292.391m70.73-6.9h-.03a.3.3 0 0 1-.273-.332c.1-1 .153-2.019.165-3.026a.3.3 0 1 1 .608.007 36.34 36.34 0 0 1-.167 3.078.3.3 0 0 1-.3.275m-72.116-.3a.3.3 0 0 1-.3-.277 36.871 36.871 0 0 1-.148-3.08.3.3 0 0 1 .3-.306.3.3 0 0 1 .3.3c.006 1.005.055 2.024.146 3.028a.3.3 0 0 1-.276.33h-.028m72.079-7.028a.3.3 0 0 1-.3-.272c-.107-1-.257-2.007-.448-3l-.007-.039a.3.3 0 0 1 .6-.116l.008.039c.194 1.008.347 2.034.455 3.049a.3.3 0 0 1-.27.335h-.033m-71.995-.3h-.035a.3.3 0 0 1-.268-.337c.116-1.017.277-2.042.479-3.046a.3.3 0 0 1 .6.12c-.2.987-.357 1.994-.471 2.994a.3.3 0 0 1-.3.27m70.481-6.908a.3.3 0 0 1-.29-.212 35.716 35.716 0 0 0-1.04-2.847.3.3 0 0 1 .562-.233c.391.945.747 1.919 1.057 2.9a.3.3 0 0 1-.29.4m-68.915-.25a.3.3 0 0 1-.095-.015.3.3 0 0 1-.194-.384c.319-.972.684-1.943 1.084-2.886a.3.3 0 1 1 .56.238 35.753 35.753 0 0 0-1.066 2.837.3.3 0 0 1-.289.209m66-6.469a.3.3 0 0 1-.266-.155 35.584 35.584 0 0 0-1.595-2.577.3.3 0 1 1 .5-.342 36.582 36.582 0 0 1 1.622 2.621.3.3 0 0 1-.265.453m-63.021-.226a.3.3 0 0 1-.264-.455 36.943 36.943 0 0 1 1.641-2.609.3.3 0 0 1 .5.345 36.456 36.456 0 0 0-1.614 2.566.3.3 0 0 1-.264.153m58.8-5.762a.3.3 0 0 1-.23-.1c-.66-.76-1.36-1.5-2.083-2.2a.3.3 0 1 1 .424-.436 36.718 36.718 0 0 1 2.118 2.24.3.3 0 0 1-.23.5m-54.547-.2a.3.3 0 0 1-.228-.5 37.033 37.033 0 0 1 2.13-2.228.3.3 0 1 1 .421.438c-.725.7-1.43 1.434-2.1 2.191a.3.3 0 0 1-.229.1m49.209-4.817a.3.3 0 0 1-.185-.063 35.77 35.77 0 0 0-2.482-1.741.3.3 0 0 1 .328-.512 36.738 36.738 0 0 1 2.524 1.77.3.3 0 0 1-.185.546m-43.843-.168a.3.3 0 0 1-.184-.547 36.394 36.394 0 0 1 2.536-1.753.3.3 0 0 1 .324.515 35.737 35.737 0 0 0-2.493 1.723.3.3 0 0 1-.183.061m37.608-3.679a.3.3 0 0 1-.133-.031 36.178 36.178 0 0 0-2.78-1.208.3.3 0 1 1 .219-.568c.955.368 1.906.781 2.827 1.229a.3.3 0 0 1-.133.578m-31.345-.121a.3.3 0 0 1-.131-.579 35.513 35.513 0 0 1 2.838-1.2.3.3 0 0 1 .213.57c-.943.353-1.882.751-2.791 1.182a.3.3 0 0 1-.13.029m24.464-2.4a.3.3 0 0 1-.075-.009 35.76 35.76 0 0 0-2.967-.622.3.3 0 0 1 .1-.6c1.01.167 2.025.38 3.017.633a.3.3 0 0 1-.075.6m-17.562-.056a.3.3 0 0 1-.072-.6c.6-.148 1.222-.283 1.837-.4.392-.075.791-.145 1.185-.208a.3.3 0 0 1 .1.6c-.388.062-.78.13-1.166.2-.6.116-1.212.249-1.807.395a.309.309 0 0 1-.073.009M53.1 573.79h-.014a35.854 35.854 0 0 0-3.031-.008.3.3 0 0 1-.024-.608 36.912 36.912 0 0 1 3.083.008.3.3 0 0 1-.013.608" transform="translate(-12.784 -491.234)" style="fill:#dedede"/>
        <path data-name="Path 11231" d="m643.205 127.266-.525.032a.3.3 0 0 1-.037-.607c.994-.056 2-.137 2.993-.24a.3.3 0 1 1 .063.6c-.828.086-1.667.157-2.5.21m-4.743.13h-.023a67.982 67.982 0 0 1-3.029-.1.3.3 0 1 1 .035-.607c.994.057 2 .092 3 .1a.3.3 0 0 1 .017.608m11.413-.913a.3.3 0 0 1-.07-.6 64.412 64.412 0 0 0 2.947-.574.3.3 0 0 1 .13.594c-.981.215-1.981.41-2.975.58h-.032m-18.632.426a.314.314 0 0 1-.058 0 63.24 63.24 0 0 1-3-.449.3.3 0 1 1 .1-.6c.981.171 1.979.321 2.969.445a.3.3 0 0 1-.018.605m25.685-2.045a.3.3 0 0 1-.1-.6c.957-.278 1.92-.582 2.862-.906a.3.3 0 0 1 .2.575c-.951.326-1.923.634-2.89.914a.307.307 0 0 1-.065.011m-32.807.731a.308.308 0 0 1-.092-.008 63.702 63.702 0 0 1-2.931-.792.3.3 0 1 1 .173-.583c.958.284 1.935.548 2.9.785a.3.3 0 0 1-.053.6m39.629-3.144a.3.3 0 0 1-.137-.584c.919-.386 1.841-.8 2.739-1.228a.3.3 0 0 1 .262.549c-.907.433-1.838.85-2.766 1.24a.3.3 0 0 1-.1.023m-46.557 1.02a.3.3 0 0 1-.125-.018 64.342 64.342 0 0 1-2.82-1.122.3.3 0 0 1 .238-.56c.918.391 1.858.765 2.793 1.112a.3.3 0 0 1-.086.589m53.052-4.2a.3.3 0 0 1-.169-.569c.866-.487 1.733-1 2.575-1.531a.3.3 0 1 1 .323.515 62.411 62.411 0 0 1-2.6 1.546.3.3 0 0 1-.129.039m-59.688 1.3a.3.3 0 0 1-.157-.032c-.9-.455-1.8-.938-2.672-1.435a.3.3 0 1 1 .3-.529c.867.492 1.757.971 2.647 1.422a.3.3 0 0 1-.118.575m65.773-5.194a.3.3 0 0 1-.2-.55c.806-.584 1.608-1.2 2.385-1.817a.3.3 0 0 1 .38.475 63.646 63.646 0 0 1-2.408 1.834.3.3 0 0 1-.159.057m-72.017 1.563a.3.3 0 0 1-.187-.05 64.621 64.621 0 0 1-2.491-1.729.3.3 0 0 1 .359-.491c.8.587 1.635 1.163 2.467 1.712a.3.3 0 0 1-.148.557m77.637-6.128a.3.3 0 0 1-.225-.528 65.24 65.24 0 0 0 2.165-2.077.3.3 0 0 1 .431.429 67.67 67.67 0 0 1-2.185 2.1.3.3 0 0 1-.186.079m-83.442 1.807a.3.3 0 0 1-.215-.07 62.597 62.597 0 0 1-2.277-2 .3.3 0 1 1 .412-.448 63.229 63.229 0 0 0 2.256 1.98.3.3 0 0 1-.175.537m88.492-6.986a.3.3 0 0 1-.249-.5c.654-.752 1.3-1.529 1.916-2.311a.3.3 0 0 1 .477.377 64.302 64.302 0 0 1-1.935 2.333.3.3 0 0 1-.21.1m-93.769 2.036a.3.3 0 0 1-.24-.094 63.489 63.489 0 0 1-2.035-2.243.3.3 0 1 1 .46-.4c.651.753 1.329 1.5 2.016 2.222a.3.3 0 0 1-.2.513m98.2-7.756a.3.3 0 0 1-.27-.476 64.509 64.509 0 0 0 1.643-2.514.3.3 0 0 1 .517.321 64.223 64.223 0 0 1-1.658 2.538.3.3 0 0 1-.231.131m-102.88 2.242a.3.3 0 0 1-.263-.12c-.6-.8-1.2-1.629-1.765-2.459a.3.3 0 1 1 .5-.343 63.463 63.463 0 0 0 1.748 2.435.3.3 0 0 1-.223.487m106.636-8.43a.3.3 0 0 1-.288-.446c.469-.881.922-1.785 1.347-2.686a.3.3 0 0 1 .55.26c-.43.909-.887 1.822-1.36 2.711a.3.3 0 0 1-.249.161M584.518 96.14a.3.3 0 0 1-.282-.149c-.509-.865-1-1.754-1.471-2.642a.3.3 0 0 1 .538-.283c.463.88.953 1.76 1.457 2.617a.3.3 0 0 1-.242.458m113.683-9a.3.3 0 0 1-.3-.415c.365-.929.712-1.879 1.032-2.823a.3.3 0 1 1 .576.2 65.257 65.257 0 0 1-1.042 2.851.3.3 0 0 1-.264.192m-116.988 2.563a.3.3 0 0 1-.3-.18c-.407-.92-.8-1.862-1.161-2.8a.3.3 0 0 1 .567-.22c.359.929.746 1.862 1.15 2.773a.3.3 0 0 1-.155.4.3.3 0 0 1-.1.025m119.244-9.45a.3.3 0 0 1-.314-.382c.256-.966.493-1.95.7-2.925a.3.3 0 1 1 .595.128c-.211.985-.45 1.979-.709 2.953a.3.3 0 0 1-.274.226m-121.789 2.679a.3.3 0 0 1-.31-.213c-.3-.96-.579-1.94-.832-2.914a.3.3 0 0 1 .589-.153c.251.965.528 1.936.824 2.886a.3.3 0 0 1-.271.394m123.245-9.774a.31.31 0 0 1-.064 0 .3.3 0 0 1-.257-.345c.143-.985.265-1.988.361-2.98a.3.3 0 1 1 .605.059c-.1 1-.219 2.014-.364 3.009a.3.3 0 0 1-.281.26m-125 2.755a.3.3 0 0 1-.318-.247 69.535 69.535 0 0 1-.5-2.99.3.3 0 0 1 .6-.086c.141.988.306 1.985.492 2.962a.3.3 0 0 1-.242.356h-.038m125.628-9.963h-.029a.3.3 0 0 1-.295-.313c.029-1 .035-2.005.017-3a.3.3 0 1 1 .608-.011 65.16 65.16 0 0 1-.017 3.031.3.3 0 0 1-.284.295m-126.58 2.788a.3.3 0 0 1-.323-.281q-.027-.355-.05-.71a64.124 64.124 0 0 1-.108-2.317.3.3 0 1 1 .608-.017c.022.761.058 1.533.107 2.295q.023.352.049.7a.3.3 0 0 1-.28.326M702.343 58.72a.3.3 0 0 1-.323-.278c-.084-.991-.192-2-.323-2.986l-.013-.1a.3.3 0 0 1 .6-.08l.013.1c.132 1 .241 2.013.326 3.013a.3.3 0 0 1-.277.329h-.006m-126.514 2.789h-.032a.3.3 0 0 1-.292-.316c.038-1.005.1-2.023.188-3.025a.3.3 0 0 1 .606.052c-.086.992-.148 2-.186 3a.3.3 0 0 1-.284.292M701.31 51.458a.3.3 0 0 1-.318-.244c-.2-.977-.418-1.963-.661-2.928a.3.3 0 0 1 .59-.148c.244.975.469 1.97.667 2.956a.3.3 0 0 1-.238.358l-.041.005M576.517 54.3a.3.3 0 0 1-.066 0 .3.3 0 0 1-.254-.347c.154-1 .334-2 .535-2.991a.3.3 0 0 1 .6.122c-.2.979-.378 1.975-.531 2.962a.3.3 0 0 1-.281.257m122.968-9.847a.3.3 0 0 1-.309-.21c-.306-.948-.639-1.9-.99-2.834a.3.3 0 1 1 .569-.214c.354.941.691 1.9 1 2.861a.3.3 0 0 1-.27.4m-121.455 2.756a.3.3 0 0 1-.313-.384c.267-.971.562-1.949.875-2.907a.3.3 0 0 1 .578.189c-.311.949-.6 1.918-.867 2.879a.3.3 0 0 1-.274.223M696.87 37.71a.3.3 0 0 1-.3-.177 61.601 61.601 0 0 0-1.309-2.7.3.3 0 1 1 .541-.278c.46.894.9 1.812 1.322 2.728a.3.3 0 0 1-.257.43m-116.515 2.639a.3.3 0 0 1-.3-.417c.376-.934.78-1.871 1.2-2.786a.3.3 0 1 1 .553.254 63.362 63.362 0 0 0-1.19 2.76.3.3 0 0 1-.263.19M693.5 31.312a.3.3 0 0 1-.28-.147 65.697 65.697 0 0 0-1.607-2.529.3.3 0 0 1 .505-.338c.559.835 1.1 1.694 1.623 2.554a.3.3 0 0 1-.241.46M583.439 33.8a.3.3 0 0 1-.287-.449c.48-.884.988-1.769 1.51-2.63a.3.3 0 1 1 .52.315 69.184 69.184 0 0 0-1.5 2.605.3.3 0 0 1-.248.158m105.983-8.456a.3.3 0 0 1-.261-.118 63.146 63.146 0 0 0-1.887-2.331.3.3 0 0 1 .464-.394c.65.765 1.291 1.557 1.9 2.353a.3.3 0 0 1-.221.489m-102.173 2.3a.3.3 0 0 1-.269-.478 61.807 61.807 0 0 1 1.8-2.441.3.3 0 1 1 .481.372c-.61.788-1.209 1.6-1.78 2.418a.3.3 0 0 1-.23.129m97.438-7.767a.3.3 0 0 1-.238-.092 61.432 61.432 0 0 0-2.141-2.1.3.3 0 1 1 .416-.444c.734.687 1.461 1.4 2.161 2.123a.3.3 0 0 1-.2.515m-92.956 2.085a.3.3 0 0 1-.247-.505c.667-.753 1.36-1.5 2.062-2.22a.3.3 0 1 1 .436.424 61.573 61.573 0 0 0-2.042 2.2.3.3 0 0 1-.208.1m87.629-6.981a.3.3 0 0 1-.212-.068 63.89 63.89 0 0 0-2.366-1.847.3.3 0 1 1 .363-.488 65.14 65.14 0 0 1 2.389 1.865.3.3 0 0 1-.173.539m-82.534 1.845a.3.3 0 0 1-.223-.53 63.514 63.514 0 0 1 2.3-1.971.3.3 0 1 1 .385.471 63.122 63.122 0 0 0-2.277 1.952.3.3 0 0 1-.184.077m76.685-6.108a.3.3 0 0 1-.184-.048c-.838-.54-1.7-1.068-2.562-1.568a.3.3 0 0 1 .305-.526c.871.5 1.741 1.038 2.586 1.583a.3.3 0 0 1-.146.559m-71.041 1.587a.3.3 0 0 1-.2-.551 64.37 64.37 0 0 1 2.507-1.695.3.3 0 0 1 .329.512c-.837.537-1.672 1.1-2.483 1.678a.3.3 0 0 1-.156.056m64.744-5.16a.3.3 0 0 1-.154-.031 63.486 63.486 0 0 0-2.725-1.267.3.3 0 0 1 .243-.558c.923.4 1.849.833 2.751 1.28a.3.3 0 0 1-.115.576M608.59 8.463a.3.3 0 0 1-.167-.57 65.855 65.855 0 0 1 2.689-1.4.3.3 0 1 1 .268.546c-.895.438-1.791.9-2.663 1.385a.3.3 0 0 1-.127.037m51.96-4.149a.3.3 0 0 1-.122-.017 64.38 64.38 0 0 0-2.853-.948.3.3 0 0 1 .178-.582c.963.295 1.932.617 2.881.957a.3.3 0 0 1-.083.59m-45.433 1.029a.3.3 0 0 1-.135-.585 64.456 64.456 0 0 1 2.832-1.081.3.3 0 0 1 .2.573c-.94.333-1.883.693-2.8 1.07a.306.306 0 0 1-.1.022M653.6 2.262a.3.3 0 0 1-.089-.007 63.327 63.327 0 0 0-2.945-.614.3.3 0 0 1 .11-.6c.991.182 1.992.391 2.974.62a.3.3 0 0 1-.05.6m-31.641.728a.3.3 0 0 1-.1-.6 64.396 64.396 0 0 1 2.936-.75.3.3 0 0 1 .137.593 64.18 64.18 0 0 0-2.909.742.3.3 0 0 1-.063.011m24.505-1.968a.308.308 0 0 1-.055 0c-.989-.114-2-.205-2.99-.271a.3.3 0 1 1 .04-.607c1 .067 2.02.159 3.019.274a.3.3 0 0 1-.015.606m-17.439.411a.3.3 0 0 1-.068-.6c.619-.1 1.249-.192 1.873-.275.375-.049.756-.1 1.13-.139a.3.3 0 1 1 .069.6 62.195 62.195 0 0 0-2.975.41h-.029m10.217-.817h-.02c-.995 0-2 .024-3 .072a.3.3 0 0 1-.034-.607h.005A63.836 63.836 0 0 1 639.221 0a.3.3 0 0 1 .02.608" transform="translate(-493.236 -.001)" style="fill:#dedede"/>
        <path data-name="Path 11232" d="M492.519 90.211v104.634h-.275l-7.922-7.709-7.922 7.709h-.825l-7.922-7.709-7.923 7.709h-.814l-7.909-7.694-7.908 7.694h-.81l-7.917-7.7-7.917 7.7h-.835l-7.917-7.7-7.917 7.7h-.826l-7.9-7.688-7.9 7.688h-.522V61.13h70.8z" transform="translate(-336.522 -52.394)" style="fill:#f2f2f2"/>
        <path data-name="Path 11233" d="M917.134 90.21h-29.08V61.13z" transform="translate(-761.137 -52.393)" style="fill:#dedede"/>
        <path data-name="Path 11237" d="M562.18 1037.195a3.523 3.523 0 0 1-4.982 0l-21.39-21.391-2.718-2.718a17.569 17.569 0 0 0 4.982-4.982l24.109 24.109a3.522 3.522 0 0 1 0 4.982" transform="translate(-456.902 -864.03)" style="fill:#9c9c9c"/>
        <path data-name="Path 11238" d="m545.655 1015.684 5.574 5.575a17.578 17.578 0 0 1-4.981 4.982l-2.856-2.857-2.718-2.718a17.57 17.57 0 0 0 4.982-4.982" transform="translate(-463.402 -870.527)" style="fill:#5e5e5e"/>
        <path data-name="Path 11239" d="M359.651 812.518a21.249 21.249 0 0 0-42.478.916 21.554 21.554 0 0 0 .134 2.4 21.087 21.087 0 0 0 2.033 6.957 21.326 21.326 0 0 0 6.482 7.751q.667.492 1.373.933a21.261 21.261 0 0 0 23.553-.735 21.363 21.363 0 0 0 4.982-4.981 21.154 21.154 0 0 0 3.938-12.327q0-.461-.02-.916M338.422 830.9a17.449 17.449 0 0 1-17.469-17.468 17.479 17.479 0 0 1 19.747-17.319 17.471 17.471 0 0 1 15.19 17.321q0 .4-.018.794a17.381 17.381 0 0 1-2.859 8.815 17.578 17.578 0 0 1-4.982 4.983q-.728.48-1.506.888a17.411 17.411 0 0 1-8.1 1.989" transform="translate(-271.844 -678.969)" style="fill:#b8b8b8"/>
        <path data-name="Path 11240" d="M363.51 853.676a1.631 1.631 0 0 1-1.631-1.631 15.149 15.149 0 0 1 15.149-15.145 1.631 1.631 0 0 1 0 3.263 11.887 11.887 0 0 0-11.886 11.886 1.631 1.631 0 0 1-1.631 1.631" transform="translate(-310.161 -717.29)" style="fill:#fff"/>
        <g data-name="Group 1842">
            <g data-name="Group 1841" style="clip-path:url(#o2i32yj8kb)" transform="translate(83.477 64.679)">
                <path data-name="Path 11241" d="M41.856 9.458a1.193 1.193 0 0 0 .144.169c.4 1.415.942 2.321 1.607 1.743-.754.949.321-.191-.01.534.1-.209.162-.368.216-.507a2.07 2.07 0 0 0 1.836.279c.008.272.022.569.049.92.008-.026.182-.622.277-1.045a3.052 3.052 0 0 0 .3-.159 3.005 3.005 0 0 0-.087.659c.152.113.53-.6.794-1.25a3.313 3.313 0 0 0 .882-2.009 9.862 9.862 0 0 0-.056-1.6.067.067 0 0 0 .06.062c.474.088.177-.439.054-.3a.572.572 0 0 0-.114.239c-.03-.276-.072-.558-.121-.833.135-.64.2-1.1.071-1.093a4.186 4.186 0 0 1-.155.655c-.043-.193-.083-.385-.13-.578a3.614 3.614 0 0 0-.4-2.134c-.01.017-.025.029-.151.076a2.044 2.044 0 0 1-.1-.032c-.012-.04-.028-.079-.043-.12a.64.64 0 0 1 .239 0 1.142 1.142 0 0 0-.341-.28c-.1-.275-.208-.547-.314-.813a.744.744 0 0 1 .211.088 1.7 1.7 0 0 1-.075-.221c-.271-.448-.618-.944-.569-.881.775.187-1.825-1.7-3.015-.349.079-.117.15-.241.237-.352-.034-.045-.132.119-.261.376a1.845 1.845 0 0 0-.235.361c.062-.108.141-.2.209-.308-.459.924-1.307 2.944-1.529 2.112a9.482 9.482 0 0 0-.045 2.225 2.5 2.5 0 0 0-.069.245 5.914 5.914 0 0 0 .634 4.123m.75 1.245.071.141c-.055-.013-.415-.1-.071-.141m2.446-1.259a1.7 1.7 0 0 1-.122-.379 1.781 1.781 0 0 0 .37.433c-.069.116-.15.121-.249-.06m2-6.1c.269.115.24.209-.091.262a.177.177 0 0 1-.035-.063.563.563 0 0 1 .126-.2M44.147.5c-.068.021-.123-.035-.175-.171.052-.015.278.158.175.171m.372.532a4.171 4.171 0 0 0-1.138.861 8.632 8.632 0 0 0 .292-1.038c.175-.125.493-.029.846.173m-1.337-.006c.111-.473-.108.887 0 0m-.544 1.59a.161.161 0 0 1 .1.007l-.057.075a.133.133 0 0 1-.048-.082"/>
                <path data-name="Path 11242" d="M6.341 4.952a3.711 3.711 0 0 1-.47 1.2c-.071-.023.6-2.215-.127-3.25 0 .011-.018.025-.047.04.039-.008.041 0-.1.048-.509-.136 0-.181.128-.123a1.179 1.179 0 0 0-.425-.351 1.592 1.592 0 0 0-.1.22A8.2 8.2 0 0 0 4.835 1.7a1.1 1.1 0 0 1 .475.164c-.037-.11-.077-.332-.045-.219a.263.263 0 0 0 .053.076c-.235-.453-.582-1-.557-.974C5.5.934 3.035-.924 1.879.615c.053-.092.107-.187.164-.279-.032-.036-.109.113-.215.346a2.1 2.1 0 0 0-.2.356c.047-.088.1-.173.152-.261C1.378 1.684.63 3.605.351 2.849c-.04.193-.143.851-.224 1.638-.033-.042-.076-.073-.114-.049s.021.2.1.246c-.132 1.38-.178 3.038.3 3.232C-.308 8.2.108 9.1.778 9.928c.2.733.6 1.221 1.277 1.268.415.321.731.468.731.262a3.481 3.481 0 0 0-.02-.352 3.884 3.884 0 0 0 .557-.211c-.049.212-.1.445-.148.706-2.758 3.189.276-.125.8-1.062l.072-.043c.065-.041.11-.065.16-.1s.071-.058.11-.086a3.531 3.531 0 0 0-.51.951c.2.3 1.752-1.747 1.561-1.872-.023 0-.035.014-.057.016a.987.987 0 0 0 .236-.431 1.916 1.916 0 0 0 .086.546.733.733 0 0 0-.056-.65A4.576 4.576 0 0 0 5.7 8.2c.037.033.058-.284.037-.381.009-.16.017-.326.021-.5l.046-.12c0-.255.072-.363.123-.34.367-1.016.64-1.907.413-1.906m-.368-.843c-.2-.887.224-.139 0 0M5.72 3.052c.261.12.226.2-.105.253-.133.02.069-.232.105-.253m-.184 1.225L5.524 4.2c.087-.018.059.08.012.075M.675 7.259c0 .034-.008.068-.01.1-.109.021-.172 0 .01-.1m1.471-.046a2.8 2.8 0 0 1 .127-1.174c-.069.475-.109.894-.127 1.174M.715 6.886a.175.175 0 0 1-.083-.052.107.107 0 0 1 .094-.034c0 .028-.008.057-.011.085M.673 5.52l.119.11c.073.142-.173-.017-.119-.11M4.269.83C4.253.814 4.233.8 4.216.783c.06-.061.142-.075.053.047M3.006.378c-.056.04-.12 0-.193-.125.044-.028.284.083.193.125m.083.347A2.521 2.521 0 0 0 2.5 1.3a1.915 1.915 0 0 0 .114-.49.56.56 0 0 1 .475-.085M.849 4.847c.144.087.11.112-.1.078zm.032.453c-.1.076-.2.059-.328-.06a.263.263 0 0 1 .328.06m-.359.643c.089.058-.068.1 0 0M.409 8.259c.525.168-.363.354 0 0m.139.452C.576 8.7.592 8.7.611 8.693l.006.078c-.043-.007-.069-.024-.069-.06m4.4.869c.023-.039.042-.081.062-.121a.271.271 0 0 0 .069.013.439.439 0 0 0-.16.239c.006-.034.018-.081.029-.131"/>
                <path data-name="Path 11243" d="M35 27.3a.3.3 0 0 0 .126.121c.847.721 1.7.115 1.287-2.436-.934-5.823-6.466-8.982-12.087-8.124a13.825 13.825 0 0 0-7.662 3.858 9.126 9.126 0 0 0-2.483 4.356 6.726 6.726 0 0 0-.539 1 .75.75 0 0 1 .192.115l-.064.187a1.378 1.378 0 0 1-.154-.236c-.341.862-.213 1.47.727 1.556a1.388 1.388 0 0 0-.748.218q1 .041.181.222c1.123-.319 1.563.1 2.1-.539a8.555 8.555 0 0 1 .366-1.55 16.907 16.907 0 0 1 2.409-3.374c.6-.2 1.346-.36 1.367-.618 0-.111-.454-.051-.64-.109.17-.159.341-.315.52-.462.073.3 1.007.054 1.8-.226-2.075 2.264 3.029-1.63 2.116-1.615 1.3-.021 2.1 1.113 3.875.5 1.467.114-.359-.486-.331-.419.384-.482.832-.3 1.055-.382.111.027.219.041.33.072a1.616 1.616 0 0 0 .273 1.53c.68.675 1.731.05 1.947.375.118.134 1.612 1.454 2.414 2.075.055.118.106.238.155.359a.948.948 0 0 0 .119.3c.025.07.038.146.06.217-.257.153-.629.323-.6.353.083.083.43-.018.672-.088.044.15.094.3.127.45a6.676 6.676 0 0 0 .284.97c-.29.337.533 2.091.648 2.319v-1.157A2.144 2.144 0 0 0 35 27.3m-20.441-.018c.022.066.047.126.073.185a.966.966 0 0 1-.112-.01 1.1 1.1 0 0 1 .039-.175m6.789-6.448c-.187.083-.081-.525 0 0m.239-.263a.231.231 0 0 1-.063-.229c.128.1.146.182.063.229m2.86-1.187c-.047.012-.082-.041-.117-.126.035-.006.063-.017.1-.024.045.077.071.151.02.15m1.728.358c0-.011-.02-.849 0 0m.778.041c.083-.269.147-.264.179.014zm2.177-.23c.031.012.065.023.1.033-.024.064-.08.24-.042.2a1.5 1.5 0 0 0 .042-.2.854.854 0 0 1-.042.2c-.4.452-.2-.035-.053-.232m.231.081c.08.029.162.052.242.084a2.877 2.877 0 0 1-.1.27c-.087.209-.17-.271-.141-.354m.373 1.044a.2.2 0 0 1 .086.058c-.837-.191-.363-.211-.086-.058m.2-.808c.1.051.21.106.313.162a.672.672 0 0 1-.313-.162m.34.946c.023 0 .019-.07.006-.027.075-.3.226.077-.006.027m4.145 5.962a.4.4 0 0 1 .081-.172c.052.093.1.183.156.266-.058.413-.135.53-.237-.094"/>
            </g>
        </g>
    </g>
</svg>
