<svg id="splash_logo" xmlns="http://www.w3.org/2000/svg" width="211.332" height="259.392" viewBox="0 0 211.332 259.392">
  <g id="icon" transform="translate(-81.834 -245)">
    <path id="Path_1" data-name="Path 1" d="M-128.649-194.466a57.513,57.513,0,0,1-11-33.916v-32.374a7.9,7.9,0,0,0-7.814-7.934,7.66,7.66,0,0,0-5.275,2.25,7.631,7.631,0,0,0-2.25,5.42v32.63A72.876,72.876,0,0,0-134.18-177.3a1.705,1.705,0,0,0,2.889-.869c.886-4.491,2.463-12.535,2.94-14.973A1.662,1.662,0,0,0-128.649-194.466Z" transform="translate(268.824 542.911)" fill="#fff"/>
    <path id="Path_2" data-name="Path 2" d="M-.2-260.756v32.365a73.133,73.133,0,0,1-67.483,72.912v12.118h12.195a7.67,7.67,0,0,1,7.67,7.67,7.631,7.631,0,0,1-2.25,5.42,7.631,7.631,0,0,1-5.42,2.25h-37.64a7.67,7.67,0,0,1-7.67-7.67,7.631,7.631,0,0,1,2.25-5.42,7.631,7.631,0,0,1,5.42-2.25h10.107v-12.305a72.413,72.413,0,0,1-27.056-8.351,1.709,1.709,0,0,1,.145-3.059l14.8-6.519a1.7,1.7,0,0,1,1.227-.051,57.785,57.785,0,0,0,18.543,3.042h2.037a57.786,57.786,0,0,0,57.786-57.786v-32.63a7.631,7.631,0,0,1,2.25-5.42,7.66,7.66,0,0,1,5.275-2.25A7.9,7.9,0,0,1-.2-260.756Z" transform="translate(262.315 542.911)" fill="#fff"/>
    <path id="Path_3" data-name="Path 3" d="M-30.984-223.38v.511a43.7,43.7,0,0,1-43.7,43.7h-3.937a44.236,44.236,0,0,1-6.238-.443l-32.834,14.461a1.914,1.914,0,0,1-2.65-2.122l5.982-30.448a43.455,43.455,0,0,1-7.959-25.148v-.511h18.577a28.752,28.752,0,0,0,24.3,13.345h3.554A28.752,28.752,0,0,0-51.6-223.38Z" transform="translate(263.995 536.213)" fill="#fff"/>
    <path id="Path_4" data-name="Path 4" d="M-30.984-259.281v10.166H-122.32v-10.166c0-1.287.051-2.557.162-3.809h74.625a28.778,28.778,0,0,0-28.36-23.869h-3.554a28.747,28.747,0,0,0-21.722,9.894h-17.376A43.7,43.7,0,0,1-78.621-302.98h3.937a43.71,43.71,0,0,1,43.537,39.89C-31.035-261.837-30.984-260.567-30.984-259.281Z" transform="translate(263.995 547.98)" fill="#fff"/>
  </g>
  <g id="text" transform="translate(-81.834 -245)">
    <path id="Path_5" data-name="Path 5" d="M385.185-583.137H360.913c.212,6.518,4.876,10.811,11.288,10.811,5.352,0,8.532-3.074,9.751-5.935l2.279.371c-1.219,3.71-5.405,7.9-12.083,7.9-7.843,0-13.778-5.723-13.778-14.1,0-7.525,5.564-13.778,13.407-13.778,8.214,0,13.408,6.677,13.408,14.149ZM360.913-585.1h21.675c-.318-5.512-4.4-10.44-10.811-10.44A10.693,10.693,0,0,0,360.913-585.1Z" transform="translate(-276.536 1062.147)" fill="#fff"/>
    <path id="Path_6" data-name="Path 6" d="M467.212-606.513c.477,5.194,4.717,7.631,8.9,7.631,5.246,0,8.532-2.756,8.532-6.783,0-4.876-4.293-7.313-9.062-9.539-5.617-2.756-10.122-4.928-10.122-11.076,0-5.193,4.61-8.85,10.281-8.85a9.843,9.843,0,0,1,9.963,9.115h-2.543a7.357,7.357,0,0,0-7.42-6.677c-4.239,0-7.737,2.65-7.737,6.465,0,4.982,3.869,6.571,8.267,8.638,6.094,2.862,10.917,5.935,10.917,11.977,0,5.564-4.558,9.168-11.076,9.168-5.83,0-11.023-3.816-11.447-10.069Z" transform="translate(-351.993 1088.597)" fill="#fff"/>
    <path id="Path_7" data-name="Path 7" d="M475.356-596.864c-6.394,0-11.33-4.348-11.736-10.339l-.021-.31h3.119l.024.264c.467,5.089,4.663,7.368,8.614,7.368,5.007,0,8.242-2.549,8.242-6.493,0-4.733-4.207-7.089-8.895-9.276l-.106-.052c-5.69-2.791-10.184-5-10.184-11.287,0-5.211,4.545-9.14,10.571-9.14a10.09,10.09,0,0,1,10.252,9.381l.027.315h-3.118l-.029-.257a7.034,7.034,0,0,0-7.131-6.42c-4.245,0-7.447,2.655-7.447,6.175,0,4.587,3.33,6.144,7.546,8.116l.554.26c5.608,2.633,11.084,5.747,11.084,12.239C486.722-600.665,482.155-596.864,475.356-596.864Zm-11.132-10.069c.589,6.231,6,9.489,11.132,9.489,6.451,0,10.786-3.568,10.786-8.878,0-5.551-4.113-8.6-10.75-11.714l-.553-.259c-4.229-1.978-7.881-3.686-7.881-8.641,0-3.851,3.451-6.756,8.027-6.756a7.588,7.588,0,0,1,7.674,6.677h1.968a9.512,9.512,0,0,0-9.642-8.535c-5.7,0-9.991,3.68-9.991,8.56,0,5.93,4.351,8.064,9.859,10.766l.1.049c4.665,2.177,9.225,4.729,9.225,9.8,0,4.3-3.463,7.073-8.822,7.073-4.146,0-8.546-2.362-9.165-7.631Z" transform="translate(-351.233 1089.307)" fill="#fff"/>
    <path id="Path_8" data-name="Path 8" d="M562.752-597.339h2.384l.159,7.207a12.986,12.986,0,0,1,11.977-7.737,13.9,13.9,0,0,1,13.885,13.884,13.921,13.921,0,0,1-13.885,13.99,12.948,12.948,0,0,1-11.977-7.79v19.449h-2.543Zm14.255,24.907a11.546,11.546,0,0,0,11.553-11.553,11.524,11.524,0,0,0-11.553-11.447,11.478,11.478,0,0,0-11.5,11.447A11.5,11.5,0,0,0,577.007-572.432Z" transform="translate(-421.617 1062.147)" fill="#fff"/>
    <path id="Path_9" data-name="Path 9" d="M564.456-559.175h-3.7v-40.165h3.532l.123,5.585a13.649,13.649,0,0,1,11.445-6.115A14.481,14.481,0,0,1,590.318-585.4a14.534,14.534,0,0,1-14.465,14.571,13.616,13.616,0,0,1-11.4-6.075Zm-2.544-1.161H563.3v-21.686l1.113,2.588a12.4,12.4,0,0,0,11.444,7.439,13.373,13.373,0,0,0,13.3-13.41,13.319,13.319,0,0,0-13.3-13.3,12.423,12.423,0,0,0-11.445,7.389l-1.054,2.421-.2-9.28h-1.237Zm13.675-12.936a12.121,12.121,0,0,1-12.08-12.133,12.067,12.067,0,0,1,12.08-12.027A12.094,12.094,0,0,1,587.721-585.4,12.147,12.147,0,0,1,575.588-573.271Zm0-23a10.905,10.905,0,0,0-10.92,10.866,10.959,10.959,0,0,0,10.92,10.973A10.985,10.985,0,0,0,586.56-585.4,10.932,10.932,0,0,0,575.588-596.271Z" transform="translate(-420.198 1063.567)" fill="#fff"/>
    <path id="Path_10" data-name="Path 10" d="M703.538-583.137H679.267c.212,6.518,4.876,10.811,11.288,10.811,5.352,0,8.532-3.074,9.751-5.935l2.279.371c-1.219,3.71-5.405,7.9-12.083,7.9-7.844,0-13.779-5.723-13.779-14.1,0-7.525,5.564-13.778,13.408-13.778,8.214,0,13.408,6.677,13.408,14.149ZM679.267-585.1h21.675c-.318-5.512-4.4-10.44-10.811-10.44A10.693,10.693,0,0,0,679.267-585.1Z" transform="translate(-502.52 1062.147)" fill="#fff"/>
    <path id="Path_11" data-name="Path 11" d="M688.373-571.253c-8.488,0-14.649-6.294-14.649-14.967a14.887,14.887,0,0,1,4-10.31A13.986,13.986,0,0,1,688-600.869c8.14,0,14.278,6.457,14.278,15.02v1.454H678.069c.566,5.463,4.628,9.07,10.357,9.07,4.9,0,7.837-2.793,8.95-5.406l.267-.628,3.957.644-.318.967C699.938-575.657,695.325-571.253,688.373-571.253ZM688-599.128c-7.147,0-12.537,5.549-12.537,12.908,0,7.664,5.429,13.226,12.908,13.226a11.79,11.79,0,0,0,10.873-6.341l-.562-.091a11.131,11.131,0,0,1-10.259,5.841c-6.935,0-11.935-4.792-12.158-11.653l-.029-.9h24.3C700.407-592.488,696.024-599.128,688-599.128Zm11.733,12.772h-23.5l.033-.9A11.549,11.549,0,0,1,688-598.537c7.242,0,11.357,5.664,11.68,11.26ZM678.079-588.1h19.772A9.792,9.792,0,0,0,688-596.8,9.82,9.82,0,0,0,678.079-588.1Z" transform="translate(-500.391 1064.277)" fill="#fff"/>
    <path id="Path_12" data-name="Path 12" d="M813.855-583.137H789.583c.212,6.518,4.876,10.811,11.288,10.811,5.352,0,8.532-3.074,9.751-5.935l2.279.371c-1.219,3.71-5.405,7.9-12.083,7.9-7.843,0-13.778-5.723-13.778-14.1,0-7.525,5.564-13.778,13.408-13.778,8.214,0,13.408,6.677,13.408,14.149ZM789.583-585.1h21.675c-.318-5.512-4.4-10.44-10.811-10.44A10.693,10.693,0,0,0,789.583-585.1Z" transform="translate(-580.829 1062.147)" fill="#fff"/>
    <path id="Path_13" data-name="Path 13" d="M797.979-571.673c-8.656,0-14.939-6.416-14.939-15.257a15.176,15.176,0,0,1,4.08-10.509,14.275,14.275,0,0,1,10.488-4.43c8.305,0,14.568,6.582,14.568,15.31v1.744H788c.675,5.127,4.576,8.49,10.031,8.49,4.76,0,7.606-2.7,8.683-5.23l.356-.837,4.516.735-.424,1.29C809.788-576.18,805.075-571.673,797.979-571.673Zm-.371-27.875c-6.982,0-12.247,5.425-12.247,12.618,0,7.617,5.189,12.936,12.618,12.936a13.726,13.726,0,0,0,1.715-.106,14.268,14.268,0,0,1-1.662.1c-7.1,0-12.219-4.908-12.448-11.934l-.027-.838h-.017l.009-.242,0-.118h.008l.031-.843a11.834,11.834,0,0,1,12.024-11.558c7.421,0,11.639,5.8,11.969,11.534l.05.867h.216C809.59-593.258,805.32-599.548,797.608-599.548Zm-9.59,10.451h19.1a9.481,9.481,0,0,0-9.508-8.119A9.532,9.532,0,0,0,788.018-589.1Z" transform="translate(-577.99 1064.987)" fill="#fff"/>
    <path id="Path_14" data-name="Path 14" d="M911.611-595.432a11.6,11.6,0,0,0-11.606,11.447,11.625,11.625,0,0,0,11.606,11.553,11.45,11.45,0,0,0,8.532-3.869v2.65a11.912,11.912,0,0,1-8.8,3.657,13.977,13.977,0,0,1-13.991-13.99,13.955,13.955,0,0,1,13.991-13.884,11.912,11.912,0,0,1,8.8,3.656v2.65A11.45,11.45,0,0,0,911.611-595.432Z" transform="translate(-659.137 1062.147)" fill="#fff"/>
    <path id="Path_15" data-name="Path 15" d="M907.8-572.093a15.459,15.459,0,0,1-15.441-15.441A15.406,15.406,0,0,1,907.8-602.869a13.276,13.276,0,0,1,9.846,4.105l.4.42v6.853l-2.5-2.619a9.993,9.993,0,0,0-7.482-3.419,10.211,10.211,0,0,0-10.155,10,10.14,10.14,0,0,0,10.155,10.1,9.991,9.991,0,0,0,7.482-3.42l2.5-2.619v6.852l-.4.421A13.276,13.276,0,0,1,907.8-572.093Z" transform="translate(-655.588 1065.697)" fill="#fff"/>
    <path id="Path_16" data-name="Path 16" d="M1022.779-616.391v15.527h-2.544V-615.6c0-7.154-3.55-10.175-8.214-10.175-7.79,0-10.228,7-10.387,10.228v14.68H999.09v-39.746h2.544V-621.9a12.624,12.624,0,0,1,11.076-6.306C1018.645-628.208,1022.779-624.234,1022.779-616.391Z" transform="translate(-731.354 1092.487)" fill="#fff"/>
    <path id="Path_17" data-name="Path 17" d="M1020.261-603.381h-6.026v-16.473c0-3.848-1.123-8.434-6.473-8.434-6.711,0-8.511,6.119-8.646,8.532v16.375h-6.025v-43.228h6.025v15.75a14.173,14.173,0,0,1,9.335-3.349c7.285,0,11.81,5.2,11.81,13.558Z" transform="translate(-727.095 1096.746)" fill="#fff"/>
  </g>
</svg>
