<svg id="username" xmlns="http://www.w3.org/2000/svg" width="16.181" height="24" viewBox="0 0 16.181 24">
  <path id="Path_1297" data-name="Path 1297" d="M-255.8-625.11a.563.563,0,0,1-.277-.548c.021-.905-.02-1.815.05-2.716a4.073,4.073,0,0,1,3.481-3.581c.316-.038.64-.034.951-.093a1.63,1.63,0,0,0,1.3-1.54.309.309,0,0,0-.112-.239,5.409,5.409,0,0,1-2.933-4.566c-.043-.018-.1-.042-.154-.064a1.525,1.525,0,0,1-1.072-1.45,27.992,27.992,0,0,1,.09-3.509,6.1,6.1,0,0,1,2.955-4.8,6.391,6.391,0,0,1,2.648-.848c.076-.008.15-.03.225-.045h1.262a13.368,13.368,0,0,1,1.375.241c.642.179,1.273.4,1.9.639.4.15.449.327.276.728l.346.113a5.332,5.332,0,0,1,2.87,2.207.469.469,0,0,1-.046.691,2.611,2.611,0,0,0-.691,1.814q0,1.254,0,2.507a1.73,1.73,0,0,1,0,.211.4.4,0,0,1-.409.368.376.376,0,0,1-.38-.392q-.012-.773,0-1.547c.008-.577,0-1.156.05-1.731a2.777,2.777,0,0,1,.6-1.454.243.243,0,0,0-.01-.358,4.661,4.661,0,0,0-3.392-1.788c-.155-.014-.31-.031-.465-.049a.385.385,0,0,1-.368-.335.378.378,0,0,1,.242-.433l.247-.113.006-.082c-.587-.124-1.169-.279-1.761-.367a6.38,6.38,0,0,0-3.44.382,5.083,5.083,0,0,0-3.1,3.789,11.68,11.68,0,0,0-.228,1.948c-.038.685-.011,1.374-.009,2.062a.837.837,0,0,0,.454.795v-.257c0-.773,0-1.547,0-2.32a2.8,2.8,0,0,1,2.812-2.808q2.525-.006,5.049,0a2.794,2.794,0,0,1,2.8,2.793c.007,1.125.012,2.25,0,3.374A5.328,5.328,0,0,1-248-633.261c-.486-.007-.972-.095-1.478-.147-.057.2-.135.44-.189.687-.01.045.065.13.12.164a3,3,0,0,0,2.066.4.861.861,0,0,1,.322-.015.367.367,0,0,1,.289.378.4.4,0,0,1-.356.4,3.525,3.525,0,0,1-1.8-.074A7.688,7.688,0,0,1-250-631.9a.189.189,0,0,0-.26.027,2.511,2.511,0,0,1-1.763.679,3.317,3.317,0,0,0-3.246,3.3q-.017,1.1,0,2.2a.637.637,0,0,1-.248.586Zm7.827-18.738c-.834,0-1.667,0-2.5,0a2,2,0,0,0-2.054,2.056c0,.57-.006,1.14,0,1.711.008.694-.023,1.394.051,2.082a4.523,4.523,0,0,0,4.1,3.932,4.544,4.544,0,0,0,4.917-4.571c0-1.039,0-2.078,0-3.117a2,2,0,0,0-2.087-2.093C-246.348-643.85-247.158-643.848-247.968-643.848Z" transform="translate(256.072 649.11)" fill="#fff"/>
  <path id="Path_1298" data-name="Path 1298" d="M-91.986-383.232a.652.652,0,0,1-.252-.594c0-.854.039-1.714-.033-2.563a3.315,3.315,0,0,0-3.276-3.019,2.511,2.511,0,0,1-2.068-1.015,1.374,1.374,0,0,1-.13-.2.4.4,0,0,1,.13-.542.4.4,0,0,1,.532.091c.031.036.056.076.084.115a1.663,1.663,0,0,0,1.389.735,4.164,4.164,0,0,1,4.122,3.494,4.627,4.627,0,0,1,.062.779c.008.712,0,1.425.007,2.137a.591.591,0,0,1-.282.579Z" transform="translate(107.6 407.232)" fill="#fff"/>
  <path id="Path_1299" data-name="Path 1299" d="M-86.509-297.216c-.2,0-.4.006-.593,0a.4.4,0,0,1-.408-.38.4.4,0,0,1,.394-.421c.411-.014.822-.014,1.233,0a.4.4,0,0,1,.4.419.407.407,0,0,1-.429.384h-.593Z" transform="translate(98.024 319.943)" fill="#fff"/>
</svg>
