<svg xmlns="http://www.w3.org/2000/svg" width="20" height="20" viewBox="0 0 20 20">
    <path style="fill:none" d="M0 0h20v20H0z"/>
    <g data-name="volume">
        <path data-name="Path 11275" d="M20 1.533A1.425 1.425 0 0 0 18.857.054 3.678 3.678 0 0 0 18.219 0a3.51 3.51 0 0 0-.612.054 1.436 1.436 0 0 0-1.156 1.574v9.8a2.942 2.942 0 0 0 .019.348 1.423 1.423 0 0 0 1.1 1.237 3.683 3.683 0 0 0 .762.054h.046A1.494 1.494 0 0 0 20 11.442V1.533zm-1.8 10.749a.994.994 0 0 1-.739-.215 1.225 1.225 0 0 1-.215-.891c.01-1.728.01-3.486.01-5.185 0-1.41 0-2.868.005-4.3a1.179 1.179 0 0 1 .181-.652 1.019 1.019 0 0 1 .8-.269 1.014 1.014 0 0 1 .768.251 1.037 1.037 0 0 1 .188.594c.012 1.258.011 2.537.01 3.773v6.034c0 .6-.229.828-.844.86h-.161z" style="fill:#026c9f" transform="translate(0 .987)"/>
        <path data-name="Path 11276" d="M19.9 15.984a.561.561 0 0 0-.4-.139H9.259c-.186 0-.281-.034-.352-.235a1.741 1.741 0 0 0-1.647-1.147 1.783 1.783 0 0 0-1.652 1.141c-.022.054-.041.11-.061.169l-.024.067H.5a1.063 1.063 0 0 0-.108 0 .379.379 0 0 0-.376.389.376.376 0 0 0 .36.4.691.691 0 0 0 .113.008h5.04l.026.077c.02.06.039.117.061.172a1.789 1.789 0 0 0 1.637 1.129h.015A1.747 1.747 0 0 0 8.9 16.89c.074-.211.17-.245.374-.245h10.207c.323 0 .51-.143.514-.392a.361.361 0 0 0-.1-.273zM7.27 17.22h-.019a.978.978 0 0 1 .008-1.956h.013a.978.978 0 1 1 0 1.956z" style="fill:#026c9f" transform="translate(0 .987)"/>
        <path data-name="Path 11277" d="M14.509 4.26A1.4 1.4 0 0 0 13.4 2.892a3.447 3.447 0 0 0-.745-.054h-.09a1.467 1.467 0 0 0-1.59 1.6v7.114a1.44 1.44 0 0 0 1.255 1.5 3.974 3.974 0 0 0 .51.033 4.17 4.17 0 0 0 .506-.032 1.436 1.436 0 0 0 1.26-1.41c.01-2.375.01-4.859.003-7.383zm-2.742 6.945c.022-.763.017-1.539.012-2.289V4.462c0-.572.236-.806.838-.832h.166a.97.97 0 0 1 .726.208 1.21 1.21 0 0 1 .221.894c-.02 1.571-.016 3.169-.012 4.714v1.976c0 .608-.226.833-.865.86h-.146a.96.96 0 0 1-.731-.215 1.159 1.159 0 0 1-.206-.861z" style="fill:#026c9f" transform="translate(0 .987)"/>
        <path data-name="Path 11278" d="M9.023 6.692a1.387 1.387 0 0 0-1.129-1.35 3.431 3.431 0 0 0-.685-.049h-.171a1.466 1.466 0 0 0-1.547 1.541V11.6a1.448 1.448 0 0 0 1.252 1.444 3.936 3.936 0 0 0 .516.034 4.225 4.225 0 0 0 .5-.03 1.4 1.4 0 0 0 1.26-1.378c.018-1.587.019-3.217.004-4.978zM6.281 11.15c.024-.973.018-1.962.013-2.919V6.912c0-.562.237-.8.814-.828h.18a1 1 0 0 1 .752.216 1.221 1.221 0 0 1 .2.914c-.019.454-.015.914-.01 1.364v2.876c0 .565-.238.806-.814.829h-.183a.969.969 0 0 1-.738-.208 1.27 1.27 0 0 1-.214-.925z" style="fill:#026c9f" transform="translate(0 .987)"/>
        <path data-name="Path 11279" d="M3.556 10.839V10.5h-.008v-.339c0-.265.01-.538-.009-.806a1.433 1.433 0 0 0-1.358-1.36 5.248 5.248 0 0 0-.86.005A1.437 1.437 0 0 0 .012 9.389a51.74 51.74 0 0 0 0 2.265 1.428 1.428 0 0 0 1.117 1.362 3.6 3.6 0 0 0 .742.054h.114a1.48 1.48 0 0 0 1.568-1.553c.006-.227.005-.457.003-.678zm-2.75-.032V9.491a.667.667 0 0 1 .694-.706c.1 0 .195-.006.284-.006.126 0 .241 0 .353.013a.6.6 0 0 1 .6.558c.02.626.015 1.264.009 1.882v.461a.5.5 0 0 1-.066.215.938.938 0 0 1-.873.405 1.866 1.866 0 0 1-.47-.063.7.7 0 0 1-.52-.76z" style="fill:#026c9f" transform="translate(0 .987)"/>
    </g>
</svg>
